<?xml version="1.0" encoding="UTF-8"?>
<svg xmlns="http://www.w3.org/2000/svg" xmlns:xlink="http://www.w3.org/1999/xlink" viewBox="0 0 1588.91 1080">
  <defs>
    <style>
      .cls-1 {
        fill: none;
      }

      .cls-2 {
        clip-path: url(#clippath);
      }

      .cls-3 {
        fill: #fcdd2a;
      }

      .cls-4 {
        fill: #fff;
      }

      .cls-5 {
        fill: #fdc5ab;
      }

      .cls-6 {
        fill: #131e67;
      }

      .cls-7 {
        fill: #231f20;
      }

      .cls-8 {
        fill: #0d2c72;
      }

      .cls-9 {
        clip-path: url(#clippath-1);
      }

      .cls-10 {
        opacity: .74;
      }
    </style>
    <clipPath id="clippath">
      <rect class="cls-1" x="-633.07" y="323.91" width="623.94" height="492.21" transform="translate(-891.11 248.91) rotate(-90)"/>
    </clipPath>
    <clipPath id="clippath-1">
      <rect class="cls-1" x="366.62" y="390.08" width="836.63" height="554.14"/>
    </clipPath>
  </defs>
  <g id="micro">
    <g class="cls-2">
      <g class="cls-10">
        <path class="cls-4" d="M-566.59,374.95c28.8-20.88,66.29-24.68,99.97-14.82s62.18,34.7,80.7,64.84c44.51,72.4,32.93,162.88,10.9,240.74-11.42,40.38-26.91,79.56-46.24,116.81-17.4,33.53-37.59,69.77-70.22,90.72-25.99,16.69-65.15,22.06-90.19,.36-27.24-23.61-23.23-64.29-16.61-96,7.23-34.65,16.63-72.99,41.66-99.45s65.74-36.47,101.81-41.83c69.27-10.3,141-1.66,206.64,22.29s126.3,64.3,172.5,117.35c22.66,26.02,47.16,67.4,19.23,98.64-10.52,11.76-25.13,19.19-39.8,24.43-18.42,6.58-37.88,10.51-57.09,13.96-42.12,7.55-86.53,11.31-129.27,7.65-15.98-1.37-34.62-6.73-37.3-25.14-1.3-8.92,1.07-18.13,3.8-26.56,3.16-9.76,7.17-19.28,11.01-28.78,30.46-75.37,68.74-147.9,116.37-213.87,11.87-16.45,24.34-32.46,37.42-47.96s26.23-29.99,42.33-41.55c28.79-20.65,72.96-31.28,100.92-3.22,22.98,23.06,25,60.2,8.72,87.46-18.76,31.42-54.86,47.53-90.48,48.46-39.1,1.02-80.26-12.65-111.41-36.27s-48.68-60.71-55.78-99.4c-12.52-68.25,3.84-140.39,40.76-198.69,18.25-28.83,41.82-54.59,69.53-74.58,15.78-11.39,33.24-21.69,53.15-22.64,17.29-.82,34.62,4.32,48.66,14.46,28.37,20.49,37.41,61.86,21.23,92.69s-50.75,47.04-82.97,55.99c-72.63,20.17-158.38,11.9-215.26-41.5-25.44-23.89-44.15-55.11-51.29-89.4-1.72-8.24-2.68-16.61-2.88-25.03s-.52-17.25,2.19-24.91c2.18-6.15,7.04-8.5,9.2-1.1s.17,15.17-.95,22.29c-11.31,71.92-44.1,140.15-92.9,194.15-12.28,13.58-25.54,26.28-39.68,37.91-14.85,12.21-31,24.4-49.44,30.54-17.22,5.74-37.99,5.96-52.96-5.65-12.4-9.62-18.17-25.55-18.84-40.82-1.62-36.76,24.8-66.17,47.83-91.71,5.16-5.72-3.3-14.24-8.49-8.49-25.9,28.73-54.77,62.21-51.12,103.65,1.48,16.86,8,33.97,21.23,45.11,15.72,13.23,37.07,16.09,56.72,11.89s38.57-16.5,54.95-29.2,30.45-25.61,44.03-40.14c26.78-28.65,49.25-61.41,66.32-96.71,17.2-35.56,29.18-73.65,34.73-112.79,1.15-8.08,2.43-16.37-.2-24.34-2.41-7.31-8.18-13.27-16.38-12.66-19.17,1.42-18.63,30.17-18.23,43.71,1.13,38.1,16.72,74.51,40.6,103.86,25.07,30.81,59.46,52.38,97.41,63.64,40.26,11.95,83.43,12.45,124.49,4.46,36.57-7.11,76.57-20.93,101.19-50.45,24.68-29.58,27.81-73.34,5.42-105.32s-64.77-44.49-100.49-30.76c-19.1,7.34-36.08,19.97-51.54,33.17-14.14,12.08-26.99,25.62-38.44,40.28-23.13,29.6-40.6,63.44-51.37,99.44-10.72,35.85-14.78,73.96-10.9,111.21,4.28,41.06,17.31,82.88,46.82,112.95,29.1,29.65,70.77,47.1,111.62,52.01,40.22,4.83,82.77-5.66,111.09-35.91,25-26.7,33.04-64.87,17.22-98.41-7.41-15.7-20.15-28.65-36.18-35.48-18.97-8.08-40.7-7.52-60.16-1.37-40.87,12.92-69.62,48.66-95.19,81.07-27.2,34.47-51.73,70.99-73.65,109.03-22.14,38.42-41.65,78.33-58.92,119.17-4.2,9.94-8.29,19.94-12.23,29.99s-7.84,19.59-9.74,29.96c-3.52,19.25,1.89,38.74,20.64,47.66,17.55,8.35,38.79,7.52,57.74,7.57,24.23,.06,48.46-1.45,72.49-4.5s46.24-7.07,68.84-12.95c16.88-4.39,33.96-10.43,48.46-20.33,14.52-9.92,26.25-24.11,29.73-41.71,4.01-20.3-2.72-40.58-12.98-57.99s-24.37-33.08-38.72-47.54c-13.37-13.47-27.69-25.91-42.74-37.45-60.38-46.32-133.33-76.36-208.66-86.77-37.62-5.2-75.79-5.7-113.47-.78s-81.99,14.13-111.58,42.2c-28.94,27.45-40.03,68.66-48.15,106.4-7.54,35.04-11.73,77.88,15.23,106.09,25.04,26.21,67.18,26.37,98.07,11.36,37.13-18.03,60.61-55.6,79.63-90.62,21.67-39.89,39.07-82.16,51.74-125.75,13.17-45.29,22.53-92.88,21.05-140.24-1.29-41.46-11.61-82.96-34.37-118.01-20.85-32.1-51.67-57.66-89.09-67.49-35.55-9.33-75.36-4.83-105.54,17.05-6.19,4.49-.21,14.91,6.06,10.36h0Z"/>
      </g>
    </g>
    <path class="cls-6" d="M196.15,860.97s47.53,80.69,47.36,79.68,6.85-32.96,6.85-32.96l-24.99-39.24c-.65-.85-.54-2.07,.26-2.78h0c.9-.8,2.28-.66,3.01,.29l31,43.85,16.74,16.77c5.67,6.58,11.76,12.8,18.21,18.62h0c4.91,4.43,10.46,8.09,16.45,10.87h0s11.56-55.3,11.56-55.3l6.54-24.97,.34-14.75-46.59-25.81-86.74,25.72Z"/>
    <path class="cls-5" d="M284.44,635.73c11.15,3.42,21.39,10.59,27.15,20.73s6.52,23.32,.68,33.42c-3.33,5.77-8.48,10.22-13.2,14.92-17.73,17.65-30.46,40.27-36.33,64.59-7.55-9.16-7.92-22.08-8.03-33.95-.11-11.87-.72-24.84-8.56-33.75-3.5-3.98-8.14-6.75-12.02-10.36-3.88-3.61-7.11-8.63-6.39-13.88,.84-6.11,6.77-10.33,12.71-11.97s12.26-1.49,18.25-2.94c12.53-3.05,22.88-13.68,25.6-26.28"/>
  </g>
  <g id="mega">
    <rect class="cls-3" x="366.62" y="390.08" width="836.63" height="554.14"/>
    <g class="cls-9">
      <g>
        <g class="cls-10">
          <path class="cls-4" d="M352.87,695.44c26.37,51.02,53.69,101.54,81.97,151.53,25.72,45.46,51.34,93.41,91.19,128.29,20.31,17.78,43.94,31.81,70.18,38.64,7.48,1.95,10.67-9.62,3.19-11.57-47.54-12.38-83.41-48.76-110.31-88.2-14.94-21.89-27.92-45.07-41-68.1-13.69-24.12-27.16-48.37-40.4-72.74-15.11-27.81-29.93-55.78-44.47-83.9-3.55-6.86-13.91-.8-10.36,6.06h0Z"/>
        </g>
        <g class="cls-10">
          <path class="cls-4" d="M638.42,966.84c-12.85-41.61-35.26-79.12-59.11-115.24-24.19-36.64-49.19-72.58-69.48-111.6-40.44-77.77-65.84-163.5-74.65-250.71-4.98-49.33-4.67-99.15,.96-148.41,.88-7.66-11.13-7.6-12,0-10.05,87.9-2.97,177.59,20.02,262.99,11.45,42.52,26.89,83.97,46.01,123.63,19.27,39.97,43.15,76.95,67.82,113.73,27.15,40.47,54.35,81.83,68.85,128.79,2.27,7.36,13.86,4.22,11.57-3.19h0Z"/>
        </g>
        <g class="cls-10">
          <path class="cls-4" d="M450.67,380.18c32.93,74,63.19,149.17,90.7,225.35,27.47,76.07,52.21,153.12,74.15,230.97,12.34,43.79,23.79,87.83,34.36,132.07,1.79,7.51,13.37,4.33,11.57-3.19-18.94-79.28-40.72-157.87-65.33-235.58-24.51-77.4-51.82-153.92-81.85-229.36-16.9-42.46-34.66-84.57-53.24-126.32-3.13-7.04-13.48-.94-10.36,6.06h0Z"/>
        </g>
        <g class="cls-10">
          <path class="cls-4" d="M530.95,383.62c6.32,82.31,24.04,163.49,51.37,241.35,27.23,77.59,63.63,151.9,107.13,221.64,24.62,39.47,51.57,77.45,80.4,113.95,4.78,6.06,13.22-2.49,8.49-8.49-50.37-63.77-94.64-132.47-131.13-205.11-36.48-72.61-65.02-149.29-83.42-228.48-10.31-44.37-17.35-89.44-20.84-134.86-.59-7.65-12.59-7.71-12,0h0Z"/>
        </g>
        <g class="cls-10">
          <path class="cls-4" d="M625.59,383.38c24.36,75.28,46.79,151.18,67.22,227.62,20.42,76.44,38.85,153.41,55.27,230.81,9.25,43.6,17.84,87.33,25.81,131.18,1.38,7.59,12.95,4.37,11.57-3.19-14.15-77.85-30.3-155.33-48.47-232.33-18.17-77.01-38.35-153.54-60.51-229.49-12.48-42.78-25.6-85.38-39.32-127.78-2.37-7.32-13.96-4.19-11.57,3.19h0Z"/>
        </g>
        <g class="cls-10">
          <path class="cls-4" d="M771.84,385.94c15.79,85.02,39.45,168.53,70.54,249.22,31.07,80.63,69.38,158.46,114.53,232.14,25.3,41.29,52.75,81.24,82.17,119.69,4.63,6.05,15.06,.08,10.36-6.06-52.2-68.22-98.1-141.19-137.02-217.77s-70.84-156.79-95.18-239.23c-13.71-46.44-24.99-93.58-33.84-141.19-1.41-7.58-12.98-4.37-11.57,3.19h0Z"/>
        </g>
        <g class="cls-10">
          <path class="cls-4" d="M845.47,383.33c32.26,66.45,47.69,139.37,58.78,211.95,11.88,77.72,21.21,155.87,31.58,233.8,6.01,45.2,12.03,90.39,18.04,135.59,.43,3.24,2.45,5.96,6,6,2.91,.03,6.43-2.79,6-6-10.84-81.48-21.68-162.97-32.52-244.45-10.01-75.26-18.11-151.31-36.14-225.19-9.89-40.51-23.14-80.2-41.37-117.76-3.37-6.95-13.72-.87-10.36,6.06h0Z"/>
        </g>
        <g class="cls-10">
          <path class="cls-4" d="M924.01,379.01c28.6,79.17,62.08,156.57,100.26,231.59,38.21,75.08,81.1,147.78,128.36,217.53,26.49,39.09,54.38,77.22,83.51,114.38,4.76,6.07,13.2-2.47,8.49-8.49-51.47-65.67-98.81-134.59-141.73-206.14-42.88-71.49-81.35-145.62-115.1-221.84-18.94-42.78-36.33-86.23-52.22-130.22-2.6-7.21-14.2-4.1-11.57,3.19h0Z"/>
        </g>
        <g class="cls-10">
          <path class="cls-4" d="M984.46,380.49c22.92,74.16,45.19,148.53,66.79,223.08,21.69,74.87,42.7,149.94,63.04,225.2,11.41,42.23,22.61,84.52,33.6,126.86,1.94,7.47,13.52,4.3,11.57-3.19-19.5-75.13-39.66-150.1-60.5-224.87-20.93-75.09-42.53-149.99-64.8-224.7-12.5-41.92-25.21-83.78-38.13-125.57-2.27-7.36-13.86-4.22-11.57,3.19h0Z"/>
        </g>
        <g class="cls-10">
          <path class="cls-4" d="M1109.43,383.83c36.34,70.02,72.68,140.04,109.03,210.06,10.38,20.01,20.77,40.01,31.15,60.02,3.56,6.86,13.92,.8,10.36-6.06-36.34-70.02-72.68-140.04-109.03-210.06-10.38-20.01-20.77-40.01-31.15-60.02-3.56-6.86-13.92-.8-10.36,6.06h0Z"/>
        </g>
        <g class="cls-10">
          <path class="cls-4" d="M1170.54,362c17.01,53.29,34.02,106.59,51.02,159.88,2.34,7.33,13.93,4.2,11.57-3.19-17.01-53.29-34.02-106.59-51.02-159.88-2.34-7.33-13.93-4.2-11.57,3.19h0Z"/>
        </g>
        <g class="cls-10">
          <path class="cls-4" d="M1182.78,654.26c9.32,15.7,18.64,31.39,27.96,47.09,3.94,6.63,14.32,.61,10.36-6.06-9.32-15.7-18.64-31.39-27.96-47.09-3.94-6.63-14.32-.61-10.36,6.06h0Z"/>
        </g>
      </g>
    </g>
    <path class="cls-5" d="M767.18,208.46c0-20.71-16.79-37.5-37.5-37.5-11.6,0-21.97,5.27-28.84,13.54-1.99-1-4.22-1.58-6.6-1.58-8.12,0-14.7,6.58-14.7,14.7,0,7.49,5.6,13.65,12.83,14.57,.56,5.68,2.4,10.98,5.21,15.63-.66,6.87-2.34,13.68-4.63,20.2-3.55,10.11-8.52,19.65-13.52,29.13-1.16,2.2-2.34,4.44-2.87,6.88-.53,2.44-.33,5.14,1.09,7.19,1.67,2.41,4.64,3.47,7.42,4.4,8.89,2.96,17.77,5.91,26.66,8.87,2.21,.74,4.77,1.44,6.76,.21,1.43-.89,2.15-2.55,2.78-4.11,6.47-16.03,12.94-32.07,19.41-48.1,1.24-3.07,2.48-6.22,3.45-9.42,13.54-5.66,23.05-19.02,23.05-34.61Z"/>
    <path class="cls-5" d="M1338.31,698.79c.49-22.28,18.95-39.96,41.23-39.47,12.48,.27,23.51,6.19,30.72,15.25,2.16-1.03,4.58-1.6,7.14-1.54,8.74,.19,15.66,7.43,15.47,16.17-.18,8.05-6.35,14.56-14.15,15.38-.74,6.1-2.84,11.76-5.97,16.7,.55,7.41,2.2,14.77,4.51,21.85,3.58,10.96,8.7,21.35,13.86,31.66,1.2,2.4,2.42,4.84,2.93,7.47,.51,2.63,.24,5.54-1.34,7.71-1.85,2.55-5.08,3.63-8.09,4.56-9.63,2.97-19.27,5.94-28.9,8.92-2.4,.74-5.17,1.44-7.28,.07-1.52-.99-2.25-2.8-2.89-4.49-6.59-17.41-13.17-34.81-19.76-52.22-1.26-3.33-2.52-6.75-3.49-10.22-14.43-6.41-24.36-21.01-23.99-37.79Z"/>
    <g>
      <path class="cls-8" d="M608.06,393.45c-.79-1.31-54.25-113.49-54.25-113.49l61.62,.95c4.17,.06,8.33,.34,12.48,.84l57.74,6.86,28.57,5.5,67.58,17.45,62.22,33.03,46.19,52.34-283.45-3.48"/>
      <path class="cls-8" d="M705.96,295.5c28.03,5.32,55.99,11.92,82.54,22.53,25.95,10.37,50.1,24.92,70.25,44.38,11.12,10.74,20.96,22.75,29.29,35.77,1.73,2.7,6.06,.2,4.32-2.52-15.16-23.7-35.19-44.15-58.6-59.76-24-16-51.17-26.66-78.85-34.37-15.69-4.37-31.62-7.82-47.61-10.86-1.33-.25-2.7,.37-3.08,1.75-.34,1.22,.41,2.82,1.75,3.08h0Z"/>
    </g>
    <path class="cls-8" d="M723.75,294.09c-19.17-4.58-38.8-6.89-58.47-7.74-5.67-.25-11.34-.37-17.02-.43-3.22-.03-3.22,4.97,0,5,19.34,.18,38.72,1.3,57.8,4.61,5.49,.95,10.95,2.08,16.37,3.37,3.13,.75,4.46-4.07,1.33-4.82h0Z"/>
    <path class="cls-7" d="M274,608.98c-19.38-18.46-47.92-25.65-73.91-19.89-29.02,6.43-48.48,29.68-64.78,52.89-20.09,28.61-39.71,57.55-59.55,86.33-9.73,14.12-19.67,28.12-29.13,42.43-8.55,12.91-16.48,26.48-21.15,41.33-4.35,13.86-5.47,28.79-1.69,42.91,3.55,13.3,11.54,25.77,23.59,32.83,11.26,6.6,25.87,8.74,38.22,3.97,11.55-4.47,19.81-14.41,21.97-26.66,2.11-11.93-1.34-24.42-11.3-31.86-11.29-8.43-27.32-7.79-39.86-2.73-24.61,9.93-40.31,34.57-43.28,60.39-3.14,27.29,9.69,54.38,29.16,72.97,22.07,21.06,52.26,30.9,82.33,32.13,7.44,.3,14.89,.07,22.31-.62,2.02-.19,3.75-1.59,3.75-3.75,0-1.88-1.72-3.94-3.75-3.75-28.5,2.63-58.37-1.6-83.07-16.77-21.42-13.16-38.14-34.92-42.65-59.92-4.18-23.19,4.23-48.34,22.01-63.93,9-7.89,20.78-13.23,32.89-12.94,11.07,.27,21.07,6.31,23.83,17.32,2.36,9.43-.57,20.47-7.7,27.38-8.23,7.98-20.94,9.31-31.58,6.33-25.72-7.2-34.97-36.65-30.6-60.64,2.59-14.2,8.89-27.28,16.28-39.56,7.99-13.26,17.12-25.85,25.9-38.59,19.09-27.69,38.18-55.38,57.27-83.07,15.54-22.53,30.97-48.39,56.12-61.34,21.3-10.96,48.16-9.76,68.96,1.78,5.13,2.85,9.84,6.28,14.09,10.33,3.49,3.33,8.81-1.97,5.3-5.3h0Z"/>
    <path class="cls-7" d="M384.37,885.01c9.4,3.93,20.04,2.28,28.96-2.12,9.47-4.67,16.63-12.74,22.04-21.65,5.88-9.69,9.93-20.42,14.3-30.83,4.9-11.67,9.8-23.33,14.7-35,9.8-23.33,19.6-46.67,29.4-70,4.9-11.67,9.8-23.33,14.7-35,2.47-5.88,4.88-11.8,7.42-17.66,.82-1.88,1.81-3.74,3.25-5.23,.63-.65,1.26-1.07,1.85-1.43,.24-.15,.08-.06,.49-.1-.04,0-.52-.12-.01-.01,.46,.1-.31-.29,.48,.2-.29-.18,.42,.43,.17,.11,.28,.35,.36,.65,.42,.84,.33,.97,.36,1.65,.37,2.81,.03,2.83-.23,5.68-.36,8.51-.31,6.36-.61,12.72-.92,19.08-.61,12.61-1.22,25.21-1.83,37.82-.15,3.12-.3,6.25-.45,9.37-.18,3.77,5.18,5.02,6.99,1.89,4.59-7.96,10.97-18.99,21.73-17.76,4.08,.47,6.77,3.34,7.6,7.19,.85,3.94-.59,8.43-3.07,11.9-3.41,4.76-8.57,8.06-13.38,11.24-3.47,2.29-1.36,7.99,2.89,6.85,13.6-3.64,27.19-7.28,40.79-10.92-1.22-2.09-2.43-4.18-3.65-6.27-18.29,22.43-29.65,49.19-38.85,76.4-8.92,26.38-15.96,53.41-26.67,79.17-10.03,24.14-23.53,47.52-43.47,64.82-21,18.22-48.81,27.98-76.58,27.2-26.85-.75-53.2-11.8-72.8-30.13-2.43-2.27-4.76-4.66-6.98-7.13-3.23-3.6-8.52,1.72-5.3,5.3,18.72,20.83,44.95,34.66,72.69,38.42,28.83,3.9,59-3.22,83.02-19.66,22.76-15.57,38.92-38.58,50.63-63.22,12.08-25.41,19.75-52.47,28.25-79.19,8.69-27.33,18.51-54.79,35.13-78.44,1.98-2.82,4.06-5.57,6.24-8.24,1.07-1.31,1.49-3,.59-4.54-.84-1.44-2.63-2.15-4.23-1.72-13.6,3.64-27.19,7.28-40.79,10.92,.96,2.28,1.93,4.57,2.89,6.85,5.51-3.64,11.07-7.41,15.14-12.69,3.73-4.84,5.83-10.89,5.05-17.03-.82-6.45-4.79-11.85-11.1-13.86-5.93-1.89-12.93-.35-17.99,3.12-6.38,4.38-10.44,11.04-14.23,17.62l6.99,1.89c.62-12.83,1.24-25.66,1.86-38.49,.31-6.47,.63-12.94,.94-19.41,.16-3.24,.31-6.47,.47-9.71,.13-2.68,.42-5.41,.27-8.09-.3-5.18-3.29-10.88-9.29-10.51-5.25,.32-9.18,5.16-11.28,9.57-2.72,5.72-4.95,11.71-7.4,17.55-2.52,5.99-5.03,11.98-7.55,17.96-9.97,23.75-19.95,47.49-29.92,71.24-4.99,11.87-9.97,23.75-14.96,35.62-4.71,11.22-9.23,22.54-14.22,33.64-4.32,9.62-9.43,19.29-17.39,26.42-6.79,6.08-16.3,10.19-25.53,9.08-2.18-.26-4.42-.95-6.48-1.81-1.87-.78-4.12,.84-4.61,2.62-.59,2.16,.74,3.83,2.62,4.61h0Z"/>
    <path class="cls-7" d="M555.94,786.99c15.36,28.53,30.73,57.06,46.09,85.59,4.33,8.05,8.67,16.09,13,24.14,.96,1.78,3.43,2.34,5.13,1.35,1.8-1.05,2.31-3.34,1.35-5.13-15.36-28.53-30.73-57.06-46.09-85.59-4.33-8.05-8.67-16.09-13-24.14-.96-1.78-3.43-2.34-5.13-1.35-1.8,1.05-2.31,3.34-1.35,5.13h0Z"/>
    <path class="cls-7" d="M671.12,227.3c-3.28-1.39-6.45-3.02-9.48-4.88-1.51-.93-2.99-1.92-4.43-2.96-.35-.25-.69-.51-1.04-.76-.2-.15-.39-.29-.59-.44,.06,.05,.37,.29,.03,.02-.72-.57-1.44-1.15-2.14-1.74-2.72-2.3-5.27-4.79-7.64-7.45-.57-.64-1.13-1.29-1.68-1.95-.27-.33-.55-.66-.82-1-.15-.19-.31-.38-.46-.58-.39-.49,.29,.38-.09-.11-1.08-1.41-2.11-2.87-3.09-4.35-1.96-2.97-3.71-6.08-5.23-9.3-.37-.78-.72-1.56-1.06-2.35,.23,.53-.19-.47-.26-.63-.18-.45-.36-.91-.54-1.37-.63-1.66-1.2-3.35-1.71-5.05-.52-1.76-.98-3.55-1.36-5.35-.17-.78-.32-1.56-.46-2.35-.08-.43-.15-.86-.22-1.29-.04-.25-.08-.51-.12-.76-.03-.21-.08-.56-.02-.14-.48-3.67-.65-7.39-.55-11.09,.11-3.94,.44-6.93,1.09-10.42,.69-3.71,1.66-7.36,2.89-10.93,.27-.79,.56-1.57,.85-2.34,.18-.48,.37-.95,.56-1.43,.07-.18,.15-.36,.22-.53,.27-.65-.35,.78,.15-.34,.75-1.7,1.54-3.37,2.41-5.01,1.72-3.28,3.69-6.43,5.88-9.42,.26-.36,.53-.72,.8-1.07-.05,.07-.26,.34,0,0,.16-.2,.32-.4,.48-.6,.6-.75,1.21-1.48,1.84-2.2,1.22-1.4,2.49-2.75,3.81-4.04,2.85-2.8,5.38-4.9,8.62-6.99,6.49-4.19,13.43-6.81,21-6.18,.15,.01,1.35,.16,.78,.07,.46,.07,.92,.15,1.38,.25,.9,.19,1.79,.41,2.66,.71,.15,.05,1.11,.41,.72,.25-.35-.14,.51,.23,.69,.32,.7,.35,1.38,.73,2.04,1.16,.31,.2,.6,.41,.91,.62,.05,.03,.47,.34,.12,.08-.37-.28,.15,.12,.24,.19,.61,.51,1.19,1.03,1.75,1.59,.52,.53,1,1.08,1.48,1.64,.04,.04,.36,.46,.1,.12-.29-.37,.12,.16,.18,.25,.24,.34,.48,.69,.71,1.04,.4,.61,.76,1.25,1.1,1.89,.17,.32,.32,.65,.48,.98,.03,.06,.24,.53,.06,.12-.21-.47,.12,.32,.16,.41,.25,.67,.47,1.35,.66,2.04,.09,.34,.17,.68,.25,1.03,.03,.15,.06,.29,.09,.44,0,.02,.17,.96,.08,.39-.07-.46,.05,.49,.06,.69,.02,.34,.04,.69,.04,1.03s0,.69-.02,1.03c-.02,.32-.14,1.31,0,.46-.1,.67-.24,1.34-.43,2-.1,.33-.21,.65-.32,.97-.05,.14-.11,.28-.16,.41,.31-.78,.04-.11-.05,.05-.34,.62-.69,1.22-1.08,1.82-.08,.13-.18,.25-.27,.38,.43-.56,.07-.1-.03,0-.3,.32-.59,.65-.9,.96-.27,.27-.56,.52-.85,.76-.32,.28,.08-.05,.12-.08-.17,.13-.35,.26-.53,.38-.67,.46-1.38,.84-2.1,1.21-.14,.08-.29,.14-.44,.21,.64-.3,.14-.05,0,0-.36,.13-.72,.26-1.08,.37-.79,.25-1.59,.44-2.4,.58-.22,.04-.44,.07-.66,.11,.06,0,.61-.05,.17-.03-.39,.02-.78,.07-1.17,.09-.84,.04-1.68,.03-2.53-.02-.39-.02-.79-.06-1.18-.1,.74,.08-.28-.05-.51-.09-.84-.15-1.67-.35-2.48-.58-.76-.22-1.51-.48-2.24-.78,.65,.27-.3-.15-.49-.24-.4-.2-.8-.41-1.19-.63-3.05-1.73-5.5-4.03-7.87-7.03-.4-.51,.26,.35-.13-.17-.12-.16-.23-.32-.35-.47-.27-.37-.53-.75-.79-1.13-.55-.82-1.08-1.66-1.58-2.51-.98-1.66-1.85-3.38-2.66-5.13-.76-1.65-1.24-2.85-1.96-4.8-.67-1.82-1.28-3.67-1.83-5.53-1.11-3.76-1.97-7.59-2.51-11.47-.09-.67,.06,.46-.03-.21-.02-.2-.05-.4-.07-.6-.05-.47-.1-.94-.15-1.41-.1-1-.17-2.01-.22-3.01-.1-1.93-.11-3.86-.02-5.79,.04-.92,.1-1.85,.19-2.77,.04-.46,.09-.92,.15-1.38,0-.08,.1-.73,.02-.18,.04-.26,.08-.52,.12-.78,.3-1.87,.7-3.72,1.21-5.55,1.07-3.8,2.26-6.56,4.43-10.01,.43-.69,.89-1.36,1.36-2.02,.1-.14,.74-1,.37-.51,.29-.37,.58-.73,.88-1.09,1.12-1.33,2.32-2.59,3.6-3.77,.55-.51,1.11-1,1.69-1.48,.31-.26,.62-.51,.94-.76-.5,.39,.45-.33,.62-.45,1.4-1.02,2.86-1.95,4.37-2.81,1.42-.81,2.87-1.55,4.36-2.22,.43-.19,.86-.39,1.29-.57-.56,.23,.24-.09,.41-.16,.88-.35,1.77-.68,2.66-.99,3.29-1.14,6.67-2.02,10.09-2.68,.83-.16,1.67-.31,2.51-.45,.36-.06,.72-.11,1.08-.17,.24-.04,.48-.07,.72-.1,.7-.1-.15,.02,.27-.04,1.75-.22,3.51-.39,5.28-.52,3.5-.25,7.02-.32,10.53-.22,17.43,.47,34.71,4.07,51.14,10.32,14.85,5.65,29.39,13.56,39.89,25.6,4.88,5.59,8.91,12.66,11.04,19.82,.56,1.9,1.02,3.83,1.35,5.78,.08,.47,.16,.94,.22,1.41-.07-.52,.07,.68,.08,.83,.1,1.01,.17,2.03,.2,3.05,.12,3.98-.16,6.96-1.15,10.65-.22,.81-.46,1.61-.73,2.4-.14,.4-.28,.79-.43,1.18-.06,.17-.13,.33-.19,.5-.4,1.07,.16-.34-.1,.27-.69,1.59-1.49,3.14-2.39,4.63-.43,.72-.89,1.42-1.37,2.11-.24,.34-.49,.68-.73,1.02-.36,.49,.31-.38-.07,.09-.15,.19-.3,.37-.45,.56-1.09,1.33-2.28,2.59-3.55,3.76-.61,.56-1.24,1.1-1.89,1.62-.08,.07-.57,.42-.08,.06-.14,.11-.28,.21-.43,.31-.38,.28-.77,.54-1.16,.8-1.42,.94-2.92,1.74-4.46,2.47-.66,.31-.22,.1-.07,.04-.16,.07-.33,.13-.49,.2-.38,.15-.77,.29-1.16,.43-.84,.29-1.68,.54-2.54,.75-.8,.2-1.62,.35-2.43,.49-.59,.1,.59-.06,0,0-.17,.02-.34,.04-.5,.05-.45,.04-.9,.07-1.35,.09-.79,.03-1.57,.03-2.36-.01-.39-.02-.79-.05-1.18-.09-.22-.02-.45-.05-.67-.07-.59-.07,.58,.1,0,0-1.62-.28-3.2-.64-4.76-1.17-.37-.13-.75-.26-1.12-.4-.19-.07-1.13-.48-.51-.2-.82-.37-1.63-.76-2.43-1.2-.64-.35-1.27-.73-1.88-1.13-.33-.21-.65-.44-.98-.66-.14-.1-1.12-.87-.58-.43-1.3-1.06-2.52-2.19-3.62-3.46-.22-.25-.43-.51-.64-.76-.46-.55-.11-.15-.02-.02-.1-.13-.2-.27-.29-.4-.47-.68-.93-1.36-1.34-2.08-.38-.67-.72-1.35-1.05-2.05-.31-.65-.07-.15-.01-.01-.06-.15-.12-.31-.18-.46-.17-.47-.34-.93-.48-1.4-.23-.74-.41-1.49-.56-2.25-.06-.33-.12-.66-.17-.99,.11,.79-.03-.52-.04-.74-.05-.85-.06-1.71-.02-2.57,.02-.48,.06-.97,.11-1.45,0-.03,.08-.62,.02-.22-.06,.43,.11-.6,.1-.57,.31-1.72,.82-3.4,1.46-5.03,.16-.4,0-.01-.03,.06,.1-.22,.2-.44,.3-.66,.15-.33,.32-.66,.48-.99,.45-.87,.94-1.73,1.46-2.55,.46-.73,.96-1.44,1.48-2.14-.31,.42,.24-.3,.33-.42,.36-.44,.72-.86,1.1-1.28,1.22-1.36,2.53-2.62,3.93-3.8,.14-.12,.29-.24,.44-.36,.06-.05,.66-.53,.36-.29-.27,.21,.22-.17,.22-.17,.2-.15,.4-.3,.61-.45,.77-.55,1.55-1.07,2.35-1.57,1.56-.96,3.18-1.79,4.84-2.55-.01,0,.57-.25,.27-.12-.35,.15,.38-.16,.45-.18,.42-.17,.84-.33,1.27-.49,.91-.34,1.83-.64,2.76-.92,1.79-.54,3.61-.97,5.45-1.31,.44-.08,.89-.15,1.34-.22,.19-.03,.38-.06,.57-.08-.17,.02-.62,.07,.15-.02,.96-.11,1.93-.2,2.89-.26,1.87-.12,3.75-.14,5.63-.06,.91,.04,1.82,.1,2.72,.18,.45,.04,.91,.09,1.36,.14,.19,.02,.39,.05,.58,.07,.65,.08-.02,0,.36,.05,3.75,.57,7.44,1.46,11.02,2.72,.86,.3,1.72,.62,2.57,.97,.18,.07,.36,.15,.55,.22-.16-.06-.51-.23,.19,.08,.48,.21,.96,.42,1.43,.65,1.72,.8,3.4,1.69,5.03,2.65,1.63,.96,3.21,2,4.74,3.12,.23,.17,.89,.66,.87,.65-.01,0,.61,.48,.85,.67,.76,.61,1.5,1.24,2.23,1.89,2.81,2.5,5.39,5.24,7.74,8.17,.09,.11,.8,1.02,.49,.62,.28,.36,.55,.72,.81,1.09,.58,.79,1.13,1.58,1.68,2.39,1.05,1.56,2.04,3.17,2.98,4.81s1.81,3.32,2.62,5.03c.89,1.87,1.38,3,2.03,4.68,1.38,3.54,2.51,7.17,3.41,10.85,.45,1.84,.83,3.7,1.16,5.57,.16,.9,.3,1.8,.43,2.71,.02,.12,.1,.79,.01,.1,.02,.18,.04,.35,.07,.53,.06,.47,.11,.94,.16,1.41,.72,6.81,.59,13.69-.29,20.47-.08,.61,.08-.55,0,.05-.03,.17-.05,.35-.08,.52-.06,.41-.12,.82-.19,1.22-.14,.87-.29,1.74-.46,2.61-.32,1.68-.69,3.35-1.1,5.01-.82,3.32-1.83,6.6-2.99,9.82-.28,.78-.57,1.55-.88,2.32-.15,.39-.3,.77-.46,1.15-.09,.22-.55,1.31-.3,.74-.68,1.58-1.39,3.14-2.14,4.68-1.51,3.08-3.18,6.09-4.99,9-.91,1.46-1.85,2.89-2.83,4.3-.47,.68-.95,1.35-1.44,2.02-.24,.33-.49,.67-.74,1-.14,.19-.29,.38-.43,.57-.4,.52,.53-.67-.17,.22-2.12,2.69-4.37,5.29-6.75,7.76-2.38,2.46-4.89,4.8-7.51,6.99-.63,.53-1.27,1.05-1.92,1.56-.14,.11-.82,.64-.36,.28-.37,.29-.75,.57-1.13,.85-1.42,1.05-2.87,2.07-4.34,3.04-2.71,1.78-5.51,3.41-8.4,4.88-1.47,.75-2.97,1.46-4.48,2.12-.16,.07-1.15,.49-.57,.25-.38,.16-.77,.32-1.15,.47-.83,.33-1.66,.64-2.49,.95-1.9,.69-3.19,2.55-2.62,4.61,.5,1.83,2.7,3.32,4.61,2.62,14.06-5.13,26.69-13.67,36.88-24.61,10.21-10.96,18-24.09,22.73-38.3,4.73-14.21,6.13-29.39,3.86-44.2-2.48-16.16-9.51-31.88-20.7-43.9-11.36-12.21-27.15-19.78-43.85-20.57-16.44-.77-33.55,5.75-42.9,19.77-4.47,6.69-6.5,15.02-4.67,22.94,1.69,7.32,6.72,13.48,12.89,17.56s13.65,6.08,20.85,5.23c7.89-.93,15.11-4.65,20.76-10.21,5.5-5.41,9.53-12.5,11.31-20.01,2-8.44,1.35-17.42-1.27-25.65-5.42-17.02-18.36-30.03-33.42-39.04-15.75-9.42-33.76-15.54-51.79-18.73-16.44-2.9-33.71-3.91-50.06,.12-14.76,3.64-28.78,12.13-35.5,26.25-7.34,15.43-5.68,33.66-.09,49.37,2.82,7.93,6.62,15.86,12.74,21.8,5.67,5.5,13.31,8.89,21.3,8.31,7.87-.57,14.99-4.77,17.98-12.28,2.54-6.37,.88-13.91-2.71-19.54-4-6.28-10.32-10.73-17.74-11.83-8.9-1.32-17.75,1.21-25.42,5.7-14.29,8.35-24.72,22.69-30.42,38.03-5.57,15-6.46,31.81-2.05,47.23,4.24,14.8,13.07,28.37,24.84,38.28,5.75,4.84,12.1,8.89,19.02,11.82,1.86,.79,4.02,.56,5.13-1.35,.92-1.57,.53-4.34-1.35-5.13h0Z"/>
    <path class="cls-7" d="M1310.6,643.87c-.02-3.12,.07-6.23,.29-9.34s.57-6.14,1-8.89c.98-6.22,2.45-12.37,4.37-18.36,3.74-11.63,9.2-22.57,16.43-32.81,3.42-4.84,7.24-9.44,11.61-13.91,4.26-4.37,9.14-8.63,13.75-12,10.28-7.51,21.48-13.17,33.3-16.99,23.8-7.7,49.45-8.1,73.19-.02,10.83,3.69,22.08,9.74,30.8,17.06,2.31,1.94,4.53,4,6.63,6.17,1.05,1.08,2.07,2.2,3.06,3.34,.47,.55,.94,1.1,1.4,1.66,.25,.3,.5,.61,.74,.92,.16,.21,.33,.41,.49,.62-.14-.19-.14-.18,.01,.02,1.84,2.41,3.54,4.94,5.08,7.55,.77,1.32,1.51,2.67,2.19,4.03,.3,.6,.59,1.2,.87,1.8,.17,.36,.34,.73,.5,1.09,.06,.14,.58,1.35,.41,.94,4.78,11.46,6.43,23.08,4.92,35.37-.15,1.26,.06-.36-.05,.37-.05,.33-.1,.65-.15,.98-.13,.78-.27,1.56-.42,2.33-.31,1.55-.67,3.08-1.1,4.6-.39,1.39-.82,2.77-1.31,4.13-.22,.62-.45,1.23-.69,1.84-.3,.76-.4,1-.86,2-2.59,5.65-5.76,10.61-10.18,14.7-1.93,1.79-4.6,3.65-6.85,4.51-2.99,1.14-4.67,1.29-7.84,1.14-1.17-.05,.67,.15-.48-.05-.24-.04-.49-.09-.73-.14-.72-.15-1.43-.35-2.13-.59-.04-.01-1.13-.48-.46-.17-.28-.13-.55-.26-.82-.41s-.53-.29-.79-.45c-.11-.07-1.22-.86-.73-.47-2.23-1.76-3.22-3.56-3.85-6.18-.09-.37-.16-.74-.23-1.11-.21-1.18,.02,.38-.04-.32s-.09-1.4-.07-2.1c0-.38,.04-.76,.07-1.15,.06-1.19-.16,.64,.06-.52,.14-.75,.31-1.5,.53-2.24,.24-.78,.45-1.32,.59-1.61,.29-.59,.59-1.17,.93-1.74,.9-1.51,1.35-2.09,2.5-3.31,4.03-4.26,9.29-6.81,15.14-8.18,5.62-1.31,12.15-1.21,17.78,.02,6.34,1.38,11.65,3.7,17.04,7.33,2.5,1.69,4.51,3.31,6.86,5.53,2.28,2.15,4.4,4.46,6.37,6.9,1.62,2.01,3.52,4.74,5.09,7.28,1.66,2.68,3.17,5.46,4.53,8.3,5.61,11.69,8.76,25.03,9.08,38s-2.08,26.18-7.61,37.86c-5.09,10.74-12.05,19.46-21.33,26.96-.93,.75-1.62,1.28-2.89,2.19-1.24,.89-2.51,1.74-3.8,2.56-2.47,1.56-5.02,2.98-7.65,4.25-.57,.28-1.14,.54-1.72,.8-.35,.16-.69,.31-1.04,.46-1.14,.5,.65-.25-.5,.21-1.41,.56-2.83,1.1-4.27,1.59-2.76,.93-5.57,1.69-8.42,2.26-1.37,.28-2.74,.52-4.12,.7,.75-.1-.49,.05-.51,.06-.38,.04-.76,.08-1.14,.12-.75,.07-1.5,.13-2.25,.18-2.84,.17-5.69,.15-8.53-.05-.74-.05-1.48-.12-2.22-.2-.25-.03-.49-.05-.74-.08-.05,0-1.26-.17-.48-.06-1.47-.21-2.93-.47-4.39-.77-2.79-.59-5.54-1.35-8.23-2.28-4.98-1.72-9.88-4.13-14.7-7.33-2.6-1.73-4.02-2.81-6.28-4.8-2.12-1.86-4.12-3.87-5.97-6-.48-.56-.95-1.12-1.41-1.69,0-.01-.76-.96-.32-.4-.15-.19-.3-.39-.44-.59-.81-1.08-1.58-2.19-2.3-3.33-1.53-2.38-2.88-4.88-4.04-7.46-.83-1.85-3.51-2.29-5.13-1.35-1.9,1.11-2.18,3.28-1.35,5.13,10.28,22.8,34.52,37.41,59.11,38.79,25.59,1.43,49.99-12.29,65.19-32.33,17.05-22.47,20.74-52.91,13.44-79.72-7.09-26.04-25.75-52.6-54.21-56.83-13.31-1.98-28.98,1.02-37.98,11.86-4.57,5.51-6.75,12.36-5.38,19.48,1.33,6.93,6.66,12.35,13.45,14.08,14.34,3.66,26.31-7.36,32.92-18.88s9.23-24.98,8.3-38.09c-.94-13.29-5.25-26.33-12.7-37.4-7.28-10.82-17.04-19.78-28.12-26.6-23.02-14.17-50.9-18.87-77.51-15.25-26.71,3.64-52.23,15.87-71.3,35-18.69,18.75-31.31,43.68-35.29,69.86-.99,6.5-1.52,13.05-1.47,19.62,.02,2.03,1.71,3.75,3.75,3.75s3.77-1.72,3.75-3.75h0Z"/>
    <path class="cls-7" d="M1340.96,696.18c-6.95,7.35-13.89,14.71-20.84,22.06-2.24,2.37-.64,6.33,2.65,6.4,6.05,.13,12.11,.25,18.16,.38,1.96,.04,3.84-1.75,3.75-3.75s-1.65-3.71-3.75-3.75c-6.05-.13-12.11-.25-18.16-.38,.88,2.13,1.77,4.27,2.65,6.4,6.95-7.35,13.89-14.71,20.84-22.06,1.35-1.43,1.52-3.91,0-5.3s-3.86-1.52-5.3,0h0Z"/>
    <path class="cls-7" d="M1367.07,693.86c1.96,0,3.84-1.72,3.75-3.75s-1.65-3.75-3.75-3.75c-1.96,0-3.84,1.72-3.75,3.75s1.65,3.75,3.75,3.75h0Z"/>
    <path class="cls-7" d="M1384.69,713.26c-.11,.54-.24,1.07-.4,1.6-.08,.26-.17,.52-.26,.78-.04,.11-.36,.83-.12,.31s-.16,.32-.21,.42c-.1,.2-.21,.41-.32,.6-.26,.48-.55,.94-.86,1.4-.02,.03-.47,.67-.48,.67l.25-.33c-.11,.14-.23,.28-.35,.42-.33,.38-.67,.75-1.03,1.1s-.73,.7-1.12,1.02c-.11,.09-.21,.18-.32,.26-.21,.17-.14,.12,.22-.16,0,.03-.64,.46-.67,.48-.83,.57-1.71,1.07-2.63,1.5-.17,.08-.33,.15-.5,.23l.39-.17s-.73,.27-.77,.29c-.52,.18-1.04,.34-1.58,.47-.49,.12-.98,.2-1.47,.3s.77-.06,.05-.01c-.27,.02-.54,.05-.82,.06-.55,.03-1.09,.02-1.64,0-.23-.01-.63,.03-.82-.07l.45,.06c-.18-.03-.36-.06-.54-.09-1.93-.34-4.13,.52-4.61,2.62-.42,1.83,.55,4.25,2.62,4.61,5.44,.96,11.08-.18,15.66-3.31s8.03-7.66,9.12-13.06c.39-1.92-.55-4.14-2.62-4.61-1.87-.43-4.2,.56-4.61,2.62h0Z"/>
    <path class="cls-7" d="M240.35,667.6c-4.47,.81-8.26,4.42-9.55,8.73-1.33,4.43,.14,9.62,3.57,12.71,1.45,1.32,3.89,1.54,5.3,0,1.32-1.43,1.55-3.9,0-5.3-.28-.25-.53-.52-.79-.79-.52-.54,.33,.51,.1,.15-.1-.16-.21-.31-.31-.46-.19-.31-.32-.68-.53-.98,.47,.69,.18,.45,.04,.07-.05-.14-.09-.28-.14-.43-.1-.36-.14-.74-.25-1.09,.27,.9,.06,.49,.03,.11,0-.15-.02-.3-.02-.45,0-.37,.05-.74,.06-1.11-.02,1.02-.06,.45,.02,.12,.04-.18,.09-.36,.14-.54s.11-.35,.17-.52c.22-.62-.3,.59-.08,.19,.18-.32,.34-.64,.54-.95,.1-.15,.23-.29,.31-.45-.14,.25-.5,.61-.1,.17,.24-.27,.5-.53,.77-.78s.53-.22-.17,.1c.16-.07,.3-.22,.45-.32,.3-.2,.62-.38,.94-.55,.58-.29,.04,.06-.2,.07,.16,0,.36-.14,.51-.18,.38-.12,.77-.21,1.17-.29,1.93-.35,3.2-2.81,2.62-4.61-.67-2.08-2.54-2.99-4.61-2.62h0Z"/>
    <path class="cls-7" d="M272.48,670.73c1.96,0,3.84-1.72,3.75-3.75-.09-2.03-1.65-3.75-3.75-3.75-1.96,0-3.84,1.72-3.75,3.75,.09,2.03,1.65,3.75,3.75,3.75h0Z"/>
    <path class="cls-7" d="M278.52,694.74c9.91,2.35,20.7,.49,29.1-5.34,1.66-1.15,2.42-3.29,1.35-5.13-.96-1.64-3.46-2.51-5.13-1.35-3.68,2.56-7.05,3.99-11.48,4.86-.54,.1-1.08,.2-1.62,.28,.48-.06-.89,.08-1.04,.1-1.09,.09-2.18,.12-3.28,.1s-2.19-.09-3.27-.23c.48,.06-.88-.15-1.03-.18-.54-.1-1.07-.22-1.6-.35-1.91-.45-4.15,.6-4.61,2.62s.58,4.13,2.62,4.61h0Z"/>
    <path class="cls-7" d="M294.59,651.06c7.05,.19,14.11,.37,21.16,.56-.88-2.13-1.77-4.27-2.65-6.4-4.97,5.43-9.94,10.86-14.91,16.29-1.32,1.45-1.54,3.89,0,5.3,1.44,1.32,3.89,1.55,5.3,0,4.97-5.43,9.94-10.86,14.91-16.29,2.2-2.4,.67-6.31-2.65-6.4-7.05-.19-14.11-.37-21.16-.56-1.96-.05-3.84,1.76-3.75,3.75,.09,2.08,1.65,3.69,3.75,3.75h0Z"/>
    <path class="cls-7" d="M504.64,286.48c-21.19-2.57-43.1-5.08-63.96,.96-9.21,2.67-17.91,6.94-25.33,13.04-7.13,5.87-12.52,13.55-15.69,22.22-3.04,8.32-3.75,17.72-1.32,26.3,2.64,9.31,8.89,16.99,15.83,23.5,7.74,7.26,16.11,13.9,24.21,20.75,8.65,7.32,17.3,14.64,25.94,21.95,17.42,14.74,34.84,29.49,52.27,44.23,2.16,1.83,4.32,3.66,6.49,5.49,1.55,1.31,3.79,1.52,5.3,0,1.34-1.34,1.55-3.99,0-5.3-16.98-14.37-33.95-28.73-50.93-43.1-16.91-14.31-33.84-28.59-50.72-42.92-3.45-2.93-6.88-5.9-10.05-9.13s-5.73-6.25-8.02-10.24c-2.07-3.61-3.29-7.08-3.99-11.42-.1-.63,.06,.52-.02-.11-.03-.25-.06-.49-.08-.74-.05-.49-.09-.99-.12-1.48-.06-1.05-.08-2.11-.06-3.17,.02-1,.08-1.99,.18-2.98,.01-.13,.19-1.55,.09-.86,.09-.62,.19-1.24,.31-1.85,1.55-8.11,5.3-15.39,10.74-21.2,3.14-3.36,6.14-5.78,9.86-8.14,1.86-1.18,3.79-2.26,5.77-3.25,.96-.48,1.93-.93,2.92-1.36,.64-.28,1.61-.68,2.66-1.07,4.24-1.6,8.62-2.81,13.07-3.68,4.78-.94,8.97-1.38,14.12-1.61,10.86-.48,21.72,.48,32.5,1.72,2.68,.31,5.36,.63,8.04,.96,1.95,.24,3.83-1.89,3.75-3.75-.1-2.23-1.66-3.5-3.75-3.75h0Z"/>
    <path class="cls-7" d="M568.08,512.22c6.57,5.51,12.8,11.44,18.62,17.73,5.87,6.34,11.06,12.72,15.9,19.49,4.99,6.98,9.54,14.27,13.63,21.81,4.07,7.5,7.67,15.24,10.61,22.79,3.5,8.99,6.36,18.23,8.55,27.63,.85,3.64,6.31,3.51,7.23,0,4.15-15.72,8.3-31.45,12.45-47.17-2.09,.55-4.18,1.1-6.27,1.65,11.29,13.5,22.58,27,33.87,40.5,3.2,3.82,6.39,7.64,9.59,11.46,2.06,2.46,6.6,.48,6.4-2.65-1.26-20.41-2.52-40.82-3.79-61.23-2.33,.63-4.66,1.26-6.99,1.89,6.47,9.69,12.94,19.38,19.42,29.07,3.09,4.63,6.03,9.42,9.34,13.88,2.82,3.8,6.35,7.71,11.14,8.9,4.31,1.07,9.06-.31,11.89-3.8,2.68-3.3,3.69-7.46,3.96-11.63,.29-4.53-.6-9.04-1.47-13.46-1.04-5.23-2.35-10.4-3.93-15.5-3.56-11.49-8.43-22.6-14.48-32.99-1.02-1.75-3.39-2.37-5.13-1.35-1.76,1.03-2.37,3.37-1.35,5.13,4.97,8.54,9,17.25,12.19,26.49,1.62,4.68,3.01,9.45,4.16,14.26,.56,2.34,1.07,4.69,1.52,7.05,.23,1.18,.44,2.36,.63,3.55,.08,.5,.16,.99,.24,1.49-.13-.9,.04,.45,.06,.7,.15,1.75,.17,3.51,.01,5.26-.02,.26-.23,1.43-.06,.58-.08,.41-.14,.82-.23,1.23-.18,.84-.51,1.63-.71,2.46-.13,.51,.29-.55,.05-.09-.09,.17-.16,.35-.25,.52-.15,.29-.31,.58-.48,.86s-.76,.95-.21,.35c-.31,.33-.61,.65-.94,.96-.19,.19-.5,.25,.13-.09-.15,.08-.3,.2-.45,.29-.29,.17-1.18,.45-.34,.22-.32,.09-.64,.2-.96,.29-.1,.03-.71,.14-.29,.08,.45-.07-.46,.02-.55,.02-.23,0-.46-.01-.68-.03,.69,.04,.17,.03,0-.01-.44-.11-.87-.22-1.3-.38,.63,.22-.44-.23-.66-.35-.2-.12-.4-.24-.6-.36,.02,.01-.79-.54-.5-.33,.33,.24-.27-.22-.33-.27-.19-.16-.37-.32-.55-.49-.37-.34-.72-.69-1.07-1.05s-.69-.74-1.02-1.13c-.17-.19-.33-.39-.49-.58-.11-.13-.53-.68-.24-.29-3.1-4.06-5.77-8.49-8.61-12.74-6.79-10.17-13.59-20.35-20.38-30.52-.93-1.39-2.56-2.18-4.23-1.72-1.52,.42-2.85,1.99-2.75,3.62,1.26,20.41,2.52,40.82,3.79,61.23,2.13-.88,4.27-1.77,6.4-2.65-11.29-13.5-22.58-27-33.87-40.5l-9.59-11.46c-1.84-2.2-5.59-.9-6.27,1.65-4.15,15.72-8.3,31.45-12.45,47.17h7.23c-3.99-17.08-10.21-33.65-18.32-49.2-8.11-15.55-18.2-30.08-29.88-43.16-6.52-7.3-13.56-14.12-21.05-20.41-1.55-1.3-3.78-1.52-5.3,0-1.34,1.34-1.56,4,0,5.3h0Z"/>
    <path class="cls-7" d="M762.98,542.46c14.76,2.17,29.53,4.33,44.29,6.5,7.38,1.08,14.76,2.17,22.15,3.25,1.54,.23,3.09,.41,4.61,.75,.62,.14,1.23,.32,1.84,.51,1,.31-.41-.31,.48,.21,.14,.08,1.21,.82,.77,.44,.19,.17,.36,.34,.53,.52,.69,.71-.18-.44,.27,.4,.51,.96-.12-.65,.2,.39,.07,.23,.14,.45,.19,.68,.02,.1,.15,1.21,.09,.42,.03,.37,.04,.73,.04,1.1,0,.31-.02,.62-.04,.94-.01,.19-.03,.38-.05,.57,.06-.36,.05-.32-.02,.14-.58,3.34-1.7,6.59-2.65,9.84-1.02,3.51-2.05,7.02-3.07,10.54-1.05,3.59-2.09,7.18-3.14,10.78-.49,1.68-.97,3.35-1.46,5.03-.2,.67-.43,1.32-.64,1.98s-.08,.24-.01,.08c-.18,.42-.39,.83-.63,1.23-.06,.1-.71,.92-.19,.33-.15,.17-.3,.31-.45,.47l-.24,.22c.33-.26,.31-.27-.05-.03l-.3,.15c.31-.16,.23-.17-.23-.01,.59,.07-.57-.1-.17-.03,.44,.08-.89-.21-.75-.17-.81-.23-1.31-.48-2.15-.94-3.23-1.76-6.38-3.7-9.56-5.56-6.45-3.76-12.91-7.52-19.36-11.29-14.48-8.44-28.97-16.89-43.45-25.33-1.75-1.02-4.11-.4-5.13,1.35s-.41,4.11,1.35,5.13c13.62,7.94,27.25,15.88,40.87,23.83,6.88,4.01,13.77,8.03,20.65,12.04,3.42,2,6.83,4.03,10.27,5.99,3.51,1.99,7.59,3.41,11.45,1.48,3.08-1.54,4.65-4.8,5.65-7.92,1.17-3.65,2.16-7.37,3.23-11.05,2.17-7.46,4.4-14.91,6.52-22.39,.94-3.31,1.58-6.76,.98-10.18s-2.98-6.47-6.22-7.93c-3.16-1.42-6.63-1.69-10.02-2.19-3.94-.58-7.87-1.16-11.81-1.73-17.55-2.58-35.11-5.15-52.66-7.73-1.93-.28-4.13,.48-4.61,2.62-.41,1.78,.54,4.31,2.62,4.61h0Z"/>
    <path class="cls-7" d="M709.87,519.59c0-.2,0-.39,0-.59,0-.34,.21-.45-.03,.15,.12-.3,.52-1.16,.06-.41,.16-.26,.35-.56,.48-.83,.21-.43-.46,.4-.08,.11,.18-.14,.32-.35,.49-.5,.14-.13,.28-.25,.43-.37-.13,.1-.62,.39-.06,.08,.3-.16,.59-.35,.89-.52,.1-.06,.69-.32,.23-.13s.15-.05,.26-.09c.44-.14,.88-.28,1.34-.38,.2-.05,.41-.08,.61-.12-.14,.03-.79,.06-.07,.01,.36-.03,.72-.05,1.09-.05,.42,0,.82,.05,1.24,.06,.43,.01-.19-.02-.24-.03,.29,.08,.6,.12,.89,.2,.42,.11,.83,.25,1.24,.4,.65,.24,.31,.1,.93,.4,1.02,.49,2,1.06,2.96,1.66,3.63,2.27,6.99,4.98,11.06,6.44,3.46,1.25,7.68,1.49,11.17,.25,4.26-1.52,7.22-5.05,7.57-9.63,.35-4.73-2.66-9.19-5.95-12.29-6.39-6.02-14.92-9.94-23-13.12-8.03-3.16-16.35-5.49-24.59-8.02-4.17-1.28-8.33-2.6-12.42-4.1-4.15-1.52-7.37-2.9-11.38-4.91-15.44-7.74-28.93-17.63-41.27-29.45-12.53-12.01-22.96-25.03-31.88-39.8-1.1-1.83-2.17-3.67-3.21-5.53s-3.41-2.35-5.13-1.35-2.34,3.36-1.35,5.13c8.45,15.07,18.9,29.08,30.91,41.51,12.01,12.44,25.72,23.41,40.75,32,7.55,4.31,15.43,7.89,23.65,10.73,8.18,2.82,16.55,5.07,24.78,7.76,1.99,.65,3.98,1.33,5.95,2.05,1.01,.37,2.02,.75,3.02,1.14,.44,.17,.87,.35,1.31,.52,.25,.1,.5,.2,.75,.3,.13,.05,.83,.35,.4,.17,3.87,1.66,7.64,3.55,11.22,5.77,.85,.53,1.7,1.08,2.53,1.65,.44,.3,.88,.61,1.32,.93,.22,.16,.44,.32,.65,.48l.32,.24c-.19-.15-.19-.14,.01,.02,.78,.64,1.53,1.31,2.22,2.04,.83,.87,1.08,1.15,1.66,2.07,.28,.44,.52,.89,.76,1.35,.35,.68,.13,.3,.07,.14,.09,.23,.16,.47,.23,.7s.12,.47,.17,.71c-.02-.07-.05-.55,0-.1,.02,.24,.03,.48,.03,.72,0,.27-.1,.79,0,.26-.05,.24-.12,.48-.18,.72-.03,.14-.3,.68-.01,.09-.15,.31-.39,.58-.52,.89-.19,.43,.43-.35,.05-.08-.15,.1-.27,.28-.4,.41-.09,.09-.57,.46-.16,.16,.44-.33-.3,.17-.32,.19-.16,.1-.99,.5-.58,.33s-.66,.2-.81,.24c-.34,.09-.69,.14-1.03,.22,.74-.18,.3-.03,.08-.02-.31,.02-.62,.05-.93,.05-.37,0-.74,0-1.1-.02-.29-.02-1.17-.14-.43-.01-.89-.15-1.77-.35-2.62-.64-.27-.09-1.06-.45-.41-.13-.45-.22-.91-.43-1.35-.67-.95-.51-1.86-1.07-2.76-1.65-1.8-1.17-3.55-2.43-5.38-3.55-3.56-2.18-7.61-3.89-11.86-3.41-4.01,.45-7.9,2.14-10.21,5.59-1.07,1.59-1.58,3.55-1.54,5.46s1.7,3.84,3.75,3.75c2-.09,3.79-1.65,3.75-3.75h0Z"/>
    <path class="cls-7" d="M689.08,188.25c-2.13,1.51-3.97,3.45-5.08,5.84s-1.78,4.99-1.56,7.64c.08,1.01,.36,1.92,1.1,2.65,.65,.65,1.72,1.14,2.65,1.1s1.98-.36,2.65-1.1,1.18-1.67,1.1-2.65c-.06-.78-.04-1.55,.05-2.33l-.13,1c.14-1.03,.41-2.03,.81-2.99l-.38,.9c.41-.96,.93-1.85,1.57-2.68l-.59,.76c.58-.73,1.24-1.39,1.98-1.97l-.76,.59c.12-.09,.25-.19,.38-.28,.81-.58,1.45-1.25,1.72-2.24,.25-.9,.14-2.09-.38-2.89-.52-.8-1.28-1.51-2.24-1.72-.93-.21-2.08-.2-2.89,.38h0Z"/>
    <path class="cls-7" d="M733.14,207.35c1.96,0,3.84-1.72,3.75-3.75-.09-2.03-1.65-3.75-3.75-3.75-1.96,0-3.84,1.72-3.75,3.75,.09,2.03,1.65,3.75,3.75,3.75h0Z"/>
    <path class="cls-7" d="M756.58,220.27c2.94,5.02,5.87,10.05,8.81,15.07,1.41-1.84,2.82-3.67,4.23-5.51-6.27-1.89-12.54-3.79-18.81-5.68-1.88-.57-4.17,.68-4.61,2.62s.61,4.01,2.62,4.61c6.27,1.89,12.54,3.79,18.81,5.68,3.16,.95,5.86-2.73,4.23-5.51-2.94-5.02-5.87-10.05-8.81-15.07-.99-1.69-3.43-2.44-5.13-1.35-1.71,1.1-2.4,3.32-1.35,5.13h0Z"/>
    <path class="cls-7" d="M708.81,223.38c1.4,5.52,5.54,10.21,10.66,12.63,5.53,2.61,11.61,2.92,17.22,.38,1.79-.81,2.36-3.55,1.35-5.13-1.19-1.85-3.21-2.21-5.13-1.35-.78,.35,.6-.18-.15,.06-.27,.08-.53,.19-.8,.27-.54,.16-1.08,.27-1.63,.38-.77,.17,.75-.04-.11,.02-.23,.01-.46,.04-.69,.05-.51,.03-1.02,.03-1.53,0-.28-.01-.56-.04-.84-.06-.94-.06,.82,.16-.11-.01-.55-.1-1.1-.21-1.65-.35-.5-.13-.99-.29-1.48-.46-.11-.04-.98-.4-.47-.17s-.35-.17-.45-.22c-.98-.48-1.88-1.06-2.77-1.68,.51,.36,.18,.14-.12-.11-.21-.18-.42-.37-.63-.56-.38-.35-.73-.72-1.07-1.1-.15-.17-.3-.35-.45-.53,.6,.69,.04,.05-.09-.13-.32-.46-.61-.93-.88-1.42-.13-.25-.25-.5-.38-.75-.36-.68,.21,.66-.06-.13-.18-.54-.36-1.06-.5-1.61-.48-1.9-2.71-3.23-4.61-2.62s-3.14,2.58-2.62,4.61h0Z"/>
    <path class="cls-7" d="M1124.34,489.26c-23.47-7.02-46.94-14.03-70.4-21.05-23.39-6.99-46.78-13.99-70.16-20.98-13.17-3.94-26.34-7.88-39.51-11.82-1.88-.56-4.17,.67-4.61,2.62s.61,4.01,2.62,4.61c23.47,7.02,46.94,14.03,70.4,21.05,23.39,6.99,46.78,13.99,70.16,20.98,13.17,3.94,26.34,7.88,39.51,11.82,1.88,.56,4.17-.67,4.61-2.62s-.61-4.01-2.62-4.61h0Z"/>
    <path class="cls-7" d="M972.48,510.3c-16.43-4.91-32.86-9.83-49.29-14.74-1.88-.56-4.17,.67-4.61,2.62s.61,4.01,2.62,4.61c16.43,4.91,32.86,9.83,49.29,14.74,1.88,.56,4.17-.67,4.61-2.62,.46-2.02-.61-4.01-2.62-4.61h0Z"/>
    <path class="cls-7" d="M1089.47,546.41c-23.46-7.02-46.92-14.03-70.39-21.05l-20.11-6.01c-1.88-.56-4.17,.67-4.61,2.62s.61,4.01,2.62,4.61c23.46,7.02,46.92,14.03,70.39,21.05,6.7,2,13.41,4.01,20.11,6.01,1.88,.56,4.17-.67,4.61-2.62s-.61-4.01-2.62-4.61h0Z"/>
    <path class="cls-7" d="M1111.37,577.85c-26.51,2.16-53.02,4.33-79.54,6.49-7.46,.61-14.91,1.22-22.37,1.83-1.95,.16-3.85,1.61-3.75,3.75,.08,1.9,1.66,3.92,3.75,3.75,26.51-2.16,53.02-4.33,79.54-6.49,7.46-.61,14.91-1.22,22.37-1.83,1.95-.16,3.85-1.61,3.75-3.75-.08-1.9-1.66-3.92-3.75-3.75h0Z"/>
    <path class="cls-7" d="M936.91,437.58c-5.97,19.98-11.95,39.96-17.92,59.94-.56,1.88,.67,4.17,2.62,4.61,2.02,.46,4.01-.61,4.61-2.62,5.97-19.98,11.95-39.96,17.92-59.94,.56-1.88-.67-4.17-2.62-4.61-2.02-.46-4.01,.61-4.61,2.62h0Z"/>
    <path class="cls-7" d="M1005.22,590.85c-4.67,15.63-9.34,31.25-14.02,46.88-.56,1.88,.67,4.17,2.62,4.61,2.02,.46,4.01-.61,4.61-2.62,4.67-15.63,9.34-31.25,14.02-46.88,.56-1.88-.67-4.17-2.62-4.61s-4.01,.61-4.61,2.62h0Z"/>
    <path class="cls-7" d="M1130.16,518.8c-5.97,19.98-11.95,39.96-17.92,59.94-.56,1.88,.67,4.17,2.62,4.61,2.02,.46,4.01-.61,4.61-2.62,5.97-19.98,11.95-39.96,17.92-59.94,.56-1.88-.67-4.17-2.62-4.61-2.02-.46-4.01,.61-4.61,2.62h0Z"/>
    <path class="cls-7" d="M709.97,832.08h189.48c1.96,0,3.84-1.72,3.75-3.75-.09-2.03-1.65-3.75-3.75-3.75h-189.48c-1.96,0-3.84,1.72-3.75,3.75,.09,2.03,1.65,3.75,3.75,3.75h0Z"/>
    <path class="cls-7" d="M896.31,829.71c-1.87,22.25-3.75,44.49-5.62,66.74-1.88,22.33-3.76,44.66-5.64,66.99-1.06,12.53-2.11,25.07-3.17,37.6-.17,1.96,1.84,3.84,3.75,3.75,2.17-.1,3.57-1.65,3.75-3.75,1.87-22.25,3.75-44.49,5.62-66.74,1.88-22.33,3.76-44.66,5.64-66.99,1.06-12.53,2.11-25.07,3.17-37.6,.17-1.96-1.84-3.84-3.75-3.75-2.17,.1-3.57,1.65-3.75,3.75h0Z"/>
    <path class="cls-7" d="M884.59,997.37c-20.44,1.06-40.88,2.12-61.32,3.18s-40.88,2.12-61.32,3.18c-11.47,.6-22.93,1.19-34.4,1.79-1.96,.1-3.84,1.65-3.75,3.75,.09,1.94,1.65,3.86,3.75,3.75,20.44-1.06,40.88-2.12,61.32-3.18,20.44-1.06,40.88-2.12,61.32-3.18,11.47-.6,22.93-1.19,34.4-1.79,1.96-.1,3.84-1.65,3.75-3.75-.09-1.94-1.65-3.86-3.75-3.75h0Z"/>
    <path class="cls-7" d="M729.77,1008.66c-2.1-23.34-4.2-46.69-6.3-70.03-2.1-23.34-4.2-46.69-6.3-70.03-1.18-13.08-2.35-26.16-3.53-39.24-.18-1.95-1.6-3.85-3.75-3.75-1.88,.08-3.94,1.66-3.75,3.75,2.1,23.34,4.2,46.69,6.3,70.03l6.3,70.03c1.18,13.08,2.35,26.16,3.53,39.24,.18,1.95,1.6,3.85,3.75,3.75,1.88-.08,3.94-1.66,3.75-3.75h0Z"/>
    <path class="cls-7" d="M933.41,657.98c7.67-8.36,15.34-16.71,23.01-25.07h-5.3c13.06,16.38,27.55,31.62,43.28,45.45,7.31,6.43,16.27,13.73,26.68,12.49,9.27-1.1,15.69-8.55,18.55-17.02,3.51-10.38,.84-21.41,.24-32-.45-8.04,.3-17.48,6.91-23.04,5.26-4.43,13.04-4.83,19.53-2.82,7.77,2.4,13.41,8.84,16.88,16.07,8.88,18.5,3.56,40.17,3.44,59.77-.11,18.48,2.57,37.04,7.76,54.77,10.52,35.98,31.42,69.21,60.28,93.28,15,12.51,32.09,22.59,50.81,28.38,19.54,6.03,40.86,7.11,60.73,2,4.87-1.25,9.59-2.94,14.22-4.91,1.86-.79,2.28-3.54,1.35-5.13-1.13-1.93-3.26-2.14-5.13-1.35-18.1,7.7-38.75,8.9-57.91,5.02-18.82-3.81-36.29-12.41-51.69-23.76-29.48-21.73-51.4-53.46-63.05-88.03-5.82-17.27-9.2-35.33-9.77-53.55-.32-10.27,.58-20.45,1.15-30.69,.57-10.25,.54-20.72-2.3-30.67-2.44-8.57-6.92-16.92-13.92-22.61-6.26-5.09-14.42-7.85-22.52-7.17-8.55,.72-16.34,5.06-20.45,12.77-4.64,8.7-4.22,18.77-3.24,28.27s2.45,19.55-2.71,27.95c-1.87,3.04-4.61,5.66-8.07,6.64-4.02,1.14-8.14-.07-11.71-2-4.33-2.35-8.04-5.58-11.71-8.83-3.8-3.37-7.53-6.82-11.19-10.34-7.46-7.2-14.6-14.73-21.4-22.56-3.33-3.83-6.58-7.74-9.74-11.71-1.23-1.54-4.05-1.37-5.3,0-7.67,8.36-15.34,16.71-23.01,25.07-3.26,3.55,2.03,8.87,5.3,5.3h0Z"/>
    <path class="cls-7" d="M928.39,662.28c13.17,6.19,20.95,20.66,20.14,34.94-.2,3.48-.99,7.01-2.37,10.32-1.78,4.26-4.24,8.2-5.91,12.52-1.68,4.34-2.34,9.19-.93,13.7,1.27,4.1,3.94,7.59,7.01,10.53,2.98,2.85,6.34,5.26,9.45,7.95,3.52,3.03,6.76,6.37,9.77,9.9,6.14,7.19,11.27,15.17,16.27,23.17,10.78,17.25,21.8,34.3,33.67,50.83,23.81,33.16,50.08,64.75,78.82,93.76,27.96,28.23,60.7,54.15,100.39,62.72,18.58,4.01,38.11,3.99,56.33-1.74,16.32-5.13,31.66-14.51,42.6-27.8,2.73-3.31,5.2-6.8,7.36-10.51,2.44-4.18-4.04-7.96-6.48-3.79-8.39,14.39-21.76,25.15-36.96,31.72-16.2,7-34.2,8.82-51.62,6.51-39.34-5.22-72.58-29.47-100.3-56.44-28.72-27.95-54.84-58.89-78.56-91.17-11.97-16.29-23.32-33.04-34.01-50.2-9.91-15.9-19.66-32.34-34.41-44.29-5.47-4.43-13.34-9.63-12.58-17.67,.41-4.28,2.77-8.23,4.67-11.99s3.49-7.32,4.37-11.29c3.3-15.03-2.15-31.78-13.69-42-2.79-2.47-5.88-4.57-9.25-6.16-1.83-.86-4.04-.51-5.13,1.35-.95,1.63-.5,4.26,1.35,5.13h0Z"/>
    <path class="cls-5" d="M694.06,216.62v.19c-.01,.34,.06,.67,.22,.96,.1,.31,.27,.58,.52,.8,.23,.24,.49,.42,.8,.52,.3,.16,.62,.23,.96,.22l.66-.09c.42-.12,.79-.33,1.1-.64l.39-.51c.23-.39,.34-.81,.34-1.26v-.19c.01-.34-.06-.67-.22-.96-.1-.31-.27-.58-.52-.8-.23-.24-.49-.42-.8-.52-.3-.16-.62-.23-.96-.22l-.66,.09c-.42,.12-.79,.33-1.1,.64l-.39,.51c-.23,.39-.34,.81-.34,1.26h0Z"/>
    <path class="cls-8" d="M558.95,285.65h.24c.34,.01,.67-.06,.96-.22,.31-.1,.58-.27,.8-.52,.24-.23,.42-.49,.52-.8,.16-.3,.23-.62,.22-.96l-.09-.66c-.12-.42-.33-.79-.64-1.1l-.51-.39c-.39-.23-.81-.34-1.26-.34h-.24c-.34-.01-.67,.06-.96,.22-.31,.1-.58,.27-.8,.52-.24,.23-.42,.49-.52,.8-.16,.3-.23,.62-.22,.96l.09,.66c.12,.42,.33,.79,.64,1.1l.51,.39c.39,.23,.81,.34,1.26,.34h0Z"/>
    <path class="cls-8" d="M1271.11,842.37c16.64-4.04,32.78-10.12,47.96-18.04,31.73-16.56,61.11-41.76,96.84-43.92,16.66-1.01,34.08,3.66,46.38,14.94,7.98,7.32,13.42,16.94,18.44,26.53,29.75,56.83,49.59,118.84,58.33,182.39,1.78,12.95,2.8,27.28-4.74,37.97-9.94,14.1-30.21,21.34-47.46,21.55-34.93,.42-69.43-2.45-104.47-4.45-5.56-.32-11.62-.02-16-3.46-5.98-4.7-6.33-13.47-6.17-21.07,.34-15.76,.68-31.52,1.03-47.29,.13-5.96,.23-12.08-1.83-17.67s-6.81-10.61-12.75-11.17c-6.45-.6-12.08,3.93-17.31,7.75s-12.09,7.27-17.91,4.43c-4.78-2.33-6.8-7.96-8.37-13.04-11.48-37.18-30.83-73.06-31.97-115.46"/>
    <path class="cls-8" d="M255.66,750.82c-5.78,7.52-7.39,17.46-9.22,26.76-3.76,19.14-17.63,36-35.69,43.37-8.92,3.64-19.29,5.47-25.54,12.8-6.57,7.72-6.38,18.98-5.41,29.07,1.64,17.11,4.51,34.17,4.22,51.36-.29,17.19-4.01,34.89-14.26,48.69-6.93,9.34-16.46,16.42-23.99,25.28-11.94,14.06-18.46,32.62-17.93,51.06l1.65,.49,168.61-.46-11.11-79.27s-63.14-93.26-62.81-93.54c1.78-1.5,4.55-3.15,4.55-3.15l76.73,117.16,68-81.78,21.5-26.8c-21.02-22.63-70.46-66.8-91.48-89.43-11.87-12.79-19.75-21.26-36-27.6"/>
  </g>
</svg>