<?xml version="1.0" encoding="UTF-8"?>
<svg id="Layer_1" data-name="Layer 1" xmlns="http://www.w3.org/2000/svg" viewBox="0 0 1177.44 1080">
  <defs>
    <style>
      .cls-1, .cls-2, .cls-3, .cls-4, .cls-5, .cls-6, .cls-7, .cls-8, .cls-9, .cls-10, .cls-11, .cls-12 {
        fill: none;
      }

      .cls-2, .cls-3 {
        stroke-width: 1.5px;
      }

      .cls-2, .cls-3, .cls-4, .cls-5, .cls-6, .cls-8, .cls-10, .cls-11, .cls-12 {
        stroke-miterlimit: 10;
      }

      .cls-2, .cls-8, .cls-12 {
        stroke: #fff;
      }

      .cls-3 {
        stroke: #171e88;
      }

      .cls-4, .cls-5, .cls-11 {
        stroke: #111856;
      }

      .cls-4, .cls-6 {
        stroke-width: .36px;
      }

      .cls-4, .cls-7, .cls-9, .cls-11 {
        stroke-linecap: round;
      }

      .cls-13, .cls-14 {
        fill: #ecbba7;
      }

      .cls-15 {
        fill: #e9e9f4;
      }

      .cls-16, .cls-17 {
        fill: #fff;
      }

      .cls-18 {
        fill: #aac4ff;
      }

      .cls-19 {
        fill: #ddabb7;
      }

      .cls-20 {
        fill: #cfdeff;
      }

      .cls-21 {
        fill: #111856;
      }

      .cls-22, .cls-23 {
        fill: #123591;
      }

      .cls-24, .cls-25 {
        fill: #1f59f0;
      }

      .cls-5 {
        stroke-width: .16px;
      }

      .cls-25, .cls-23 {
        font-size: 17.2px;
      }

      .cls-25, .cls-23, .cls-17 {
        font-family: ArialMT, Arial;
      }

      .cls-6 {
        stroke: #6ec3b4;
      }

      .cls-14 {
        opacity: .5;
      }

      .cls-14, .cls-17 {
        isolation: isolate;
      }

      .cls-7 {
        stroke: #123591;
      }

      .cls-7, .cls-8 {
        stroke-width: 2px;
      }

      .cls-7, .cls-9 {
        stroke-linejoin: round;
      }

      .cls-17 {
        font-size: 20.15px;
      }

      .cls-9 {
        stroke: #1f59f0;
        stroke-width: .5px;
      }

      .cls-10 {
        stroke: #e2d5d6;
      }

      .cls-26 {
        opacity: .7;
      }

      .cls-11 {
        stroke-width: .45px;
      }

      .cls-12 {
        stroke-width: .25px;
      }
    </style>
  </defs>
  <circle class="cls-22" cx="407.82" cy="407.24" r="396.29"/>
  <path class="cls-16" d="M1079.19,148.82h-15.82c-2.79-12.3-7.55-23.91-13.83-34.49l11.66-11.66c4.11-4.11,4.11-10.8,0-14.91l-25.49-25.49c-4.11-4.11-10.8-4.11-14.91,0l-11.2,11.2c-10.39-6.53-21.92-11.52-34.17-14.64v-16.44c0-5.83-4.73-10.53-10.53-10.53h-36.07c-5.83,0-10.53,4.73-10.53,10.53v15.85c-12.33,2.79-23.93,7.55-34.49,13.81h0l-11.63-11.63c-4.11-4.11-10.8-4.11-14.91,0l-25.49,25.49c-4.11,4.11-4.11,10.8,0,14.91l11.23,11.2c-6.58,10.39-11.52,21.89-14.64,34.14h-16.46c-5.83,0-10.53,4.73-10.53,10.53v36.07c0,5.83,4.73,10.53,10.53,10.53h15.87c2.74,12.3,7.49,23.91,13.78,34.46l-11.66,11.66c-4.11,4.11-4.11,10.8,0,14.91l25.49,25.49c4.11,4.11,10.8,4.11,14.91,0l11.2-11.2h0c10.39,6.53,21.89,11.52,34.14,14.64h0v16.44c0,5.83,4.73,10.53,10.53,10.53h36.07c5.83,0,10.53-4.73,10.53-10.53v-15.85h.03c12.33-2.79,23.93-7.49,34.46-13.81h.03l11.63,11.63c4.11,4.11,10.8,4.11,14.91,0l25.49-25.49c4.11-4.11,4.11-10.8,0-14.91l-11.2-11.2h0c6.58-10.39,11.55-21.89,14.67-34.14h16.41c5.83,0,10.53-4.73,10.53-10.53v-36.02c0-5.83-4.7-10.56-10.53-10.56Zm-133.68,94.36c-37.04,0-67.1-30.03-67.1-67.1s30.06-67.1,67.1-67.1,67.15,30.03,67.15,67.1-30.06,67.1-67.15,67.1Z"/>
  <path class="cls-22" d="M1076.45,874.67c-2.15,.78-9.62-15.39-10.31-16.98-6.39-14.75-8.06-31.45-5.35-47.33,2.61-15.31,8.41-30.86,16.33-43.14,6.63-10.29,15.69-20.76,26.7-23.82,6.18-1.72,12.57,.03,16.98,5.99,3.92,5.26,5.8,12.62,6.45,19.42,2.04,21.76-3.09,42.79-9.88,62.37-5.16,14.85-12.22,30.59-25.11,37.36-5.08,2.66-10.53,4.19-15.79,6.12Z"/>
  <path class="cls-9" d="M1061.19,997.02c2.07-32.77,11.2-133.12,32.77-196.53"/>
  <path class="cls-22" d="M1043.92,878.59c1.45,.64,6.98-9.94,7.49-10.99,4.73-9.7,6.23-20.98,4.67-31.96-1.48-10.58-5.18-21.49-10.39-30.32-4.38-7.39-10.42-15.04-17.97-17.73-4.24-1.5-8.68-.67-11.87,3.12-2.82,3.38-4.27,8.3-4.86,12.89-1.85,14.72,1.24,29.33,5.56,43.06,3.25,10.42,7.82,21.54,16.6,26.86,3.44,2.12,7.17,3.47,10.77,5.08Zm-26.21,43.38c1.56-.03,3.3-12.27,3.46-13.48,1.29-11.04-.89-22.19-5.8-31.69-4.75-9.19-11.63-17.7-19.29-23.58-6.39-4.94-14.45-9.4-22.32-8.62-4.41,.46-8.27,3.17-10.02,8.08-1.53,4.35-1.34,9.56-.4,14.07,2.95,14.45,10.48,26.67,18.83,37.55,6.34,8.25,14.1,16.57,23.93,17.7,3.87,.4,7.76,.03,11.6-.03Z"/>
  <path class="cls-9" d="M1059.53,1002.52s-4.89-102.68-28.85-175.04"/>
  <path class="cls-22" d="M1085.42,947.76c-1.53-.46-.83-12.84-.75-14.05,.89-11.09,5.18-21.38,11.82-29.33,6.39-7.68,14.77-14.13,23.37-17.83,7.2-3.12,15.9-5.32,23.39-2.44,4.22,1.61,7.44,5.29,8.19,10.53,.64,4.65-.56,9.67-2.34,13.81-5.67,13.3-15.39,23.18-25.62,31.53-7.76,6.34-16.95,12.38-26.75,10.85-3.84-.54-7.55-1.96-11.31-3.06Z"/>
  <path class="cls-9" d="M1064.79,997.66c1.1-2.58,13.27-49.88,43.67-78.4m-51.41,80.34s-27.64-68.68-62.48-112.09"/>
  <polygon class="cls-24" points="1015.8 1060.84 1104.73 1060.84 1119.64 964.92 1000.86 964.92 1015.8 1060.84"/>
  <path class="cls-22" d="M1001.11,985.39h118.29c2.58,0,4.67-2.1,4.67-4.67v-17.27c0-2.58-2.1-4.67-4.67-4.67h-118.29c-2.58,0-4.67,2.1-4.67,4.67v17.27c0,2.58,2.09,4.67,4.67,4.67Zm-52.32,74.08H366.9c-18.45,0-33.44-14.96-33.44-33.44V181.02c0-18.45,14.96-33.44,33.44-33.44H948.78c18.45,0,33.44,14.96,33.44,33.44v845.03c0,18.45-14.99,33.41-33.44,33.41Z"/>
  <path class="cls-16" d="M341.94,1056.62c-16.87,0-30.57-13.73-30.57-30.57V181.02c0-16.87,13.73-30.57,30.57-30.57H923.83c16.84,0,30.57,13.73,30.57,30.57v845.03c0,16.84-13.73,30.57-30.57,30.57H341.94Z"/>
  <path d="M923.83,153.3c15.28,0,27.69,12.44,27.69,27.69v845.03c0,15.28-12.44,27.69-27.69,27.69H341.94c-15.28,0-27.69-12.44-27.69-27.69V181.02c0-15.28,12.44-27.69,27.69-27.69H923.83m0-5.75H341.94c-18.45,0-33.44,14.96-33.44,33.44v845.03c0,18.45,14.96,33.44,33.44,33.44H923.83c18.45,0,33.44-14.96,33.44-33.44V181.02c0-18.48-14.99-33.44-33.44-33.44h0Z"/>
  <rect class="cls-16" x="348.5" y="203.8" width="568.78" height="753.71"/>
  <rect class="cls-20" x="358.86" y="342.15" width="548.04" height="349.26"/>
  <rect class="cls-20" x="358.86" y="704.09" width="548.04" height="252.94"/>
  <path class="cls-15" d="M632.89,1022.59c-10.18,0-18.48-8.3-18.48-18.48s8.3-18.48,18.48-18.48,18.48,8.3,18.48,18.48-8.3,18.48-18.48,18.48Z"/>
  <path class="cls-21" d="M632.89,987.8c9,0,16.3,7.31,16.3,16.3s-7.31,16.3-16.3,16.3-16.3-7.31-16.3-16.3,7.31-16.3,16.3-16.3m0-4.32c-11.39,0-20.66,9.24-20.66,20.66s9.24,20.66,20.66,20.66,20.66-9.24,20.66-20.66-9.24-20.66-20.66-20.66h0Z"/>
  <rect x="555.42" y="175.65" width="154.9" height="4.16"/>
  <g>
    <polyline class="cls-12" points="369.61 352.82 392.49 352.82 415.38 352.82 438.26 352.82 461.2 352.82 484.08 352.82 506.97 352.82 529.88 352.82 552.76 352.82 575.65 352.82 598.56 352.82 621.44 352.82 644.33 352.82 667.21 352.82 690.13 352.82 713.01 352.82 735.89 352.82 758.81 352.82 781.72 352.82 804.6 352.82 827.51 352.82 850.4 352.82 873.28 352.82 896.17 352.82"/>
    <polyline class="cls-12" points="369.61 374.65 392.49 374.65 415.4 374.65 438.29 374.65 461.17 374.65 484.08 374.65 506.97 374.65 529.85 374.65 552.76 374.65 575.65 374.65 598.56 374.65 621.44 374.65 644.33 374.65 667.24 374.65 690.13 374.65 713.01 374.65 735.92 374.65 758.81 374.65 781.69 374.65 804.6 374.65 827.49 374.65 850.4 374.65 873.28 374.65 896.17 374.65"/>
    <polyline class="cls-12" points="369.61 418.38 392.49 418.38 415.4 418.38 438.29 418.38 461.17 418.38 484.08 418.38 506.97 418.38 529.85 418.38 552.76 418.38 575.65 418.38 598.56 418.38 621.44 418.38 644.33 418.38 667.24 418.38 690.13 418.38 713.01 418.38 735.92 418.38 758.81 418.38 781.69 418.38 804.6 418.38 827.49 418.38 850.4 418.38 873.28 418.38 896.17 418.38"/>
    <polyline class="cls-12" points="369.61 440.24 392.49 440.24 415.4 440.24 438.29 440.24 461.17 440.24 484.08 440.24 506.97 440.24 529.85 440.24 552.76 440.24 575.65 440.24 598.56 440.24 621.44 440.24 644.33 440.24 667.24 440.24 690.13 440.24 713.01 440.24 735.92 440.24 758.81 440.24 781.69 440.24 804.6 440.24 827.49 440.24 850.4 440.24 873.28 440.24 896.17 440.24"/>
    <polyline class="cls-12" points="369.61 483.97 392.49 483.97 415.4 483.97 438.29 483.97 461.17 483.97 484.08 483.97 506.97 483.97 529.85 483.97 552.76 483.97 575.65 483.97 598.56 483.97 621.44 483.97 644.33 483.97 667.24 483.97 690.13 483.97 713.01 483.97 735.92 483.97 758.81 483.97 781.69 483.97 804.6 483.97 827.49 483.97 850.4 483.97 873.28 483.97 896.17 483.97"/>
    <polyline class="cls-12" points="369.61 527.7 392.49 527.7 415.4 527.7 438.29 527.7 461.17 527.7 484.08 527.7 506.97 527.7 529.85 527.7 552.76 527.7 575.65 527.7 598.56 527.7 621.44 527.7 644.33 527.7 667.24 527.7 690.13 527.7 713.01 527.7 735.92 527.7 758.81 527.7 781.69 527.7 804.6 527.7 827.49 527.7 850.4 527.7 873.28 527.7 896.17 527.7"/>
    <polyline class="cls-12" points="369.61 396.52 392.49 396.52 415.4 396.52 438.29 396.52 461.17 396.52 484.08 396.52 506.97 396.52 529.85 396.52 552.76 396.52 575.65 396.52 598.56 396.52 621.44 396.52 644.33 396.52 667.24 396.52 690.13 396.52 713.01 396.52 735.92 396.52 758.81 396.52 781.69 396.52 804.6 396.52 827.49 396.52 850.4 396.52 873.28 396.52 896.17 396.52"/>
    <polyline class="cls-12" points="369.61 462.11 392.49 462.11 415.4 462.11 438.29 462.11 461.17 462.11 484.08 462.11 506.97 462.11 529.85 462.11 552.76 462.11 575.65 462.11 598.56 462.11 621.44 462.11 644.33 462.11 667.24 462.11 690.13 462.11 713.01 462.11 735.92 462.11 758.81 462.11 781.69 462.11 804.6 462.11 827.49 462.11 850.4 462.11 873.28 462.11 896.17 462.11"/>
    <polyline class="cls-12" points="369.61 505.83 392.49 505.83 415.4 505.83 438.29 505.83 461.17 505.83 484.08 505.83 506.97 505.83 529.85 505.83 552.76 505.83 575.65 505.83 598.56 505.83 621.44 505.83 644.33 505.83 667.24 505.83 690.13 505.83 713.01 505.83 735.92 505.83 758.81 505.83 781.69 505.83 804.6 505.83 827.49 505.83 850.4 505.83 873.28 505.83 896.17 505.83"/>
    <polyline class="cls-12" points="369.61 549.56 392.49 549.56 415.4 549.56 438.29 549.56 461.17 549.56 484.08 549.56 506.97 549.56 529.85 549.56 552.76 549.56 575.65 549.56 598.56 549.56 621.44 549.56 644.33 549.56 667.24 549.56 690.13 549.56 713.01 549.56 735.92 549.56 758.81 549.56 781.69 549.56 804.6 549.56 827.49 549.56 850.4 549.56 873.28 549.56 896.17 549.56"/>
    <polyline class="cls-12" points="369.61 593.29 392.49 593.29 415.4 593.29 438.29 593.29 461.17 593.29 484.08 593.29 506.97 593.29 529.85 593.29 552.76 593.29 575.65 593.29 598.56 593.29 621.44 593.29 644.33 593.29 667.24 593.29 690.13 593.29 713.01 593.29 735.92 593.29 758.81 593.29 781.69 593.29 804.6 593.29 827.49 593.29 850.4 593.29 873.28 593.29 896.17 593.29"/>
    <polyline class="cls-12" points="369.61 571.43 392.49 571.43 415.4 571.43 438.29 571.43 461.17 571.43 484.08 571.43 506.97 571.43 529.85 571.43 552.76 571.43 575.65 571.43 598.56 571.43 621.44 571.43 644.33 571.43 667.24 571.43 690.13 571.43 713.01 571.43 735.92 571.43 758.81 571.43 781.69 571.43 804.6 571.43 827.49 571.43 850.4 571.43 873.28 571.43 896.17 571.43"/>
    <polyline class="cls-12" points="369.61 615.15 392.49 615.15 415.4 615.15 438.29 615.15 461.17 615.15 484.08 615.15 506.97 615.15 529.85 615.15 552.76 615.15 575.65 615.15 598.56 615.15 621.44 615.15 644.33 615.15 667.24 615.15 690.13 615.15 713.01 615.15 735.92 615.15 758.81 615.15 781.69 615.15 804.6 615.15 827.49 615.15 850.4 615.15 873.28 615.15 896.17 615.15"/>
    <polyline class="cls-12" points="369.61 637.02 392.49 637.02 415.4 637.02 438.29 637.02 461.17 637.02 484.08 637.02 506.97 637.02 529.85 637.02 552.76 637.02 575.65 637.02 598.56 637.02 621.44 637.02 644.33 637.02 667.24 637.02 690.13 637.02 713.01 637.02 735.92 637.02 758.81 637.02 781.69 637.02 804.6 637.02 827.49 637.02 850.4 637.02 873.28 637.02 896.17 637.02"/>
    <polyline class="cls-12" points="369.61 658.88 392.49 658.88 415.4 658.88 438.29 658.88 461.17 658.88 484.08 658.88 506.97 658.88 529.85 658.88 552.76 658.88 575.65 658.88 598.56 658.88 621.44 658.88 644.33 658.88 667.24 658.88 690.13 658.88 713.01 658.88 735.92 658.88 758.81 658.88 781.69 658.88 804.6 658.88 827.49 658.88 850.4 658.88 873.28 658.88 896.17 658.88"/>
    <polyline class="cls-12" points="896.17 680.74 873.28 680.74 850.4 680.74 827.49 680.74 804.6 680.74 781.69 680.74 758.81 680.74 735.92 680.74 713.01 680.74 690.13 680.74 667.24 680.74 644.33 680.74 621.44 680.74 598.56 680.74 575.65 680.74 552.76 680.74 529.85 680.74 506.97 680.74 484.08 680.74 461.17 680.74 438.29 680.74 415.4 680.74 392.49 680.74 369.61 680.74"/>
    <g>
      <polyline class="cls-12" points="896.17 352.82 896.17 374.68 896.17 396.52 896.17 418.38 896.17 440.27 896.17 462.11 896.17 483.97 896.17 505.83 896.17 527.7 896.17 549.56 896.17 571.43 896.17 593.29 896.17 615.15 896.17 636.99 896.17 658.88 896.17 680.74"/>
      <polyline class="cls-12" points="873.28 352.82 873.28 374.68 873.28 396.52 873.28 418.38 873.28 440.27 873.28 462.11 873.28 483.97 873.28 505.83 873.28 527.7 873.28 549.56 873.28 571.43 873.28 593.29 873.28 615.15 873.28 636.99 873.28 658.88 873.28 680.74"/>
      <polyline class="cls-12" points="850.4 352.82 850.4 374.68 850.4 396.52 850.4 418.38 850.4 440.27 850.4 462.11 850.4 483.97 850.4 505.83 850.4 527.7 850.4 549.56 850.4 571.43 850.4 593.29 850.4 615.15 850.4 636.99 850.4 658.88 850.4 680.74"/>
      <polyline class="cls-12" points="804.6 352.82 804.6 374.68 804.6 396.52 804.6 418.38 804.6 440.27 804.6 462.11 804.6 483.97 804.6 505.83 804.6 527.7 804.6 549.56 804.6 571.43 804.6 593.29 804.6 615.15 804.6 636.99 804.6 658.88 804.6 680.74"/>
      <polyline class="cls-12" points="781.72 352.82 781.72 374.68 781.72 396.52 781.72 418.38 781.72 440.27 781.72 462.11 781.72 483.97 781.72 505.83 781.72 527.7 781.72 549.56 781.72 571.43 781.72 593.29 781.72 615.15 781.72 636.99 781.72 658.88 781.72 680.74"/>
      <polyline class="cls-12" points="735.89 352.82 735.89 374.68 735.89 396.52 735.89 418.38 735.89 440.27 735.89 462.11 735.89 483.97 735.89 505.83 735.89 527.7 735.89 549.56 735.89 571.43 735.89 593.29 735.89 615.15 735.89 636.99 735.89 658.88 735.89 680.74"/>
      <polyline class="cls-12" points="690.13 352.82 690.13 374.68 690.13 396.52 690.13 418.38 690.13 440.27 690.13 462.11 690.13 483.97 690.13 505.83 690.13 527.7 690.13 549.56 690.13 571.43 690.13 593.29 690.13 615.15 690.13 636.99 690.13 658.88 690.13 680.74"/>
      <polyline class="cls-12" points="827.51 352.82 827.51 374.68 827.51 396.52 827.51 418.38 827.51 440.27 827.51 462.11 827.51 483.97 827.51 505.83 827.51 527.7 827.51 549.56 827.51 571.43 827.51 593.29 827.51 615.15 827.51 636.99 827.51 658.88 827.51 680.74"/>
      <polyline class="cls-12" points="758.81 352.82 758.81 374.68 758.81 396.52 758.81 418.38 758.81 440.27 758.81 462.11 758.81 483.97 758.81 505.83 758.81 527.7 758.81 549.56 758.81 571.43 758.81 593.29 758.81 615.15 758.81 636.99 758.81 658.88 758.81 680.74"/>
      <polyline class="cls-12" points="713.01 352.82 713.01 374.68 713.01 396.52 713.01 418.38 713.01 440.27 713.01 462.11 713.01 483.97 713.01 505.83 713.01 527.7 713.01 549.56 713.01 571.43 713.01 593.29 713.01 615.15 713.01 636.99 713.01 658.88 713.01 680.74"/>
      <polyline class="cls-12" points="667.21 352.82 667.21 374.68 667.21 396.52 667.21 418.38 667.21 440.27 667.21 462.11 667.21 483.97 667.21 505.83 667.21 527.7 667.21 549.56 667.21 571.43 667.21 593.29 667.21 615.15 667.21 636.99 667.21 658.88 667.21 680.74"/>
      <polyline class="cls-12" points="621.44 352.82 621.44 374.68 621.44 396.52 621.44 418.38 621.44 440.27 621.44 462.11 621.44 483.97 621.44 505.83 621.44 527.7 621.44 549.56 621.44 571.43 621.44 593.29 621.44 615.15 621.44 636.99 621.44 658.88 621.44 680.74"/>
      <polyline class="cls-12" points="644.33 352.82 644.33 374.68 644.33 396.52 644.33 418.38 644.33 440.27 644.33 462.11 644.33 483.97 644.33 505.83 644.33 527.7 644.33 549.56 644.33 571.43 644.33 593.29 644.33 615.15 644.33 636.99 644.33 658.88 644.33 680.74"/>
      <polyline class="cls-12" points="598.56 352.82 598.56 374.68 598.56 396.52 598.56 418.38 598.56 440.27 598.56 462.11 598.56 483.97 598.56 505.83 598.56 527.7 598.56 549.56 598.56 571.43 598.56 593.29 598.56 615.15 598.56 636.99 598.56 658.88 598.56 680.74"/>
      <polyline class="cls-12" points="575.65 352.82 575.65 374.68 575.65 396.52 575.65 418.38 575.65 440.27 575.65 462.11 575.65 483.97 575.65 505.83 575.65 527.7 575.65 549.56 575.65 571.43 575.65 593.29 575.65 615.15 575.65 636.99 575.65 658.88 575.65 680.74"/>
      <polyline class="cls-12" points="552.76 680.74 552.76 658.88 552.76 636.99 552.76 615.15 552.76 593.29 552.76 571.43 552.76 549.56 552.76 527.7 552.76 505.83 552.76 483.97 552.76 462.11 552.76 440.27 552.76 418.38 552.76 396.52 552.76 374.68 552.76 352.82"/>
      <polyline class="cls-12" points="529.88 352.82 529.88 374.68 529.88 396.52 529.88 418.38 529.88 440.27 529.88 462.11 529.88 483.97 529.88 505.83 529.88 527.7 529.88 549.56 529.88 571.43 529.88 593.29 529.88 615.15 529.88 636.99 529.88 658.88 529.88 680.74"/>
      <polyline class="cls-12" points="506.97 352.82 506.97 374.68 506.97 396.52 506.97 418.38 506.97 440.27 506.97 462.11 506.97 483.97 506.97 505.83 506.97 527.7 506.97 549.56 506.97 571.43 506.97 593.29 506.97 615.15 506.97 636.99 506.97 658.88 506.97 680.74"/>
      <polyline class="cls-12" points="484.08 352.82 484.08 374.68 484.08 396.52 484.08 418.38 484.08 440.27 484.08 462.11 484.08 483.97 484.08 505.83 484.08 527.7 484.08 549.56 484.08 571.43 484.08 593.29 484.08 615.15 484.08 636.99 484.08 658.88 484.08 680.74"/>
      <polyline class="cls-12" points="461.2 352.82 461.2 374.68 461.2 396.52 461.2 418.38 461.2 440.27 461.2 462.11 461.2 483.97 461.2 505.83 461.2 527.7 461.2 549.56 461.2 571.43 461.2 593.29 461.2 615.15 461.2 636.99 461.2 658.88 461.2 680.74"/>
      <polyline class="cls-12" points="438.26 352.82 438.26 374.68 438.26 396.52 438.26 418.38 438.26 440.27 438.26 462.11 438.26 483.97 438.26 505.83 438.26 527.7 438.26 549.56 438.26 571.43 438.26 593.29 438.26 615.15 438.26 636.99 438.26 658.88 438.26 680.74"/>
      <polyline class="cls-12" points="415.38 352.82 415.38 374.68 415.38 396.52 415.38 418.38 415.38 440.27 415.38 462.11 415.38 483.97 415.38 505.83 415.38 527.7 415.38 549.56 415.38 571.43 415.38 593.29 415.38 615.15 415.38 636.99 415.38 658.88 415.38 680.74"/>
      <polyline class="cls-12" points="392.49 352.82 392.49 374.68 392.49 396.52 392.49 418.38 392.49 440.27 392.49 462.11 392.49 483.97 392.49 505.83 392.49 527.7 392.49 549.56 392.49 571.43 392.49 593.29 392.49 615.15 392.49 636.99 392.49 658.88 392.49 680.74"/>
      <polyline class="cls-12" points="369.61 352.82 369.61 374.68 369.61 396.52 369.61 418.38 369.61 440.27 369.61 462.11 369.61 483.97 369.61 505.83 369.61 527.7 369.61 549.56 369.61 571.43 369.61 593.29 369.61 615.15 369.61 636.99 369.61 658.88 369.61 680.74"/>
    </g>
  </g>
  <path class="cls-20" d="M897.27,324.77h-172.65c-2.93,0-5.29-2.36-5.29-5.29v-86.94c0-2.93,2.36-5.29,5.29-5.29h172.65c2.93,0,5.29,2.36,5.29,5.29v86.94c0,2.93-2.36,5.29-5.29,5.29Z"/>
  <g>
    <path class="cls-19" d="M140.9,745.61c-41.34-23.64-26.35,215.98-12.92,265.08,13.43,49.1,20.95-47.94,24.33-128.23,3.38-80.31,4.86-127.56-11.42-136.85Z"/>
    <polyline class="cls-19" points="148.53 1023.55 149.52 1003.87 120.03 1003.65 119.06 1022.91"/>
    <path class="cls-19" d="M232.46,742.33c-44.83-16.04-11.74,242.97,10.07,288.96,21.81,45.98,20.01-51.25,9.27-130.89-10.72-79.67-1.69-151.76-19.34-158.07Z"/>
    <path class="cls-19" d="M245.95,711.77l14.5,306.6-28.52,.27s-29.14-180.74-28.23-252.29l-20.09-77.46,62.34,22.88Z"/>
    <path d="M237.41,560.49s25.65,326.21,26.32,440.58l-37.09,1.58-51.6-339.91-21.3,346.14-38.57-.56s-23.74-408.83-6.61-449.42l128.85,1.58Z"/>
    <g>
      <polygon class="cls-13" points="198.78 356.66 198.54 359.61 198.14 364.26 196.5 383.38 157.28 379.57 159.78 349.94 198.78 356.66"/>
      <path class="cls-13" d="M142,308.58s4.06,53.56,40.93,54.98c36.88,1.42,37.31-58.5,35.59-74.4-1.72-15.9-23.39-22.64-46.92-20.17-23.53,2.47-29.6,39.59-29.6,39.59Z"/>
      <path class="cls-14" d="M198.54,359.61l-.4,4.65c-19.63,10.74-33.47-6.47-34.11-7.31,1.77,1.32,3.65,2.5,5.75,3.49,3.81,1.8,8.19,2.93,13.13,3.12,5.02,.21,9.37-.73,13.13-2.55,.86-.43,1.72-.89,2.5-1.4Z"/>
      <path class="cls-13" d="M215.7,312.93s8.06-.75,7.44,9.56c-.62,10.31-12.33,13.24-12.33,13.24m-67.53-22.67s-7.98-1.37-8.17,8.97c-.19,10.34,14.02,14.05,14.02,14.05"/>
      <path d="M141.92,312.85s-2.28-6.26-1.72-25.25c.56-18.96,9.75-27.02,19.39-26.64,0,0,24.98-19.77,47.41-6.23,22.43,13.54,9.72,67.66,9.72,67.66,0,0-.03-40.53-6.47-41.1-6.47-.56-4.16,9.51-23.45,4.78-19.29-4.73-24.09-7.25-28.31-4.57s.13,29.3-7.41,44.05c0,0-3.06-12.38-9.16-12.7Z"/>
      <ellipse cx="205.04" cy="319.66" rx="5.4" ry="3.01" transform="translate(-122.32 512.17) rotate(-87.78)"/>
      <ellipse cx="169.29" cy="318.29" rx="5.4" ry="3.01" transform="translate(-155.31 475.13) rotate(-87.78)"/>
      <path class="cls-11" d="M199.32,303.85c.54,.03,7.23-1.75,12.57,1.77m-48.35-3.14c.54,.03,7.23-1.75,12.57,1.77m11.85,21.19s1.72,6.18,1.56,7.74-2.61,2.71-2.61,2.71"/>
      <path class="cls-4" d="M179.15,347.28s7.44,4.08,12.41-.05"/>
      <path class="cls-13" d="M264.43,444.54s6.29,49.77,2.15,49.61c-8.25-.32-14.21,36.07-22.16,33.01-8.86-3.38-7.68-83.35-7.68-83.35l27.69,.73Z"/>
      <path class="cls-16" d="M237.3,453.16l.11,107.33-132.77-.86,14.42-108.57-41.18-3.65s3.84-23.85,11.74-46.71c5.51-15.85,35.59-22.4,53.53-24.9,7.92-1.13,13.48-1.45,13.48-1.45,27.45,11.68,41.85,1.34,41.85,1.34,0,0,5.94,.19,14.58,2.01,9.78,2.1,22.99,6.29,34.86,14.64,16.63,11.74,18.67,62.37,18.67,62.37l-29.3-1.56Z"/>
      <path class="cls-21" d="M119.06,451.07s.03-.27,.08-.75,.11-1.18,.24-1.99c.13-.81,.24-1.77,.4-2.79,.16-1.02,.35-2.1,.56-3.2,.21-1.07,.43-2.18,.64-3.17,.21-1.02,.46-1.96,.62-2.77,.19-.81,.38-1.48,.48-1.93,.13-.46,.21-.73,.21-.73,0,0-.03,.27-.08,.75s-.11,1.18-.24,1.99c-.13,.81-.24,1.77-.4,2.79-.16,1.02-.35,2.1-.56,3.2-.21,1.07-.43,2.18-.64,3.17-.21,1.02-.46,1.96-.62,2.77-.19,.81-.38,1.48-.48,1.93-.13,.46-.21,.73-.21,.73Z"/>
      <path class="cls-13" d="M77.97,506.83c7.33-20.84,88.02-49.23,92.37-43.46,9.19,5.45-99.52,85.76-92.37,43.46Z"/>
      <path class="cls-13" d="M78.93,447.44s-9.83,66.83,.19,75.29,35.21-6.71,51.17-18.29c15.95-11.58,41.34-31.29,41.34-31.29l-10.05-13-45.88,14.34,3.38-23.45-40.16-3.6Z"/>
      <g>
        <path class="cls-13" d="M184.65,442.66c-1.8-1.13-3.68-1.91-4.89-1.93-3.46-.13-4.81,3.01-7.01,6.34-2.18,3.38-11.31,13.11-11.31,13.11l9.75,12.95s5.69-2.77,14.56-4.59c7.12-1.48,11.58-15.26,13.05-20.63-2.58-1.61-5.35-4.78-8.86-1.58l-.67,.48c-.94-1.48-2.77-3.01-4.62-4.14Z"/>
        <path class="cls-13" d="M198.81,447.93c1.24,.81,2.44,1.26,3.65,.46,3.73-2.44-4.81-11.66-8.08-11.87-3.09-.24-8.97,5.45-9.7,6.15,1.85,1.13,3.68,2.66,4.62,4.16l.67-.48c3.46-3.17,6.26-.03,8.84,1.58Z"/>
        <g>
          <path class="cls-1" d="M175.92,455.12l3.63-8.14c4.83,3.01,10.05,3.09,10.05,3.09,.62-.94,.38-2.07-.35-3.22-.94-1.5-2.77-3.04-4.62-4.16-1.8-1.13-3.68-1.91-4.89-1.93-3.46-.13-4.81,3.01-7.01,6.34-2.18,3.38-10.05,13.81-10.05,13.81l8.49,12.25s5.69-2.77,14.56-4.59c7.12-1.48,11.58-15.26,13.05-20.63,.38-1.34,.56-2.15,.56-2.15"/>
          <path class="cls-21" d="M175.92,455.12s.13-.35,.35-.94c.21-.56,.62-1.64,.94-2.44,.4-.97,.94-2.31,1.4-3.41,.21-.51,.43-.99,.64-1.5l.13-.35,.35,.19c.7,.4,1.45,.83,2.23,1.15,1.29,.59,2.63,1.05,3.92,1.37,1.29,.32,2.52,.56,3.57,.64h.13l-.16,.08c.56-.78,.4-1.69,.21-2.23-.19-.59-.38-.91-.38-.91,0,0,.21,.27,.51,.86,.24,.51,.59,1.48,0,2.5l-.05,.08h-.27c-1.1-.03-2.36-.13-3.71-.43-1.34-.27-2.74-.73-4.06-1.32-.81-.35-1.58-.81-2.31-1.24l.48-.16c-.24,.51-.46,.99-.7,1.5-.51,1.07-1.13,2.36-1.61,3.33-.38,.78-.91,1.8-1.18,2.34-.27,.59-.46,.89-.46,.89Z"/>
          <path class="cls-1" d="M184.57,442.77s.03-.03,.05-.08c.73-.7,6.61-6.39,9.7-6.15,3.28,.21,11.82,9.45,8.08,11.87-1.21,.81-2.42,.35-3.65-.46-2.58-1.61-5.35-4.78-8.86-1.58"/>
        </g>
      </g>
      <path class="cls-5" d="M198.81,447.93c-2.58-1.61-5.35-4.78-8.86-1.58"/>
      <path class="cls-24" d="M218.66,405.51l70.69,1.93,1.83,1.99-3.92,.56-53.4,65.16s-48.64-2.04-63.63-2.85l.13,.05-2.66,1.67-1.83-1.99c-.81-.32,52.78-66.53,52.78-66.53Z"/>
      <path class="cls-24" d="M291.21,409.44l-70.69-1.93s-53.61,66.21-52.78,66.5c.83,.3,68.01,3.12,68.01,3.12l55.47-67.69Z"/>
      <path class="cls-13" d="M245.71,460.01s-3.68,36.5-4.83,47.81c-1.88,18.45,5.37,28.31,17.86,27.91,12.49-.4,15.71-26.32,13.35-38.17-2.36-11.85-8.49-40.45-8.49-40.45,0,0,6.58-9.7,3.63-22.43-1.56-6.66-25.41-8.27-26.11-5.16-.7,3.14,2.71,1.93-1.13,1.88-3.81-.05-5.88,2.26-4.38,6.23,0,0-4.03,1.64-4.11,7.33,0,0-1.48,1.8,.48,4.75,1.96,2.95,10.99-1.93,12.44,2.52,.86,2.66,1.29,7.76,1.29,7.76Z"/>
      <path class="cls-21" d="M115.68,474.52s-.27,.11-.75,.32c-.48,.19-1.15,.48-2.01,.78s-1.8,.67-2.85,1.05-2.18,.75-3.3,1.13c-1.13,.35-2.26,.73-3.33,1.05-1.07,.32-2.07,.59-2.93,.83s-1.58,.4-2.1,.54c-.51,.11-.81,.19-.81,.19,0,0,.27-.11,.75-.32,.48-.19,1.15-.48,2.01-.78,.83-.3,1.8-.67,2.85-1.05s2.18-.75,3.3-1.13c1.13-.35,2.26-.73,3.33-1.05,1.07-.32,2.07-.59,2.93-.83s1.58-.4,2.1-.54,.81-.19,.81-.19Z"/>
      <path class="cls-21" d="M245.71,460.01s-.03,.62-.08,1.67-.16,2.77-.24,4.4c-.13,1.8-.27,4.06-.43,6.23-.19,2.36-.38,4.73-.56,7.14-.21,2.42-.43,4.78-.64,7.12-.21,2.15-.46,4.4-.64,6.2-.19,1.61-.38,3.36-.51,4.38-.13,1.05-.21,1.67-.21,1.67,0,0,.03-.62,.08-1.67,.05-1.02,.16-2.79,.24-4.4,.13-1.8,.27-4.08,.43-6.23,.19-2.36,.38-4.73,.56-7.12,.21-2.42,.43-4.78,.64-7.12,.21-2.15,.46-4.4,.64-6.2,.19-1.61,.38-3.36,.51-4.38,.13-1.07,.21-1.69,.21-1.69Z"/>
    </g>
    <path d="M260.45,1018.4s8.62,9.75,28.52,22.29c19.93,12.52,25.01,9.62,25.57,14.42,.54,4.81-83.8,2.5-83.8,2.5l.94-39.75s28.74-.51,28.77,.54Zm-111.92,5.16c.13,6.34,6.63,30.22,6.58,35.72-45.9-.75-45.1,5.94-36.05-36.34l29.47,.62Z"/>
  </g>
  <path class="cls-13" d="M213.07,377.71c-2.79,7.76-10.82,22.99-30.86,22.99-24.5,0-37.04-21.17-39.05-24.9,7.92-1.13,14.99-1.99,14.99-1.99,27.45,11.68,38.54,1.58,38.54,1.58,0,0,7.74,.48,16.38,2.31Z"/>
  <g>
    <path class="cls-16" d="M371.33,323.94c-3.52,0-6.37-2.85-6.37-6.37v-83.13c0-3.52,2.85-6.37,6.37-6.37h323.87c3.52,0,6.37,2.85,6.37,6.37v83.13c0,3.52-2.85,6.37-6.37,6.37H371.33Z"/>
    <path class="cls-22" d="M695.2,228.91c3.04,0,5.51,2.47,5.51,5.51v83.13c0,3.04-2.47,5.51-5.51,5.51H371.33c-3.04,0-5.51-2.47-5.51-5.51v-83.13c0-3.04,2.47-5.51,5.51-5.51h323.87m0-1.67H371.33c-3.98,0-7.2,3.22-7.2,7.2v83.13c0,3.98,3.22,7.2,7.2,7.2h323.87c3.98,0,7.2-3.22,7.2-7.2v-83.13c0-3.98-3.22-7.2-7.2-7.2h0Z"/>
    <rect class="cls-20" x="398.35" y="301.27" width="269.83" height="7.41"/>
    <g>
      <text class="cls-23" transform="translate(399.82 265.09)"><tspan x="0" y="0">3724</tspan></text>
      <text class="cls-25" transform="translate(489.59 264.79)"><tspan x="0" y="0">-2.06%</tspan></text>
      <text class="cls-23" transform="translate(568.16 265.09)"><tspan x="0" y="0">3216</tspan></text>
      <text class="cls-23" transform="translate(626.02 264.79)"><tspan x="0" y="0">3730</tspan></text>
      <rect class="cls-20" x="398.4" y="279.03" width="41.07" height="7.41"/>
      <rect class="cls-20" x="493.65" y="279.03" width="41.07" height="7.41"/>
      <rect class="cls-20" x="567.48" y="279.03" width="41.07" height="7.41"/>
      <rect class="cls-20" x="627.06" y="279.03" width="41.07" height="7.41"/>
    </g>
    <g>
      <circle class="cls-24" cx="479.33" cy="258.38" r="5.77"/>
      <polygon class="cls-16" points="479.33 261.12 476.16 257.46 482.53 257.46 479.33 261.12"/>
      <rect class="cls-16" x="477.42" y="255.64" width="3.81" height="2.1"/>
    </g>
  </g>
  <g>
    <circle class="cls-22" cx="810.94" cy="276" r="31.13"/>
    <polygon class="cls-16" points="810.94 290.8 793.78 271.16 828.1 271.16 810.94 290.8"/>
    <rect class="cls-16" x="800.65" y="261.22" width="20.6" height="11.36"/>
  </g>
  <g>
    <rect class="cls-22" x="413.79" y="542.95" width="12.41" height="88.26"/>
    <rect class="cls-22" x="459.24" y="557.94" width="12.41" height="58.34"/>
    <rect class="cls-24" x="436.52" y="536.29" width="12.41" height="51.01"/>
    <rect class="cls-24" x="391.1" y="569.09" width="12.41" height="51.01"/>
    <line class="cls-6" x1="397.3" y1="651.87" x2="397.3" y2="620.12"/>
    <rect class="cls-22" x="481.96" y="573.04" width="12.41" height="54.69"/>
    <rect class="cls-22" x="550.11" y="473.42" width="12.41" height="54.69"/>
    <rect class="cls-22" x="612.77" y="469.65" width="12.41" height="39.62"/>
    <rect class="cls-24" x="527.38" y="485.53" width="12.41" height="84.04"/>
    <rect class="cls-24" x="572.67" y="458.54" width="12.41" height="29.73"/>
    <rect class="cls-24" x="593.73" y="443.04" width="12.41" height="44.78"/>
    <rect class="cls-24" x="504.66" y="556.01" width="12.41" height="34.03"/>
    <line class="cls-6" x1="510.86" y1="556.01" x2="510.86" y2="551.47"/>
    <rect class="cls-22" x="656.68" y="458.19" width="12.41" height="88.26"/>
    <rect class="cls-22" x="702.1" y="441.37" width="12.41" height="58.34"/>
    <rect class="cls-24" x="679.41" y="434.36" width="12.41" height="51.01"/>
    <g>
      <rect class="cls-24" x="633.96" y="485.74" width="12.41" height="51.01"/>
      <line class="cls-6" x1="640.17" y1="485.74" x2="640.17" y2="466.65"/>
    </g>
    <rect class="cls-24" x="724.83" y="406.99" width="12.41" height="54.69"/>
    <rect class="cls-22" x="793" y="415.37" width="12.41" height="54.69"/>
    <rect class="cls-22" x="855.66" y="451.98" width="12.41" height="39.62"/>
    <rect class="cls-24" x="770.27" y="369.44" width="12.41" height="58.34"/>
    <rect class="cls-22" x="815.56" y="462.11" width="12.41" height="29.73"/>
    <rect class="cls-22" x="836.59" y="431.43" width="12.41" height="44.78"/>
    <g>
      <rect class="cls-22" x="747.55" y="417.74" width="12.41" height="34.03"/>
      <line class="cls-6" x1="753.76" y1="417.74" x2="753.76" y2="413.2"/>
    </g>
  </g>
  <g>
    <path class="cls-24" d="M996.19,941.98H421.29c-2.77,0-5-2.23-5-5v-212.33c0-2.77,2.23-5,5-5H996.22c2.77,0,5,2.23,5,5v212.33c0,2.77-2.26,5-5.02,5Z"/>
    <g class="cls-26">
      <path class="cls-8" d="M462.6,857c2.28,.86,504.21,0,504.21,0"/>
      <rect class="cls-16" x="610.3" y="850.2" width="11.44" height="5.91"/>
      <rect class="cls-16" x="628.83" y="843.97" width="11.44" height="12.17"/>
      <rect class="cls-16" x="647.36" y="834.87" width="11.44" height="21.27"/>
      <rect class="cls-16" x="665.9" y="826" width="11.44" height="30.14"/>
      <rect class="cls-16" x="684.46" y="815.2" width="11.44" height="40.91"/>
      <rect class="cls-16" x="702.99" y="808.09" width="11.44" height="48.03"/>
      <rect class="cls-16" x="740.06" y="808.09" width="11.44" height="48.03"/>
      <rect class="cls-16" x="777.12" y="817.14" width="11.44" height="39"/>
      <rect class="cls-16" x="795.68" y="829.09" width="11.44" height="27.05"/>
      <rect class="cls-16" x="814.22" y="841.74" width="11.44" height="14.37"/>
      <rect class="cls-16" x="832.75" y="825.25" width="11.44" height="30.86"/>
      <rect class="cls-16" x="851.28" y="809.3" width="11.44" height="46.84"/>
      <rect class="cls-16" x="869.82" y="794.55" width="11.44" height="61.59"/>
      <rect class="cls-16" x="888.35" y="783.19" width="11.44" height="72.95"/>
      <rect class="cls-16" x="906.91" y="793.66" width="11.44" height="62.48"/>
      <rect class="cls-16" x="925.44" y="801.75" width="11.44" height="54.39"/>
      <rect class="cls-16" x="943.98" y="790.31" width="11.44" height="65.83"/>
      <rect class="cls-16" x="721.52" y="803.9" width="11.44" height="52.22"/>
      <rect class="cls-16" x="758.59" y="803.9" width="11.44" height="52.22"/>
      <rect class="cls-18" x="480.54" y="858.1" width="11.44" height="45.66"/>
      <rect class="cls-18" x="499.07" y="858.1" width="11.44" height="45.66"/>
      <rect class="cls-18" x="517.61" y="858.1" width="11.44" height="34.84"/>
      <rect class="cls-18" x="536.14" y="858.1" width="11.44" height="28.39"/>
      <rect class="cls-18" x="554.7" y="858.1" width="11.44" height="14.21"/>
      <rect class="cls-18" x="573.23" y="858.1" width="11.44" height="7.09"/>
      <rect class="cls-18" x="591.77" y="858.1" width="11.44" height="2.36"/>
    </g>
    <path class="cls-7" d="M464.58,884.66s70.99,23.93,123.9,0c52.89-23.93,91.3-99,145.63-99s65.4,32.45,91.3,28.04c25.89-4.41,35.51-51.97,126.78-41.26"/>
    <path class="cls-8" d="M462.41,897.85s66.67,21.46,112.3-16.49c45.63-37.95,102.01-100,153.15-85.06,51.14,14.93,88.82,19.9,122.16-9.8,33.33-29.71,66.67-37.12,96.37-35.48"/>
    <text class="cls-17" transform="translate(455.39 759.7)"><tspan x="0" y="0">MACD</tspan></text>
  </g>
  <rect class="cls-22" x="82.16" y="1055.81" width="1079.36" height="13.97"/>
  <circle class="cls-2" cx="238.59" cy="155.18" r="15.44"/>
  <circle class="cls-10" cx="1112.65" cy="678.57" r="9.02"/>
  <circle class="cls-3" cx="729.23" cy="48.04" r="9.02"/>
  <g>
    <line class="cls-3" x1="1067.02" y1="375.73" x2="1050.04" y2="392.7"/>
    <line class="cls-3" x1="1067.02" y1="392.7" x2="1050.04" y2="375.73"/>
  </g>
  <g>
    <line class="cls-3" x1="69.08" y1="685.74" x2="52.1" y2="702.72"/>
    <line class="cls-3" x1="69.08" y1="702.72" x2="52.1" y2="685.74"/>
  </g>
</svg>