<?xml version="1.0" encoding="UTF-8"?>
<svg id="Layer_1" data-name="Layer 1" xmlns="http://www.w3.org/2000/svg" xmlns:xlink="http://www.w3.org/1999/xlink" viewBox="0 0 1071.06 1072.72">
  <defs>
    <style>
      .cls-1 {
        fill: none;
      }

      .cls-2 {
        clip-path: url(#clippath);
      }

      .cls-3 {
        fill: #f9dbcf;
      }

      .cls-4 {
        fill: #fff;
      }

      .cls-5 {
        fill: #d3d3d3;
      }

      .cls-6 {
        fill: #123591;
      }

      .cls-7 {
        fill: #1f59f0;
      }
    </style>
    <clipPath id="clippath">
      <path id="clip" class="cls-1" d="M734.92,353.1c0,34.05-13.36,64.92-35.08,87.57-22.54,23.51-54.09,38.12-89,38.12s-66.46-14.61-89-38.12c-21.72-22.64-35.08-53.51-35.08-87.57,0-69.42,55.55-125.7,124.07-125.7,68.52,0,124.07,56.28,124.07,125.7Z"/>
    </clipPath>
  </defs>
  <path class="cls-6" d="M1053.19,757.43l-21.12-6c-3.11-16.27-9.45-31.46-18.28-44.74l10.76-19.49c1.65-3,1.14-6.77-1.27-9.2l-14.51-14.73c-2.41-2.42-6.13-2.94-9.11-1.27l-19.24,10.88c-13.1-8.95-28.09-15.36-44.15-18.52l-6.01-21.5c-.92-3.31-3.92-5.61-7.32-5.61h-20.51c-3.42,0-6.4,2.3-7.34,5.61l-6.01,21.51c-16.04,3.17-31.03,9.58-44.15,18.52l-19.24-10.88c-2.98-1.68-6.68-1.16-9.09,1.27l-14.53,14.72c-2.41,2.44-2.93,6.2-1.25,9.2l10.74,19.49c-8.83,13.29-15.16,28.47-18.28,44.74l-21.12,6c-3.29,.93-5.55,3.97-5.55,7.44v20.84c0,3.47,2.26,6.49,5.55,7.44l21.12,6c3.13,16.36,9.45,31.55,18.28,44.82l-10.74,19.4c-1.65,3.02-1.14,6.78,1.27,9.23l14.52,14.72c2.41,2.42,6.11,2.96,9.09,1.29l19.24-10.83c13.11,8.85,28.11,15.28,44.15,18.45l6.01,21.49c.94,3.31,3.92,5.61,7.34,5.61h20.51c3.4,0,6.4-2.29,7.32-5.61l6.01-21.49c16.06-3.17,31.05-9.6,44.15-18.45l19.26,10.83c2.96,1.68,6.68,1.13,9.07-1.29l14.53-14.72c2.41-2.44,2.93-6.21,1.25-9.23l-10.74-19.4c8.83-13.27,15.18-28.45,18.28-44.82l21.11-6c3.29-.95,5.55-3.97,5.55-7.44v-20.84c0-3.46-2.26-6.5-5.55-7.43Zm-140.46,85.44c-36.94,0-66.83-30.26-66.83-67.59s29.89-67.61,66.83-67.61,66.71,30.28,66.71,67.61c0,37.33-29.89,67.59-66.71,67.59Z"/>
  <path d="M920.94,924.9h-20.51c-4.09,0-7.73-2.78-8.85-6.77l-5.75-20.55c-15.3-3.15-29.75-9.19-42.96-17.95l-18.4,10.36c-3.56,2.01-8.07,1.37-10.97-1.55l-14.52-14.73c-2.89-2.93-3.53-7.51-1.53-11.13l10.27-18.55c-8.69-13.29-14.67-27.95-17.79-43.61l-20.18-5.74c-3.95-1.14-6.71-4.83-6.71-8.98v-20.83c0-4.17,2.76-7.86,6.71-8.98l20.18-5.73c3.13-15.61,9.11-30.24,17.79-43.54l-10.28-18.63c-2.01-3.61-1.39-8.18,1.51-11.12l14.53-14.72c2.9-2.91,7.41-3.54,10.97-1.53l18.4,10.4c13.12-8.79,27.57-14.86,42.96-18.03l5.75-20.56c1.12-3.99,4.77-6.77,8.86-6.77h20.51c4.1,0,7.74,2.79,8.84,6.78l5.75,20.56c15.41,3.17,29.86,9.23,42.96,18.03l18.4-10.4c3.57-2.01,8.09-1.39,10.98,1.53l14.52,14.73c2.89,2.93,3.53,7.51,1.53,11.12l-10.29,18.64c8.71,13.33,14.69,27.96,17.79,43.54l20.18,5.74c3.95,1.12,6.71,4.81,6.71,8.97v20.83c0,4.14-2.75,7.84-6.7,8.97l-20.19,5.74c-3.09,15.63-9.07,30.29-17.79,43.61l10.27,18.54c2.01,3.62,1.38,8.2-1.51,11.14l-14.53,14.72c-2.89,2.93-7.4,3.57-10.96,1.55l-18.41-10.35c-13.2,8.77-27.64,14.8-42.96,17.95l-5.75,20.55c-1.1,3.98-4.74,6.77-8.84,6.77Zm-78.01-48.75c.31,0,.61,.09,.88,.27,13.35,9.01,28.01,15.14,43.57,18.21,.58,.12,1.05,.55,1.22,1.13l6.02,21.48c.74,2.62,3.13,4.45,5.82,4.45h20.51c2.69,0,5.07-1.83,5.8-4.44l6.01-21.49c.16-.58,.63-1.02,1.22-1.13,15.58-3.07,30.24-9.2,43.57-18.21,.49-.33,1.12-.36,1.64-.07l19.26,10.83c2.34,1.33,5.29,.9,7.18-1.02l14.53-14.72c1.9-1.93,2.31-4.93,.99-7.31l-10.75-19.4c-.29-.53-.26-1.18,.07-1.68,8.95-13.46,15.02-28.34,18.04-44.23,.11-.6,.55-1.07,1.12-1.24l21.12-6c2.63-.76,4.4-3.13,4.4-5.9v-20.83c0-2.73-1.81-5.16-4.4-5.9h0l-21.12-6c-.58-.16-1.01-.64-1.12-1.24-3.02-15.83-9.1-30.69-18.04-44.16-.34-.5-.36-1.15-.07-1.68l10.76-19.49c1.31-2.37,.89-5.36-1.01-7.29l-14.52-14.72c-1.9-1.91-4.88-2.32-7.22-1l-19.24,10.88c-.51,.29-1.16,.26-1.65-.07-13.23-9.04-27.89-15.19-43.56-18.28-.58-.12-1.05-.55-1.22-1.13l-6.01-21.51c-.72-2.62-3.11-4.44-5.8-4.44h-20.51c-2.69,0-5.08,1.83-5.82,4.45l-6.01,21.5c-.16,.58-.63,1.02-1.22,1.13-15.66,3.09-30.31,9.24-43.56,18.28-.49,.33-1.14,.36-1.65,.07l-19.24-10.88c-2.35-1.32-5.31-.9-7.2,1l-14.53,14.72c-1.9,1.93-2.31,4.92-.99,7.29l10.75,19.5c.29,.53,.26,1.17-.07,1.67-8.92,13.43-14.99,28.28-18.04,44.16-.11,.59-.55,1.07-1.12,1.23l-21.11,6c-2.59,.73-4.4,3.16-4.4,5.9v20.83c0,2.77,1.77,5.13,4.41,5.9l21.11,6c.57,.16,1.01,.64,1.12,1.24,3.04,15.93,9.11,30.81,18.04,44.23,.34,.5,.36,1.15,.07,1.68l-10.74,19.4c-1.31,2.38-.89,5.39,1.01,7.31l14.51,14.72c1.9,1.92,4.87,2.33,7.2,1.02l19.24-10.83c.22-.12,.48-.18,.75-.18Zm67.8-31.69c-37.72,0-68.41-31.04-68.41-69.19s30.69-69.21,68.41-69.21,68.29,31.04,68.29,69.21c0,38.15-30.64,69.19-68.29,69.19Zm0-135.2c-35.97,0-65.24,29.61-65.24,66.01s29.27,65.99,65.24,65.99,65.14-29.6,65.14-65.99c0-36.4-29.22-66.01-65.14-66.01Z"/>
  <path class="cls-4" d="M869.62,161.91V1021.25c0,18.74-15,33.94-33.5,33.94H385.57c-18.5,0-33.5-15.19-33.5-33.94V161.91c0-18.74,15-33.94,33.5-33.94h450.55c18.5,0,33.5,15.19,33.5,33.94Z"/>
  <path d="M836.12,1056.78H385.57c-19.34,0-35.08-15.94-35.08-35.54V161.91c0-19.6,15.74-35.54,35.08-35.54h450.55c19.34,0,35.08,15.94,35.08,35.54V1021.25c0,19.59-15.74,35.54-35.08,35.54ZM385.57,129.56c-17.6,0-31.92,14.51-31.92,32.34V1021.24c0,17.83,14.32,32.34,31.92,32.34h450.55c17.6,0,31.92-14.51,31.92-32.34V161.91c0-17.83-14.32-32.34-31.92-32.34H385.57Z"/>
  <path class="cls-6" d="M723.33,892.89c0,62.94-50.36,113.96-112.49,113.96s-112.47-51.02-112.47-113.96,50.36-113.94,112.47-113.94,112.49,51.02,112.49,113.94Z"/>
  <path d="M610.83,1008.46c-62.89,0-114.05-51.84-114.05-115.56s51.16-115.54,114.05-115.54,114.07,51.83,114.07,115.54-51.17,115.56-114.07,115.56Zm0-227.91c-61.14,0-110.89,50.4-110.89,112.34s49.74,112.36,110.89,112.36,110.92-50.41,110.92-112.36c0-61.95-49.75-112.34-110.92-112.34Z"/>
  <path class="cls-7" d="M686.32,127.97h0c0,18.19-14.55,32.93-32.51,32.93h-85.94c-17.95,0-32.51-14.74-32.51-32.93h150.96Z"/>
  <path d="M653.82,162.51h-85.94c-18.8,0-34.09-15.49-34.09-34.54,0-.88,.71-1.6,1.58-1.6h150.96c.87,0,1.58,.72,1.58,1.6,0,19.05-15.29,34.54-34.09,34.54Zm-116.83-32.93c.83,16.54,14.36,29.73,30.89,29.73h85.94c16.53,0,30.06-13.2,30.89-29.73h-147.72Z"/>
  <path class="cls-5" d="M790.87,539.2v45.54c0,6.47-5.18,11.71-11.56,11.71H444.94c-6.39,0-11.56-5.24-11.56-11.71v-45.54c0-6.47,5.18-11.71,11.56-11.71h334.38c6.38,0,11.56,5.24,11.56,11.71Z"/>
  <path d="M779.32,598.06H444.94c-7.25,0-13.14-5.97-13.14-13.31v-45.54c0-7.34,5.89-13.31,13.14-13.31h334.38c7.25,0,13.14,5.97,13.14,13.31v45.54c0,7.34-5.89,13.31-13.14,13.31Zm-334.38-68.97c-5.5,0-9.98,4.54-9.98,10.11v45.54c0,5.57,4.48,10.11,9.98,10.11h334.38c5.5,0,9.98-4.54,9.98-10.11v-45.54c0-5.57-4.48-10.11-9.98-10.11H444.94Z"/>
  <path d="M492.78,563.57h-8.52c-.87,0-1.58-.72-1.58-1.6s.71-1.6,1.58-1.6h8.52c.87,0,1.58,.72,1.58,1.6s-.7,1.6-1.58,1.6Zm34.91,0h-8.52c-.87,0-1.58-.72-1.58-1.6s.71-1.6,1.58-1.6h8.52c.87,0,1.58,.72,1.58,1.6s-.7,1.6-1.58,1.6Zm34.92,0h-8.52c-.87,0-1.58-.72-1.58-1.6s.71-1.6,1.58-1.6h8.52c.87,0,1.58,.72,1.58,1.6s-.71,1.6-1.58,1.6Zm34.91,0h-8.52c-.87,0-1.58-.72-1.58-1.6s.71-1.6,1.58-1.6h8.52c.87,0,1.58,.72,1.58,1.6s-.71,1.6-1.58,1.6Zm34.91,0h-8.52c-.87,0-1.58-.72-1.58-1.6s.71-1.6,1.58-1.6h8.52c.87,0,1.58,.72,1.58,1.6s-.71,1.6-1.58,1.6Zm34.91,0h-8.52c-.87,0-1.58-.72-1.58-1.6s.71-1.6,1.58-1.6h8.52c.87,0,1.58,.72,1.58,1.6s-.71,1.6-1.58,1.6Zm34.91,0h-8.52c-.87,0-1.58-.72-1.58-1.6s.71-1.6,1.58-1.6h8.52c.87,0,1.58,.72,1.58,1.6s-.71,1.6-1.58,1.6Zm34.91,0h-8.52c-.87,0-1.58-.72-1.58-1.6s.71-1.6,1.58-1.6h8.52c.87,0,1.58,.72,1.58,1.6s-.71,1.6-1.58,1.6Z"/>
  <path class="cls-5" d="M790.87,663.75v45.54c0,6.47-5.18,11.71-11.56,11.71H444.94c-6.39,0-11.56-5.24-11.56-11.71v-45.54c0-6.47,5.18-11.71,11.56-11.71h334.38c6.38,0,11.56,5.25,11.56,11.71Z"/>
  <path d="M779.32,722.6H444.94c-7.25,0-13.14-5.97-13.14-13.31v-45.54c0-7.34,5.89-13.31,13.14-13.31h334.38c7.25,0,13.14,5.97,13.14,13.31v45.54c0,7.34-5.89,13.31-13.14,13.31Zm-334.38-68.96c-5.5,0-9.98,4.54-9.98,10.11v45.54c0,5.57,4.48,10.11,9.98,10.11h334.38c5.5,0,9.98-4.54,9.98-10.11v-45.54c0-5.57-4.48-10.11-9.98-10.11H444.94Z"/>
  <path d="M492.78,688.12h-8.52c-.87,0-1.58-.72-1.58-1.6s.71-1.6,1.58-1.6h8.52c.87,0,1.58,.72,1.58,1.6s-.7,1.6-1.58,1.6Zm34.91,0h-8.52c-.87,0-1.58-.72-1.58-1.6s.71-1.6,1.58-1.6h8.52c.87,0,1.58,.72,1.58,1.6s-.7,1.6-1.58,1.6Zm34.92,0h-8.52c-.87,0-1.58-.72-1.58-1.6s.71-1.6,1.58-1.6h8.52c.87,0,1.58,.72,1.58,1.6s-.71,1.6-1.58,1.6Zm34.91,0h-8.52c-.87,0-1.58-.72-1.58-1.6s.71-1.6,1.58-1.6h8.52c.87,0,1.58,.72,1.58,1.6s-.71,1.6-1.58,1.6Zm34.91,0h-8.52c-.87,0-1.58-.72-1.58-1.6s.71-1.6,1.58-1.6h8.52c.87,0,1.58,.72,1.58,1.6s-.71,1.6-1.58,1.6Zm34.91,0h-8.52c-.87,0-1.58-.72-1.58-1.6s.71-1.6,1.58-1.6h8.52c.87,0,1.58,.72,1.58,1.6s-.71,1.6-1.58,1.6Zm34.91,0h-8.52c-.87,0-1.58-.72-1.58-1.6s.71-1.6,1.58-1.6h8.52c.87,0,1.58,.72,1.58,1.6s-.71,1.6-1.58,1.6Zm34.91,0h-8.52c-.87,0-1.58-.72-1.58-1.6s.71-1.6,1.58-1.6h8.52c.87,0,1.58,.72,1.58,1.6s-.71,1.6-1.58,1.6Z"/>
  <g class="cls-2">
    <g>
      <path class="cls-3" d="M661.87,322.07l-4.44,1.67v4.71c0,7.83-6.16,14.21-13.9,14.51l-.36,16.03-36.86-5.01v-19.98h-7.83v-56.28s43.14-7.5,55.25,1.32c10.25,7.47,4.69,26.7,4.69,26.7l5.65,10.3c1.26,2.26,.22,5.11-2.21,6.03Z"/>
      <path d="M643.19,360.36c-.06,0-.12,0-.19-.01l-36.86-5.01c-.68-.09-1.19-.67-1.19-1.36v-18.61h-6.45c-.76,0-1.37-.61-1.37-1.37v-56.27c0-.67,.48-1.24,1.14-1.35,1.78-.31,43.86-7.5,56.3,1.56,10.02,7.3,6.22,24.28,5.35,27.64l5.39,9.81c.79,1.42,.92,3.11,.36,4.64-.56,1.54-1.76,2.75-3.3,3.33h0l-3.55,1.34v3.76c0,8.14-6.02,14.84-13.92,15.78l-.33,14.79c0,.39-.19,.76-.48,1.02-.26,.21-.58,.33-.9,.33Zm-35.49-7.59l34.14,4.64,.32-14.49c.01-.73,.59-1.32,1.32-1.35,7.05-.27,12.58-6.04,12.58-13.13v-4.71c0-.57,.36-1.08,.89-1.29l4.43-1.67c.78-.3,1.4-.92,1.69-1.71,.29-.78,.22-1.64-.19-2.37l-5.66-10.31c-.18-.32-.22-.69-.11-1.04,.05-.19,5.17-18.4-4.18-25.21-10.44-7.61-46.21-2.36-53.07-1.26v53.73h6.45c.76,0,1.37,.61,1.37,1.37v18.79h0Zm54.17-30.71h0Z"/>
      <path d="M698.99,535.26l-27.44-86.46h43.54l16.29-79.02-185.77-4.43c-5.79-.14-11.51,1.23-16.61,3.96l-75.19,40.3,38.34,71.65,30.64-21.59-19.6,75.6h195.81Z"/>
      <polygon points="592.86 367.03 598.61 352.02 654.16 355.55 660.1 370.39 592.86 367.03"/>
      <path d="M643.54,344.34h-7.53c-.76,0-1.37-.61-1.37-1.37s.62-1.37,1.37-1.37h7.53c.76,0,1.37,.61,1.37,1.37s-.62,1.37-1.37,1.37Z"/>
      <path d="M605.82,336.42h0c11.66,0,20.63-10.12,19.46-21.73-.68-6.75-.48-12.72,2.54-14.55,10.87-6.63,7.93,13.78,9.06,14.86,4.74,4.48,18.97-23.34,18.97-23.34l3.24-6.15c8.4-25.26-28.15-26.18-54.77-23.19-34.22,3.85-24.52,41.26-16.84,61.45,2.9,7.61,10.18,12.66,18.32,12.66Z"/>
      <path d="M590.75,275.29c7.61,1.35,7.19,10.48-8.32,11.8-2.23,.19-3.85,2.35-5.32,4.04-3.77,4.34-5.41,10.19-5.78,15.91-.35,5.72,.46,11.47,1,17.17,.55,5.72,.83,11.57-.56,17.14-2.16,8.67-8.52,16.19-16.72,19.76s-18.04,3.09-25.85-1.23c-7.81-4.32-11.84-12.8-13.17-21.64,5.1,1.34,10.69,.61,15.28-1.97,4.6-2.56,8.11-6.99,9.63-12.03,1.51-5.08,1.02-10.52,.03-15.72-.98-5.21-2.42-10.34-2.78-15.63-.35-5.29,.49-10.87,3.67-15.1,3.58-4.74,9.57-7.1,15.42-8.13,8.43-1.49,17.24-.67,25.29,2.25,2.11,.77,4.11,1.74,6.13,2.72,.92,.44,1.52,.65,2.06,.65Z"/>
    </g>
  </g>
  <path d="M610.85,480.38c-34.26,0-66.27-13.71-90.13-38.6-22.91-23.88-35.53-55.38-35.53-88.68,0-70.19,56.37-127.31,125.66-127.31s125.66,57.11,125.66,127.31c0,33.3-12.62,64.8-35.53,88.68-23.87,24.89-55.88,38.6-90.13,38.6Zm0-251.39c-67.55,0-122.49,55.67-122.49,124.1,0,32.46,12.3,63.17,34.63,86.45,23.26,24.27,54.47,37.63,87.86,37.63s64.6-13.36,87.87-37.63c22.33-23.29,34.63-53.98,34.63-86.45,0-68.43-54.96-124.1-122.5-124.1Z"/>
  <ellipse cx="564.81" cy="343.62" rx="3.14" ry="3.18"/>
  <ellipse cx="587.05" cy="353.53" rx="3.14" ry="3.18"/>
  <path d="M578.44,375.55c-.24,0-.49-.05-.71-.18-.78-.4-1.09-1.37-.69-2.15,1.41-2.79,3.57-4.78,6.08-5.6,2.1-.68,4.25-.5,6.22,.53,.77,.41,1.08,1.37,.68,2.16-.4,.78-1.35,1.1-2.13,.69-1.21-.63-2.52-.74-3.81-.32-1.71,.56-3.21,1.98-4.24,4.01-.28,.55-.83,.87-1.41,.87Zm-10.17-10.95c-.18,0-.37,0-.55-.02-1.7-.12-3.74-.96-4.36-2.97-.41-1.31,0-2.58,.39-3.53,.97-2.32,2.7-4.05,4.39-5.72,.6-.6,1.2-1.19,1.75-1.8,1.69-1.89,2.42-4.13,2.18-6.66-.33-3.44-2.36-6.3-3.37-7.07-1.85-1.41-4.7-3.03-7.7-2.74-.91,.05-1.64-.56-1.72-1.45-.08-.88,.56-1.66,1.43-1.74,3.15-.3,6.59,.86,9.89,3.37,1.95,1.47,4.23,5.24,4.62,9.32,.32,3.41-.7,6.56-2.98,9.11-.59,.66-1.23,1.3-1.88,1.94-1.53,1.52-2.96,2.95-3.69,4.68-.1,.24-.41,.98-.29,1.34,.11,.36,.79,.67,1.56,.73,2.29,.18,4.59-1.25,5.49-3.38,.35-.81,1.29-1.18,2.08-.83,.8,.35,1.16,1.3,.82,2.11-1.36,3.14-4.68,5.3-8.06,5.3Z"/>
  <path class="cls-3" d="M629.85,349.42c.56-2.98,3.4-4.93,6.34-4.36"/>
  <g>
    <path class="cls-5" d="M741.23,246.19c0,9.19-3.24,17.63-8.61,24.17-6.86,8.36-17.19,13.68-28.76,13.68s-21.91-5.31-28.77-13.68c-5.38-6.55-8.61-14.98-8.61-24.17,0-20.91,16.74-37.87,37.38-37.87s37.37,16.96,37.37,37.87Z"/>
    <path d="M703.86,285.64c-11.62,0-22.55-5.19-29.99-14.26-5.79-7.05-8.98-16-8.98-25.2,0-21.76,17.48-39.47,38.97-39.47s38.95,17.71,38.95,39.47c0,9.19-3.19,18.14-8.97,25.2-7.44,9.06-18.36,14.26-29.98,14.26Zm0-75.73c-19.75,0-35.8,16.27-35.8,36.27,0,8.45,2.93,16.67,8.25,23.15,6.83,8.33,16.87,13.1,27.55,13.1s20.71-4.77,27.54-13.1c5.32-6.48,8.25-14.71,8.25-23.15,0-20-16.06-36.27-35.79-36.27Z"/>
    <path d="M699.25,254.06c-.06,0-.12,0-.18-.01-.42-.05-.81-.27-1.07-.61l-6.05-7.91c-.54-.7-.41-1.7,.28-2.25s1.69-.41,2.22,.28l5.06,6.61,14-11.54c.68-.56,1.67-.45,2.22,.23s.45,1.69-.23,2.25l-15.26,12.57c-.29,.24-.64,.36-1.01,.36Z"/>
  </g>
  <g>
    <path class="cls-4" d="M623.9,901.48l9.6,32.49c.84,2.83-1.25,5.68-4.17,5.68h-36.95c-2.91,0-5.01-2.85-4.17-5.68l9.6-32.47c-10.18-5.22-16.92-16.39-15.7-29.04,1.3-13.54,12.05-24.61,25.4-26.12,17.45-1.97,32.21,11.8,32.21,29.06,0,11.41-6.44,21.27-15.82,26.09Z"/>
    <path d="M629.33,941.25h-36.95c-1.89,0-3.63-.88-4.76-2.42-1.13-1.54-1.47-3.47-.92-5.31l9.23-31.21c-10.57-6-16.58-17.63-15.39-29.99,1.38-14.37,12.65-25.95,26.8-27.55,8.81-1,17.27,1.73,23.81,7.66,6.45,5.85,10.15,14.23,10.15,22.98,0,11.24-5.91,21.42-15.52,26.88l9.23,31.24c.54,1.84,.21,3.77-.92,5.31-1.13,1.55-2.86,2.43-4.75,2.43Zm-18.46-93.49c-1.05,0-2.12,.06-3.19,.18-12.67,1.43-22.77,11.81-24.01,24.68-1.1,11.49,4.72,22.27,14.85,27.46,.68,.35,1.02,1.15,.8,1.88l-9.6,32.47c-.25,.86-.1,1.76,.43,2.49,.53,.72,1.34,1.13,2.22,1.13h36.95c.89,0,1.7-.41,2.23-1.13,.52-.72,.69-1.63,.43-2.48l-9.6-32.49c-.22-.74,.12-1.53,.8-1.88,9.23-4.73,14.95-14.18,14.95-24.66,0-7.85-3.32-15.36-9.1-20.6-5.07-4.6-11.43-7.05-18.17-7.05Z"/>
  </g>
  <g>
    <path class="cls-7" d="M1041.2,34.88c5.23-1.01,10.06,3.11,10.06,8.5V216.15c0,9.94-4.78,19.27-12.82,25.06l-109.34,78.68c-2.96,2.13-6.92,2.13-9.88,0l-109.36-78.68c-8.05-5.79-12.83-15.12-12.83-25.07V43.37c0-5.39,4.83-9.51,10.06-8.5,68.85,13.24,98.85-8.8,110.53-22.86,3.4-4.1,9.62-4.16,13.02-.06,11.64,14.06,41.63,36.19,110.55,22.93Z"/>
    <path d="M924.16,323.09c-2.05,0-4.1-.63-5.85-1.89l-109.36-78.68c-8.45-6.08-13.49-15.94-13.49-26.37V43.38c0-3.07,1.34-5.95,3.67-7.91,2.31-1.94,5.33-2.72,8.27-2.16,67.89,13.06,97.44-8.38,109.02-22.32,1.94-2.34,4.78-3.68,7.78-3.68h.01c2.96,0,5.75,1.32,7.65,3.62,11.56,13.97,41.11,35.46,109.05,22.38,2.95-.56,5.95,.22,8.26,2.16,2.34,1.96,3.67,4.84,3.67,7.91V216.16c0,10.43-5.05,20.29-13.49,26.37l-109.34,78.68c-1.76,1.25-3.81,1.88-5.86,1.88ZM805.53,36.33c-1.58,0-3.13,.56-4.38,1.61-1.61,1.35-2.53,3.33-2.53,5.44V216.15c0,9.4,4.55,18.28,12.16,23.76l109.36,78.68c2.41,1.73,5.65,1.73,8.05,0l109.34-78.68c7.61-5.48,12.16-14.36,12.16-23.76V43.38c0-2.11-.92-4.09-2.53-5.44-1.58-1.33-3.64-1.87-5.66-1.48h0c-69.52,13.37-100.06-8.97-112.06-23.47-1.3-1.57-3.21-2.47-5.24-2.47h0c-2.07,0-4.02,.93-5.36,2.54-12.02,14.48-42.55,36.77-112.03,23.41-.43-.09-.86-.13-1.28-.13Zm235.67-1.45h0Z"/>
  </g>
  <g>
    <path class="cls-4" d="M982.13,154.8c0,15-5.28,28.75-14.05,39.44-11.19,13.64-28.05,22.32-46.92,22.32s-35.74-8.67-46.94-22.32c-8.77-10.68-14.05-24.44-14.05-39.44,0-34.12,27.31-61.79,60.99-61.79s60.97,27.66,60.97,61.79Z"/>
    <path d="M921.16,218.16c-18.66,0-36.21-8.34-48.15-22.89-9.29-11.33-14.41-25.7-14.41-40.46,0-34.95,28.07-63.39,62.57-63.39s62.55,28.44,62.55,63.39c0,14.76-5.12,29.13-14.41,40.46-11.94,14.55-29.49,22.89-48.14,22.89Zm0-123.54c-32.76,0-59.41,27-59.41,60.19,0,14.02,4.86,27.66,13.68,38.41,11.34,13.81,28,21.74,45.73,21.74s34.37-7.92,45.7-21.74c8.83-10.76,13.68-24.4,13.68-38.41,0-33.19-26.64-60.19-59.39-60.19Z"/>
  </g>
  <g>
    <path class="cls-7" d="M911.85,175.24c-.29,0-.58-.02-.87-.05-2.04-.24-3.92-1.3-5.17-2.95l-12.23-15.98c-2.59-3.38-1.98-8.25,1.36-10.87,3.33-2.62,8.14-2.02,10.73,1.38l7.44,9.72,24.76-20.4c3.28-2.7,8.09-2.2,10.76,1.12,2.67,3.32,2.17,8.2-1.11,10.9l-30.83,25.4c-1.37,1.13-3.07,1.74-4.82,1.74Z"/>
    <path d="M911.85,176.84c-.36,0-.71-.02-1.06-.06-2.44-.28-4.72-1.58-6.23-3.56l-12.23-15.98c-1.51-1.97-2.17-4.42-1.87-6.9,.31-2.48,1.55-4.68,3.5-6.21,1.95-1.53,4.38-2.21,6.83-1.89,2.44,.31,4.62,1.58,6.13,3.55l6.45,8.42,23.5-19.37c1.91-1.58,4.33-2.3,6.77-2.05,2.45,.26,4.66,1.46,6.21,3.4,1.56,1.93,2.27,4.37,2.02,6.85s-1.44,4.72-3.36,6.3l-30.83,25.4c-1.65,1.35-3.72,2.1-5.82,2.1Zm-12.24-31.48c-1.34,0-2.63,.45-3.71,1.29-1.28,1.01-2.1,2.45-2.3,4.08-.21,1.63,.23,3.24,1.23,4.54l12.23,15.98c.99,1.3,2.49,2.15,4.1,2.34,1.67,.2,3.26-.31,4.52-1.34l30.83-25.4c1.26-1.04,2.04-2.51,2.21-4.14,.17-1.63-.3-3.23-1.33-4.5-1.02-1.28-2.48-2.07-4.08-2.24-1.62-.18-3.19,.31-4.45,1.35l-26.01,21.43-8.43-11.01c-.99-1.3-2.42-2.13-4.02-2.33-.26-.03-.52-.05-.78-.05Z"/>
  </g>
  <g>
    <path class="cls-7" d="M244.43,194.64l4.79,27.2-24.03-12.27c-1.75,.98-3.57,1.9-5.41,2.73-39.95,18.28-86.92,.26-104.95-40.19-18.02-40.43-.31-88.05,39.63-106.3,39.91-18.26,86.91-.26,104.93,40.15,13.73,30.77,6.74,65.69-14.95,88.68Z"/>
    <path d="M249.22,223.54c-.26,0-.51-.06-.75-.18l-23.25-11.87c-1.58,.86-3.18,1.65-4.76,2.37-19.71,9.02-41.73,9.72-61.96,1.97-20.23-7.75-36.28-23.02-45.19-43-8.9-19.97-9.6-42.26-1.96-62.76,7.64-20.51,22.71-36.77,42.43-45.78,40.69-18.61,88.75-.23,107.13,41,13.57,30.41,7.79,65.61-14.68,89.92l4.64,26.36c.11,.63-.14,1.27-.64,1.65-.3,.21-.64,.32-1,.32Zm-24.03-15.65c.26,0,.51,.06,.75,.18l21.05,10.75-4.2-23.87c-.09-.53,.07-1.08,.43-1.46,22.01-23.33,27.76-57.41,14.64-86.82-17.63-39.52-63.71-57.16-102.72-39.31-18.91,8.64-33.36,24.23-40.68,43.89-7.32,19.65-6.65,41.03,1.88,60.17,8.54,19.16,23.92,33.8,43.32,41.23,19.41,7.43,40.51,6.76,59.42-1.89,1.76-.8,3.54-1.7,5.3-2.68,.25-.13,.52-.2,.8-.2Z"/>
  </g>
  <g>
    <path class="cls-4" d="M186.58,164.03c-3.62,0-6.65-2.86-6.88-6.56l-.29-4.77c-.41-6.87,3.76-13.1,10.37-15.52,6.49-2.37,10.68-8.91,10.19-15.9-.58-8.24-8.03-14.95-16.11-14.57-4.2,.18-8.06,2.01-10.86,5.16-2.81,3.16-4.22,7.23-3.97,11.47,.23,3.85-2.66,7.16-6.46,7.39-3.82,.24-7.07-2.7-7.3-6.55-.48-8.01,2.18-15.71,7.49-21.67,5.31-5.96,12.6-9.43,20.52-9.76,15.67-.61,29.34,11.69,30.44,27.55,.92,13.2-7,25.54-19.27,30.02-.67,.24-1.33,.82-1.29,1.54l.29,4.77c.23,3.85-2.66,7.16-6.46,7.39-.14,0-.28,.01-.42,.01Z"/>
    <path d="M186.58,165.72c-4.52,0-8.27-3.58-8.54-8.15l-.29-4.77c-.46-7.62,4.15-14.54,11.47-17.21,5.79-2.12,9.53-7.95,9.1-14.19-.51-7.26-7.17-13.39-14.37-13-3.75,.16-7.2,1.8-9.71,4.61-2.51,2.82-3.77,6.45-3.54,10.23,.29,4.77-3.32,8.89-8.03,9.18-2.27,.16-4.49-.62-6.2-2.17-1.71-1.53-2.72-3.65-2.86-5.97-.51-8.47,2.31-16.6,7.92-22.9,5.61-6.3,13.32-9.97,21.69-10.32,16.56-.66,31.01,12.42,32.17,29.11,.98,13.95-7.4,27-20.37,31.73-.07,.02-.13,.06-.18,.09l.27,4.53c.14,2.31-.62,4.54-2.14,6.27-1.51,1.73-3.61,2.76-5.89,2.91-.16,.01-.34,.02-.51,.02Zm-2.04-60.72c8.74,0,16.48,7.24,17.11,16.16,.54,7.75-4.1,14.98-11.29,17.6-5.92,2.16-9.64,7.72-9.28,13.83l.29,4.77c.17,2.79,2.45,4.98,5.21,4.98h.32c1.4-.09,2.68-.73,3.6-1.79,.92-1.06,1.39-2.42,1.31-3.83l-.29-4.77c-.08-1.38,.88-2.68,2.39-3.23,11.57-4.23,19.05-15.87,18.17-28.31-1.04-14.9-13.87-26.56-28.71-25.98-7.47,.32-14.34,3.59-19.35,9.21-5,5.62-7.51,12.88-7.06,20.44,.09,1.42,.7,2.71,1.75,3.64,1.04,.94,2.39,1.41,3.79,1.32,1.4-.08,2.67-.72,3.59-1.77,.92-1.06,1.39-2.42,1.31-3.83-.28-4.69,1.28-9.21,4.39-12.7,3.11-3.49,7.38-5.52,12.03-5.72,.24,0,.48-.01,.73-.01Z"/>
  </g>
  <g>
    <path class="cls-4" d="M188.18,187.8c-3.62,0-6.65-2.86-6.88-6.56l-.14-2.32c-.23-3.85,2.66-7.16,6.46-7.39,3.84-.23,7.07,2.7,7.3,6.55l.14,2.32c.23,3.85-2.66,7.16-6.46,7.39-.14,0-.29,.01-.42,.01Z"/>
    <path d="M188.18,189.49c-4.52,0-8.27-3.58-8.54-8.15l-.14-2.32c-.14-2.31,.62-4.54,2.14-6.28s3.61-2.76,5.89-2.91c4.74-.22,8.78,3.36,9.06,8.13l.14,2.32c.29,4.77-3.32,8.9-8.03,9.19-.18,.01-.35,.02-.52,.02Zm-.13-16.29c-.11,0-.21,0-.32,.01-1.39,.08-2.67,.72-3.59,1.77s-1.39,2.42-1.31,3.83l.14,2.32c.17,2.79,2.45,4.98,5.21,4.98h.32c2.88-.18,5.08-2.71,4.9-5.62l-.14-2.32c-.16-2.8-2.47-4.98-5.21-4.98Z"/>
  </g>
  <g>
    <path class="cls-3" d="M321.25,327.66l-5.24,1.98v5.56c0,9.24-7.27,16.78-16.41,17.13l-.42,18.93-43.53-5.92v-23.6h-9.24v-66.46s50.95-8.86,65.25,1.56c12.1,8.82,5.54,31.54,5.54,31.54l6.67,12.16c1.49,2.67,.26,6.03-2.61,7.12Z"/>
    <path d="M299.18,372.88c-.07,0-.15,0-.22-.02l-43.53-5.92c-.8-.11-1.4-.8-1.4-1.61v-21.98h-7.62c-.9,0-1.62-.72-1.62-1.62v-66.46c0-.79,.57-1.47,1.35-1.6,2.1-.36,51.79-8.85,66.48,1.85,11.83,8.62,7.35,28.67,6.32,32.64l6.36,11.59c.93,1.67,1.09,3.68,.43,5.48-.66,1.81-2.08,3.25-3.9,3.93h0l-4.19,1.58v4.44c0,9.62-7.11,17.52-16.44,18.63l-.39,17.46c-.01,.46-.22,.9-.57,1.2-.3,.25-.68,.39-1.06,.39Zm-41.91-8.96l40.32,5.48,.38-17.11c.02-.86,.7-1.55,1.56-1.59,8.32-.31,14.85-7.13,14.85-15.51v-5.56c0-.67,.42-1.28,1.05-1.52l5.24-1.98c.93-.35,1.66-1.09,1.99-2.02,.34-.92,.26-1.94-.22-2.8l-6.68-12.17c-.21-.38-.26-.82-.13-1.23,.06-.22,6.1-21.73-4.93-29.77-12.33-8.99-54.57-2.79-62.67-1.49v63.45h7.62c.9,0,1.62,.72,1.62,1.62v22.19h0Zm63.97-36.26h0Z"/>
    <path class="cls-3" d="M83,686.32c8.59,28.13,23.85,26.65,16.6,.6,.23,.78,.47,1.56,.7,2.39,7.56,29.46,27.23,25.19,17.38-4.12,.04,.06,.04,.13,.09,.19,8.93,31.81,32.22,25.13,17.63-9.86-1.13-2.71,9.32,26.02,21,19.17,10.51-6.15-3.99-29.44-9.13-43.02,10.19,1.16,19.78,.05,19.64-8.3-.28-16.78-31.38-24.1-34.44-24.77l-29.54-93.31,27.83-19.06-40.68-69.63-57.05,37.33c-11.62,7.6-16.56,22.13-11.98,35.24,18.18,51.96,61.82,176.72,61.95,177.14Z"/>
    <path d="M114.51,711.02c-.57,0-1.15-.07-1.75-.22-3.55-.9-6.97-4.38-9.77-9.67-.42,3.94-1.93,6.51-4.48,7.25-5.75,1.68-12.61-6.99-17.06-21.56-.46-1.35-23.01-65.84-61.93-177.1-4.84-13.84,.35-29.1,12.62-37.13l57.05-37.33c.38-.24,.84-.33,1.26-.22,.43,.1,.8,.38,1.03,.76l40.68,69.63c.43,.74,.22,1.68-.48,2.16l-26.84,18.38,28.89,91.28c6.34,1.49,34.51,9.08,34.79,26.11,.05,2.87-.89,5.2-2.8,6.93-2.99,2.71-8.35,3.81-15.97,3.26,.99,2.36,2.18,4.96,3.42,7.66,6.31,13.77,13.48,29.37,4.04,34.9-2.54,1.48-6.59,2.42-11.48-1.56-1.52-1.23-3.03-2.92-4.45-4.81,1.02,6.65,.25,11.96-2.37,15.11-1.82,2.2-4.37,3.08-7.17,2.49-3.47-.74-6.85-3.61-9.74-8.08,.02,4.27-.94,7.63-2.87,9.71-1.25,1.36-2.85,2.07-4.6,2.07Zm-14.91-25.73c.7,0,1.35,.45,1.55,1.16l.71,2.4c3.21,12.51,8.31,17.93,11.7,18.79,1.26,.32,2.33,.01,3.18-.91,2.03-2.19,3.17-8.29,.19-18.52-.19-.57-.36-1.16-.54-1.75-.08-.25-.16-.51-.25-.76-.26-.76,.08-1.59,.79-1.96,.7-.36,1.58-.16,2.05,.48,.07,.1,.16,.26,.22,.4,.05,.1,.1,.2,.12,.31,.06,.19,.11,.39,.16,.57,.2,.61,.38,1.21,.55,1.8,3.62,11.2,8.84,16.08,12.37,16.83,1.61,.34,2.95-.12,4-1.38,2.44-2.94,3.41-10.75-1.26-23.44-.52-1.14-.91-2.14-1.15-2.93-.03-.08-.07-.17-.11-.26l.03-.02c-.17-.62-.23-1.08-.15-1.31,.21-.64,.8-1.08,1.48-1.11,.67-.03,1.38,.56,1.64,1.18,.34,.8,.65,1.6,.95,2.39,2.1,4.7,7.17,14.31,12.76,16.44,1.73,.66,3.36,.52,4.97-.43,6.9-4.04,.11-18.84-5.35-30.74-1.71-3.72-3.32-7.23-4.48-10.3-.2-.53-.11-1.12,.24-1.57,.35-.45,.94-.68,1.47-.62,7.97,.9,13.53,.15,16.1-2.18,1.2-1.09,1.77-2.55,1.73-4.47-.26-15.87-31.82-22.91-33.16-23.21-.57-.12-1.03-.54-1.2-1.09l-29.54-93.31c-.21-.68,.04-1.43,.63-1.83l26.58-18.21-39.06-66.85-55.62,36.4c-11.02,7.21-15.68,20.92-11.33,33.34,40.95,117.07,61.8,176.68,61.97,177.2h0c4.43,14.54,10.42,20.17,13.05,19.41,1.94-.57,3.77-5.92,.43-17.9-.24-.86,.26-1.75,1.11-1.99,.15-.04,.3-.06,.45-.06Z"/>
    <polygon class="cls-6" points="331.67 575 482.01 979.34 335.69 979.34 265.59 717.94 284.71 979.34 153.6 979.34 157.57 575 331.67 575"/>
    <path d="M482.01,980.97h-146.31c-.74,0-1.38-.49-1.57-1.2l-65.67-244.87,17.87,244.33c.03,.45-.12,.89-.43,1.22-.31,.33-.74,.52-1.19,.52H153.6c-.43,0-.85-.17-1.16-.48-.3-.31-.47-.72-.47-1.16l3.98-404.35c.01-.89,.74-1.61,1.62-1.61h174.09c.68,0,1.29,.42,1.52,1.06l150.34,404.35c.19,.5,.11,1.06-.19,1.49-.3,.43-.8,.69-1.33,.69Zm-145.07-3.24h142.73l-149.13-401.1H159.18l-3.95,401.1h127.72l-18.99-259.67c-.06-.84,.52-1.58,1.35-1.72,.83-.13,1.62,.37,1.84,1.18l69.78,260.21Z"/>
    <path d="M427,946.82h-98.66c-.9,0-1.62-.72-1.62-1.62s.73-1.62,1.62-1.62h98.66c.9,0,1.62,.72,1.62,1.62s-.72,1.62-1.62,1.62Zm-192.55,6.05h-80.63c-.9,0-1.62-.72-1.62-1.62s.73-1.62,1.62-1.62h80.62c.9,0,1.62,.72,1.62,1.62s-.72,1.62-1.62,1.62Z"/>
    <path class="cls-7" d="M155.48,1055.95h169.24v-9.25c0-11.57-6.63-21.75-16.27-25.07l-.13-.05-37.51-12.85-11.91-17.34c-2.09-3.08-5.29-4.84-8.68-4.84-3.1,0-6.02,1.46-8.11,4.06-6.37,7.94-21.75,24.7-37.91,25.1-21.2,.53-29.91-20.86-29.91-20.86-28.77,16.72-18.82,61.12-18.82,61.12Z"/>
    <path d="M324.74,1057.58H155.49c-.76,0-1.42-.53-1.58-1.27-.42-1.86-9.87-45.76,19.59-62.87,.41-.24,.9-.28,1.34-.13,.44,.15,.8,.49,.98,.92,.08,.2,8.37,19.87,27.66,19.87,.24,0,.47,0,.71-.01,15.68-.39,30.88-17.26,36.68-24.49,2.38-2.96,5.8-4.66,9.37-4.66,3.97,0,7.62,2.02,10.02,5.55l11.6,16.89,37.01,12.68c10.52,3.64,17.5,14.33,17.5,26.66v9.25c0,.89-.74,1.62-1.63,1.62Zm-167.91-3.24h166.29v-7.62c0-10.78-6.24-20.45-15.18-23.54l-37.64-12.9c-.33-.11-.62-.33-.81-.62l-11.91-17.34c-1.79-2.63-4.46-4.14-7.34-4.14-2.62,0-5.05,1.22-6.84,3.45-6.09,7.58-22.09,25.28-39.14,25.7-.27,0-.54,.01-.8,.01-17.88,0-27.17-15.02-29.83-20.17-23.01,14.94-18.07,50.04-16.79,57.17Z"/>
    <path d="M194.51,1057.58c-.9,0-1.62-.72-1.62-1.62,0-20.09-15.04-36.79-34.98-38.85-.89-.09-1.54-.89-1.45-1.78,.1-.89,.87-1.54,1.78-1.45,21.61,2.23,37.89,20.33,37.89,42.09,0,.89-.72,1.62-1.62,1.62Z"/>
    <path class="cls-7" d="M299.17,1044.03c0,4.26,.79,8.29,2.22,11.92h23.35v-9.25c0-11.57-6.63-21.75-16.27-25.07l-.13-.05c-5.6,5.38-9.16,13.44-9.16,22.46Z"/>
    <path d="M324.74,1057.58h-23.35c-.67,0-1.27-.41-1.51-1.03-1.54-3.93-2.33-8.14-2.33-12.51,0-9.13,3.52-17.74,9.66-23.63,.45-.44,1.12-.57,1.71-.34,10.46,3.61,17.45,14.31,17.45,26.64v9.25c0,.89-.74,1.62-1.63,1.62Zm-22.22-3.24h20.59v-7.62c0-10.45-5.87-19.87-14.38-23.24-5.06,5.25-7.94,12.68-7.94,20.57,0,3.58,.58,7.04,1.72,10.29Zm-19.45-25.92c-.24,0-.48-.05-.71-.16-.81-.39-1.15-1.36-.75-2.17l5.7-11.74c.39-.8,1.36-1.15,2.17-.75,.81,.39,1.15,1.36,.75,2.17l-5.7,11.74c-.28,.58-.85,.92-1.46,.92Zm-8.93-3.43c-.24,0-.48-.05-.71-.16-.81-.39-1.15-1.36-.75-2.17l5.7-11.74c.39-.8,1.36-1.14,2.17-.75,.81,.39,1.15,1.36,.75,2.17l-5.7,11.74c-.28,.58-.86,.92-1.46,.92Zm-8.82-2.44c-.24,0-.48-.05-.71-.16-.81-.39-1.15-1.36-.75-2.17l5.7-11.74c.39-.81,1.36-1.15,2.17-.75s1.15,1.36,.75,2.17l-5.7,11.74c-.28,.58-.86,.92-1.46,.92Z"/>
    <path d="M273.86,1010.34c-4.78,0-7.32-8.5-7.32-14.64,0-7.95,3.94-10.77,7.32-10.77s7.32,2.82,7.32,10.77c0,6.14-2.54,14.64-7.32,14.64Zm0-22.17c-2.48,0-4.07,2.95-4.07,7.53,0,6.07,2.54,11.39,4.07,11.39s4.07-5.32,4.07-11.39c0-4.57-1.59-7.53-4.07-7.53Z"/>
    <path d="M279.16,1011.46c-1.23,0-2.27-.35-3.05-1.06-1.61-1.46-1.81-4.15-.58-7.58,1.01-2.8,2.83-5.78,5.02-8.17h0c2.19-2.41,4.43-3.9,6.67-4.45,2.27-.55,4.4-.05,5.99,1.4,1.59,1.45,2.29,3.53,1.96,5.83-.33,2.28-1.61,4.66-3.79,7.06-2.18,2.4-4.97,4.5-7.66,5.76-1.7,.8-3.24,1.2-4.55,1.2Zm9.83-18.23c-.31,0-.65,.04-1,.13-1.09,.26-2.86,1.08-5.04,3.47h0c-1.87,2.06-3.51,4.72-4.37,7.09-.81,2.25-.72,3.69-.29,4.08,.42,.39,1.87,.34,4.03-.67,2.28-1.08,4.77-2.95,6.65-5.01,2.17-2.39,2.82-4.22,2.99-5.34,.18-1.24-.13-2.24-.93-2.96-.57-.52-1.25-.77-2.04-.77Zm-7.24,2.51h0Z"/>
    <path class="cls-3" d="M174.64,995.6c1.8,3.81,10.78,20.59,29.58,20.11,16.17-.4,31.54-17.16,37.91-25.1,2.09-2.59,5.01-4.06,8.11-4.06,1.43,0,2.83,.33,4.13,.93l.26-8.25h-81.8l1.81,16.36Z"/>
    <path d="M203.44,1017.34c-19.32,0-28.59-17.5-30.27-21.05-.08-.16-.13-.34-.15-.52l-1.81-16.36c-.05-.46,.1-.92,.4-1.26s.75-.54,1.21-.54h81.8c.44,0,.86,.18,1.17,.49,.3,.31,.47,.74,.45,1.18l-.26,8.25c-.02,.54-.31,1.04-.77,1.33s-1.04,.32-1.54,.09c-3.58-1.67-7.69-.55-10.28,2.67-6.09,7.58-22.09,25.28-39.14,25.7-.27,.02-.54,.02-.82,.02Zm-27.22-22.19c1.84,3.77,10.4,19.37,27.96,18.94,15.69-.39,30.88-17.26,36.68-24.49,2.96-3.69,7.63-5.39,11.94-4.36l.13-4.37h-78.3l1.58,14.28Z"/>
    <g>
      <path class="cls-3" d="M474.98,987.09c-2.35,.56-4.46,1.82-6.12,3.62-7.32,7.94-24.95,24.7-43.5,25.1-24.31,.54-34.32-20.86-34.32-20.86-.06,.02-.1,.06-.16,.08l-7.49-15.69h87.86l3.73,7.75Z"/>
      <path d="M424.47,1017.44c-21.89,0-32.49-17.35-34.53-21.1-.21-.15-.39-.36-.52-.62l-7.49-15.69c-.24-.51-.21-1.09,.09-1.57,.3-.47,.81-.76,1.38-.76h87.86c.62,0,1.19,.36,1.47,.92l3.74,7.75c.21,.44,.21,.96,0,1.4-.21,.44-.61,.77-1.09,.88-2.02,.48-3.85,1.57-5.31,3.14-6.97,7.56-25.28,25.2-44.66,25.62-.31,.01-.62,.01-.93,.01Zm-32.43-23.77c.2,.15,.36,.35,.47,.6,.39,.84,9.9,20.42,32.82,19.93,18.14-.4,35.66-17.32,42.34-24.58,1.43-1.55,3.15-2.73,5.05-3.5l-2.49-5.15h-84.27l6.07,12.7Z"/>
    </g>
    <g>
      <polygon points="265.59 717.94 241.06 615.19 271.16 794.21 265.59 717.94"/>
      <path d="M271.16,795.84c-.78,0-1.47-.57-1.6-1.35l-30.1-179.02c-.15-.86,.42-1.68,1.27-1.86,.86-.17,1.7,.36,1.9,1.21l24.52,102.73c.02,.08,.03,.17,.04,.26l5.58,76.28c.06,.86-.57,1.63-1.43,1.73-.06,.01-.13,.02-.2,.02Zm-20.55-133.64l16.4,97.55-3.04-41.57-13.36-55.99Z"/>
    </g>
    <g>
      <path class="cls-3" d="M428.98,397.27l8.48-4.67,116.1-78.64,41.07,54.89-137.49,96.83c-16.52,18.31-109.2,1.53-109.2,1.53l50.72-72.27,30.32,2.33Z"/>
      <path d="M345.58,469.32c-.4-.25-.66-.65-.74-1.11-.08-.46,.05-.93,.34-1.29l53.11-73.85c.52-.64,1.42-.81,2.13-.35l28.22,3.28,115.22-78.05c.73-.49,1.69-.32,2.21,.38l41.07,54.89c.26,.35,.37,.79,.3,1.23s-.31,.82-.67,1.07l-131.78,92.81c-5.66,3.98-12.25,6.48-19.14,7.07-29.75,2.57-90.27-6.07-90.27-6.07Zm3.29-1.77s83.98,10.73,98.55,2.14l136.13-95.87-39.14-52.31-114.82,77.77c-.54,.36-1.24,.38-1.78,.03l-27.9-3.08-51.04,71.32Z"/>
    </g>
    <g>
      <path class="cls-3" d="M543.77,321.68c1.53-4.02,13.62-34.24,29.54-32.26,6.76,.84,7.72,7.57,6.39,15.43,19.62-7.07,41.38-12.78,47-5.86,10.81,13.29-29.76,26.04-29.76,26.04v.05c.17-.06,.24-.08,.24-.08,17.01-4.1,23.1,13.2,10.11,17.77-.08,.02-.15,.06-.23,.08,12.84,2.8,12.12,17.41,1.64,17.38-.83,.12-1.65,.25-2.45,.35,23.74,13.79-23.29,32.18-46.74,20.14"/>
      <path d="M558.73,382.15c-.77-.42-1.07-1.38-.67-2.17,.41-.8,1.39-1.11,2.19-.7,16.47,8.45,45.32,.91,50.21-8.04,1.75-3.19,.06-6.31-5.03-9.26-.6-.35-.91-1.04-.78-1.73,.13-.68,.69-1.2,1.39-1.29,.76-.1,1.56-.22,2.35-.34,.08-.01,.22-.03,.3-.03,4.2,.02,5.99-2.61,6.26-5.06,.38-3.43-2.04-7.74-8.25-9.1-.73-.16-1.24-.78-1.28-1.52-.03-.74,.44-1.4,1.15-1.62l.22-.08c5.48-1.93,6.43-6.02,5.58-8.92-1.23-4.18-6.4-7.75-14.82-5.72-.43,.16-.91,.15-1.32-.05-.42-.21-.72-.55-.85-.99-.25-.85,.21-1.79,1.06-2.06,7.59-2.39,27.82-10.34,30.23-18.37,.53-1.75,.12-3.42-1.25-5.09-2.34-2.88-11.31-5.85-45.19,6.36-.55,.19-1.15,.1-1.59-.28-.44-.37-.65-.95-.56-1.52,.91-5.35,.55-9.31-1.05-11.46-.88-1.19-2.18-1.87-3.93-2.09-14.75-1.83-26.52,27.84-27.82,31.23-.32,.84-1.26,1.26-2.1,.94-.83-.31-1.26-1.26-.94-2.1,2.27-5.93,14.41-35.39,31.25-33.3,2.65,.33,4.72,1.46,6.14,3.37,1.85,2.48,2.53,6.26,2.01,11.24,26.12-9.18,41.27-10.64,46.29-4.46,2.06,2.54,2.68,5.25,1.83,8.08-2.2,7.32-14.61,13.61-23.41,17.24,4.81,1.2,8.04,4.41,9.12,8.09,1.07,3.64,.05,8.25-4.22,11.2,5.33,2.59,7.35,7.34,6.92,11.32-.38,3.51-2.86,7.05-7.54,7.81,5.05,4.43,3.95,8.72,2.66,11.1-6.15,11.26-37.01,18.36-54.54,9.37,0,0,0-.01-.02-.02Z"/>
    </g>
    <path d="M365.09,579.42l-32.41-102.1h51.42l19.24-93.32-219.38-5.23c-6.84-.16-13.6,1.45-19.62,4.68l-88.8,47.59,45.28,84.61,36.18-25.5-23.15,89.27h231.23Z"/>
    <polygon points="239.75 380.76 246.54 363.03 312.14 367.19 319.16 384.72 239.75 380.76"/>
    <path d="M299.6,353.95h-8.9c-.9,0-1.62-.72-1.62-1.62s.73-1.62,1.62-1.62h8.9c.9,0,1.62,.72,1.62,1.62s-.73,1.62-1.62,1.62Z"/>
    <g>
      <path class="cls-4" d="M147.27,651.68s-24.88,7.77-33.01-10.51"/>
      <path d="M135.62,654.89c-8.11,0-18.11-2.41-22.85-13.06-.36-.82,0-1.78,.83-2.14,.81-.36,1.78,0,2.14,.83,7.44,16.74,30.09,9.92,31.05,9.62,.84-.26,1.76,.21,2.03,1.07,.26,.85-.21,1.76-1.07,2.03-.12,.03-5.48,1.66-12.13,1.66Z"/>
    </g>
    <path d="M339.28,597.1H157.37c-.9,0-1.62-.72-1.62-1.62s.73-1.62,1.62-1.62h181.91c.9,0,1.62,.72,1.62,1.62s-.72,1.62-1.62,1.62Z"/>
    <path d="M255.05,344.6h.01c13.77,0,24.36-11.96,22.98-25.66-.8-7.98-.56-15.02,3-17.19,12.84-7.82,9.36,16.28,10.7,17.55,5.6,5.29,22.4-27.56,22.4-27.56l3.83-7.26c9.92-29.83-33.25-30.92-64.68-27.39-40.41,4.54-28.96,48.73-19.88,72.56,3.43,8.99,12.02,14.95,21.64,14.95Z"/>
    <path d="M237.25,272.42c8.98,1.59,8.49,12.38-9.83,13.94-2.63,.22-4.54,2.78-6.29,4.77-4.46,5.12-6.39,12.03-6.83,18.79-.42,6.76,.54,13.54,1.18,20.28,.65,6.76,.98,13.67-.66,20.24-2.55,10.24-10.06,19.12-19.74,23.33-9.68,4.21-21.3,3.65-30.53-1.45-9.23-5.1-13.98-15.12-15.55-25.55,6.02,1.58,12.63,.72,18.04-2.32,5.43-3.03,9.58-8.26,11.37-14.21,1.79-5.99,1.2-12.42,.04-18.56-1.16-6.16-2.86-12.21-3.28-18.46-.42-6.24,.58-12.84,4.33-17.83,4.23-5.6,11.31-8.38,18.21-9.6,9.95-1.76,20.36-.79,29.87,2.66,2.49,.91,4.86,2.05,7.24,3.22,1.08,.52,1.79,.77,2.43,.77Z"/>
  </g>
  <g>
    <path d="M412.55,1056.29c-.96,0-1.73-.72-1.73-1.62,0-20.09-16.07-36.79-37.39-38.85-.95-.09-1.65-.89-1.55-1.78,.1-.89,.93-1.54,1.9-1.45,23.09,2.23,40.5,20.33,40.5,42.09,0,.89-.77,1.62-1.73,1.62Z"/>
    <path d="M497.35,1009.05c-5.11,0-7.82-8.5-7.82-14.64,0-7.95,4.21-10.77,7.82-10.77s7.82,2.82,7.82,10.77c0,6.14-2.72,14.64-7.82,14.64Zm0-22.17c-2.65,0-4.35,2.95-4.35,7.53,0,6.07,2.71,11.39,4.35,11.39s4.35-5.32,4.35-11.39c0-4.57-1.7-7.53-4.35-7.53Z"/>
    <path class="cls-7" d="M370.83,1054.66h180.89v-9.25c0-11.57-7.09-21.75-17.39-25.07l-.14-.05-40.09-12.85-12.72-17.34c-2.23-3.08-5.66-4.84-9.28-4.84-3.31,0-6.43,1.46-8.66,4.06-6.81,7.94-23.24,24.7-40.51,25.1-22.65,.53-31.97-20.86-31.97-20.86-30.75,16.72-20.12,61.12-20.12,61.12Z"/>
    <path d="M551.73,1056.29h-180.89c-.81,0-1.52-.53-1.69-1.27-.45-1.86-10.55-45.76,20.94-62.87,.44-.24,.96-.28,1.43-.13,.47,.15,.86,.49,1.05,.92,.09,.2,8.95,19.87,29.56,19.87,.25,0,.5,0,.76-.01,16.76-.39,33-17.26,39.21-24.49,2.54-2.96,6.2-4.66,10.01-4.66,4.25,0,8.15,2.02,10.71,5.55l12.39,16.89,39.55,12.68c11.25,3.64,18.71,14.33,18.71,26.66v9.25c0,.89-.79,1.62-1.74,1.62Zm-179.46-3.24h177.73v-7.62c0-10.78-6.67-20.45-16.22-23.54l-40.23-12.9c-.35-.11-.66-.33-.87-.62l-12.72-17.34c-1.91-2.63-4.77-4.14-7.85-4.14-2.8,0-5.39,1.22-7.31,3.45-6.51,7.58-23.61,25.28-41.83,25.7-.29,0-.58,.01-.86,.01-19.11,0-29.04-15.02-31.89-20.17-24.6,14.94-19.31,50.04-17.95,57.17Z"/>
    <path class="cls-7" d="M524.4,1042.74c0,4.26,.85,8.29,2.37,11.92h24.95v-9.25c0-11.57-7.09-21.75-17.39-25.07l-.14-.05c-5.99,5.38-9.79,13.44-9.79,22.46Z"/>
    <path d="M551.73,1056.29h-24.95c-.71,0-1.36-.41-1.61-1.03-1.65-3.93-2.49-8.14-2.49-12.51,0-9.13,3.76-17.74,10.33-23.63,.49-.44,1.2-.57,1.82-.34,11.18,3.61,18.65,14.31,18.65,26.64v9.25c0,.89-.79,1.62-1.74,1.62Zm-23.75-3.24h22.01v-7.62c0-10.45-6.28-19.87-15.36-23.24-5.41,5.25-8.49,12.68-8.49,20.57,0,3.58,.62,7.04,1.84,10.29Zm-20.79-25.92c-.25,0-.51-.05-.76-.16-.86-.39-1.22-1.36-.8-2.17l6.09-11.74c.42-.8,1.46-1.15,2.32-.75,.86,.39,1.22,1.36,.8,2.17l-6.09,11.74c-.29,.58-.91,.92-1.56,.92Zm-9.55-3.43c-.25,0-.51-.05-.76-.16-.86-.39-1.22-1.36-.8-2.17l6.09-11.74c.42-.8,1.45-1.14,2.32-.75,.86,.39,1.22,1.36,.8,2.17l-6.09,11.74c-.3,.58-.92,.92-1.56,.92Zm-9.43-2.44c-.25,0-.51-.05-.76-.16-.86-.39-1.22-1.36-.8-2.17l6.09-11.74c.42-.81,1.45-1.15,2.32-.75s1.22,1.36,.8,2.17l-6.09,11.74c-.3,.58-.92,.92-1.56,.92Z"/>
    <path d="M503.01,1010.17c-1.32,0-2.42-.35-3.26-1.06-1.72-1.46-1.94-4.15-.62-7.58,1.08-2.8,3.03-5.78,5.36-8.17h0c2.34-2.41,4.74-3.9,7.13-4.45,2.43-.55,4.7-.05,6.4,1.4,1.7,1.45,2.45,3.53,2.09,5.83-.35,2.28-1.72,4.66-4.06,7.06-2.33,2.4-5.32,4.5-8.19,5.76-1.82,.8-3.46,1.2-4.87,1.2Zm10.5-18.23c-.34,0-.7,.04-1.07,.13-1.17,.26-3.06,1.08-5.38,3.47h0c-2,2.06-3.75,4.72-4.67,7.09-.86,2.25-.77,3.69-.31,4.08,.45,.39,2,.34,4.31-.67,2.44-1.08,5.1-2.95,7.1-5.01,2.32-2.39,3.02-4.22,3.19-5.34,.19-1.24-.14-2.24-1-2.96-.61-.52-1.34-.77-2.18-.77Zm-7.74,2.51h0Z"/>
  </g>
</svg>