<?xml version="1.0" encoding="UTF-8"?>
<svg id="nano" xmlns="http://www.w3.org/2000/svg" xmlns:xlink="http://www.w3.org/1999/xlink" viewBox="0 0 982.43 1080">
  <defs>
    <style>
      .cls-1, .cls-2 {
        fill: none;
      }

      .cls-2 {
        stroke: #231f20;
        stroke-miterlimit: 10;
        stroke-width: 6px;
      }

      .cls-3 {
        clip-path: url(#clippath);
      }

      .cls-4 {
        fill: #f8f8f8;
      }

      .cls-5 {
        fill: #fcdd2a;
      }

      .cls-6 {
        fill: #fff;
      }

      .cls-7 {
        fill: #fdc5ab;
      }

      .cls-8 {
        fill: #131e67;
      }

      .cls-9 {
        fill: #231f20;
      }

      .cls-10 {
        fill: #0d2c72;
      }

      .cls-11 {
        opacity: .65;
      }

      .cls-12 {
        opacity: .96;
      }
    </style>
    <clipPath id="clippath">
      <rect class="cls-1" x="421.95" y="671.15" width="359.61" height="273.49"/>
    </clipPath>
  </defs>
  <rect class="cls-5" x="421.95" y="671.15" width="359.61" height="273.49"/>
  <g class="cls-3">
    <g class="cls-11">
      <g class="cls-12">
        <path class="cls-6" d="M495.05,668.37c-2.34,8.93-4.8,19.66-12.51,25.63-3.86,2.99-8.84,4.29-13.66,4.39s-9.78-1.41-14.7-1.17c-10.77,.53-16.08,8.59-15.74,18.78,.13,3.78,1.63,9.31-2.42,11.48-4.55,2.44-10.65-.11-15.1-1.56-7.97-2.6-11.39,9.95-3.46,12.54,10.97,3.57,25.65,5.3,32.16-6.82,2.61-4.87,1.99-10.35,1.82-15.63-.06-1.75-.51-4.42,1.19-5.5,1.6-1.02,5.17-.15,6.87,.06,12.09,1.54,23.95,.29,33.31-8.33,8.5-7.82,11.93-19.6,14.76-30.41,2.12-8.1-10.42-11.56-12.54-3.46h0Z"/>
      </g>
      <g class="cls-12">
        <path class="cls-6" d="M503,896.2c-7.09,1.84-14.08,4-20.93,6.6-5.34,2.02-11.94,3.93-15.33,8.92s-1.99,10.5,1.62,14.89c4.66,5.66,9.88,10.95,14.81,16.39,5.63,6.21,14.8-3,9.19-9.19-3.36-3.71-6.72-7.42-10.08-11.13-.95-1.05-2.57-3.46-3.78-4.17-.8-1.33-1.03-1.26-.71,.22,.63-.38,1.27-.73,1.92-1.05,8.33-4.09,17.79-6.62,26.73-8.94,8.09-2.1,4.66-14.64-3.46-12.54h0Z"/>
      </g>
      <g class="cls-12">
        <path class="cls-6" d="M556.52,871.46c10.13,6.58,20.26,13.17,30.38,19.75v-11.23c-7.17,5.51-14.34,11.01-21.51,16.52-5.33,4.09-12.64,8.35-11.94,16.12,.65,7.19,7.12,10.64,13.46,11.92,1.46,.29,6.76,.79,6.93,3.24s-5.92,3.96-7.44,4.46c-7.91,2.6-4.52,15.16,3.46,12.54,6.75-2.22,13.93-5.48,16.25-12.86,2.17-6.92-1.45-13.69-7.49-17.2-3.1-1.8-6.34-2.17-9.76-3-.71-.09-1.38-.28-2.01-.58-.76-.5-.91-.14-.46,1.07,1.33-1.78,3.82-3.14,5.57-4.48,7.17-5.51,14.34-11.01,21.51-16.52,3.88-2.98,4.44-8.34,0-11.23-10.13-6.58-20.26-13.17-30.38-19.75-7.03-4.57-13.56,6.68-6.56,11.23h0Z"/>
      </g>
      <g class="cls-12">
        <path class="cls-6" d="M536.21,731.72c-3.09,15.4-6.18,30.81-9.27,46.21-.73,3.63,1.76,8.82,6.27,8.23,10.96-1.43,21.92-2.95,32.89-4.29,.68-.08,2.46,.03,3.04-.28,1.32-.72-1.08-1.3-1.19-1.2-1.08,1-1.08,6.09-1.38,7.75-1.01,5.5-2.01,11-3.02,16.51-.83,4.53,2.91,9.7,8,8,5.69-1.9,11.38-3.81,17.07-5.71,2.7-.9,5.39-1.8,8.09-2.7,1.59-.53,5.71-2.77,7.45-2.27,3.29,.95,.03,9.39-.38,11.5-.93,4.79-1.01,9.62,1.33,14.05,10.89,20.65,39.36-6.35,47.44-16.8,2.16-2.8,.4-7.25-2.33-8.89-3.33-2-6.76-.43-8.89,2.33-5.53,7.16-13.12,13.24-21.46,16.79-1.92,.81-2.44,1.7-3.4,.19-.88-1.37-.23-3.65,.06-5.07,.96-4.8,2.44-9.25,1.68-14.2-1.48-9.58-9.53-14.32-18.77-12.12-10.57,2.52-21.01,6.93-31.32,10.38l8,8c1.34-7.34,2.7-14.67,4.02-22.01,1.06-5.93,1.63-12.46-4.39-16-5.62-3.31-13.98-.64-19.96,.14-7.52,.98-15.04,1.96-22.55,2.94l6.27,8.23c3.09-15.4,6.18-30.81,9.27-46.21,1.64-8.17-10.89-11.66-12.54-3.46h0Z"/>
      </g>
      <g class="cls-12">
        <path class="cls-6" d="M641.23,669.44c-3.5,3.79-6.72,7.97-6.89,13.36s2.91,9.69,7.59,11.9c5.09,2.4,11.07,3.39,16.48,4.88,2.25,.62,7.03,1.15,8.84,2.75,1.11,.99,.99-.41,.69,.9-.18,.79-2.14,1.89-2.72,2.34-4.86,3.74-10.05,7.1-14.78,11-3.76,3.09-6.96,7.75-5.67,12.87s6.32,7.05,11.11,7.94c6.49,1.2,12.99,2.37,19.49,3.56,8.18,1.49,11.69-11.03,3.46-12.54-5.2-.95-10.39-1.9-15.59-2.85-.84-.15-6.51-1.79-7.01-1.31,.17,3.57,.94,4.37,2.32,2.39,.97-.75,1.94-1.49,2.94-2.21,6.38-4.77,17.18-9.99,19.41-18.33,2.62-9.76-6.32-15.41-14.27-17.74-5.06-1.48-10.16-2.79-15.24-4.21-.3-.08-4.03-1-4.07-1.09-.46-1.13,2.5-3.77,3.11-4.42,5.68-6.13-3.5-15.35-9.19-9.19h0Z"/>
      </g>
      <g class="cls-12">
        <path class="cls-6" d="M743.2,732.74c8.1,2.44,16.2,4.89,24.3,7.33,4.23,1.27,8.02-2.17,8.23-6.27,.18-3.5,0-9.07,3.1-11.52,1.59-1.26,3.27-.82,5.18-.86,2.34-.05,4.58-.35,6.77-1.19,7.55-2.89,12.66-10.77,11.92-18.87s-13.76-8.34-13,0c.29,3.13-1.01,6.38-4.46,7.04-4.58,.87-8.29-.28-12.61,2.36-8.03,4.91-9.47,14.43-9.91,23.04l8.23-6.27c-8.1-2.44-16.2-4.89-24.3-7.33s-11.46,10.12-3.46,12.54h0Z"/>
      </g>
      <g class="cls-12">
        <path class="cls-6" d="M723.47,765.58c-3.53,5.83-7.07,11.66-10.6,17.49-2.9,4.78-6.15,10.2-4.91,16.05,1.03,4.85,4.81,8.11,9.44,9.44,1.9,.54,4.17,.41,5.98,1.19,.92,.4,.52-.84,.08,0-.51,.98-1.31,1.57-2.21,2.17-4.41,2.94-9.87,3.76-14.13,7.04-4,3.07-7.15,7.83-7.43,12.98-.66,12.2,15.15,16.66,23.82,21.17,7.41,3.85,14-7.36,6.56-11.23-5.05-2.62-10.17-5.15-15.16-7.88-.76-.42-2.1-.8-2.21-1.59-.23-1.56,2.41-3.25,3.46-3.9,4.11-2.54,8.98-3.44,12.98-6.26,3.72-2.62,6.46-6.33,7.26-10.87,1.69-9.64-6.34-13.73-14.37-15.09-.27-.05-1.57-.18-1.75-.46,.76,1.17,.92-1.09,1.2-1.72,.98-2.14,2.4-4.14,3.62-6.15,3.2-5.27,6.39-10.55,9.59-15.82,4.35-7.17-6.89-13.71-11.23-6.56h0Z"/>
      </g>
      <g class="cls-12">
        <path class="cls-6" d="M660.21,866.56c-4.85,2.82-9.76,6.84-10.61,12.72s2.77,10.85,8.1,12.84c2.45,.92,5.15,1.2,7.75,1.04,2.17-.13,7.03-1.84,8.79-.18,3.64,3.4-1.34,9.6-3.58,12.12-3.7,4.17-8.03,7.94-9.39,13.59s1.01,12.19,6.45,14.9,12.65,1.09,18.41,.73c7.69-.49,15.38-.98,23.06-1.47l-5.61-9.78c-2.4,5.54-4.8,11.08-7.19,16.61-3.29,7.6,7.91,14.23,11.23,6.56,2.4-5.54,4.8-11.08,7.19-16.61,1.78-4.12-.17-10.13-5.61-9.78-5.77,.37-11.53,.73-17.3,1.1-5.16,.33-11.8-.32-16.78,1.05-.64,.18-1.78-.46-1.16,.56-.41-.67,.27-1.58,.53-2.12,.92-1.94,2.91-3.48,4.33-5.02,3.18-3.44,6.13-7.08,7.91-11.46,3.07-7.55,1.6-17.47-5.7-22.12-4.6-2.93-9.47-2.34-14.63-1.8-1.49,.16-2.84,.01-4.29-.04l.42,1.03,.77-.85c1.07-.48,2.41-1.78,3.47-2.4,7.23-4.21,.69-15.45-6.56-11.23h0Z"/>
      </g>
      <g class="cls-12">
        <path class="cls-6" d="M576.17,679.1c6.26,4.75,13.73,11.49,6.84,19.01-5.53,6.03-13.97,8.51-19.65,14.48-6.16,6.48-6,15.28,2.85,18.94s18.3,6.64,27.41,9.92c7.88,2.85,11.28-9.71,3.46-12.54-4.69-1.69-9.38-3.39-14.06-5.08-2.34-.85-4.69-1.69-7.03-2.54-1.17-.42-2.34-.85-3.52-1.27-2.45-1.41-2.69-.51-.74,2.7,.4,.03,3.65-3.46,4.26-3.9,1.68-1.23,3.51-2.27,5.28-3.37,3.26-2.02,6.48-4.07,9.35-6.64,5.88-5.27,9.64-12.85,8.02-20.84-1.83-9.03-8.94-14.83-15.89-20.1s-13.15,6.23-6.56,11.23h0Z"/>
      </g>
      <g class="cls-12">
        <path class="cls-6" d="M414.43,837.58c20.33-9.06,40.67-18.11,61-27.17l-9.55-3.88c2.05,11.11,7.22,21.07,14.74,29.45,2.87,3.2,8.12,2.08,10.21-1.32,3.82-6.22,7.63-12.44,11.45-18.66,4.39-7.15-6.85-13.69-11.23-6.56-3.82,6.22-7.63,12.44-11.45,18.66l10.21-1.32c-6.08-6.78-9.75-14.79-11.4-23.71-.84-4.53-6.07-5.43-9.55-3.88-20.33,9.06-40.67,18.11-61,27.17-7.63,3.4-1.02,14.6,6.56,11.23h0Z"/>
      </g>
    </g>
  </g>
  <path class="cls-9" d="M568.8,310.01c23.5-6.18,46.51-15.65,66.15-30.15,18.6-13.73,33.91-31.76,42.88-53.17,8.69-20.75,10.32-44.32,3.39-65.83-6.73-20.87-21.34-38.67-41.69-47.41-9.87-4.24-20.61-6.5-31.38-6.06-10.51,.44-21.59,3.24-30.22,9.46-8.86,6.39-16.13,16.7-13.4,28.12,2.67,11.16,14.19,17.93,25.12,18.04,11.56,.11,22.66-5.88,30.96-13.58,7.23-6.71,12.53-15.21,16.06-24.38,7.27-18.91,6.08-40.24-2.54-58.47-9.1-19.24-25.76-34.44-44.52-44.08-22.33-11.47-47.84-15.1-72.72-14.31-13.07,.41-26.13,1.98-39,4.28-12.63,2.26-25.15,5.43-37.06,10.25-21.41,8.66-41.23,22.81-52.9,43.14-11.58,20.16-13.83,46.53-1.87,67.08,10.66,18.32,32.99,29.91,54.1,25.46,19.45-4.1,35.43-23.86,33.73-43.98-1.78-20.99-20.08-34.3-38.64-40.45-19.89-6.59-42.21-6.62-62.67-2.87-20.93,3.84-41.01,12.62-57.44,26.22-16.01,13.25-27.51,31.13-32.73,51.27-5,19.3-4.52,40.49,2.9,59.11,3.65,9.16,8.8,17.55,15.49,24.81,3.28,3.56,8.57-1.76,5.3-5.3-12.3-13.34-18.66-31.14-19.4-49.13-.77-18.53,4-37.24,13.81-53.01,10.2-16.4,25.89-28.88,43.25-37.04,17.78-8.35,37.67-12.15,57.27-11.83,17.84,.3,37.53,3.7,51.82,15.19,6.66,5.36,11.68,12.46,13.26,20.96,1.58,8.52-1.32,17.33-6.21,24.28-4.96,7.05-12.52,12.39-20.94,14.35-8.93,2.08-18.55,.46-26.7-3.6s-15.71-10.91-20.31-19.27c-5.09-9.25-6.92-19.95-6.21-30.42,1.43-21.26,13.97-39.79,30.46-52.61,18.26-14.19,40.88-21.27,63.36-25.32,23.69-4.27,48.49-6.08,72.32-1.85,20.56,3.65,40.3,11.97,55.89,26.08,13.92,12.59,24.41,29.73,25.98,48.73,1.44,17.47-3.69,36.01-15.9,48.91-6.61,6.98-15.79,13.01-25.59,13.79-8.77,.7-19.28-3.86-20.7-13.52-1.38-9.38,7.11-17.3,14.57-21.33,8.24-4.45,17.99-6.05,27.27-5.68,19.26,.78,37.96,10.63,49.43,26.13,12.16,16.44,16.91,37.43,14.75,57.62-2.2,20.62-12.18,40.12-25.69,55.62-14.68,16.86-33.65,29.24-54.08,38.04-10.02,4.32-20.45,7.7-30.99,10.47-4.66,1.23-2.69,8.46,1.99,7.23h0Z"/>
  <path class="cls-9" d="M313.38,247.61c9.58,17.32,24.4,31.74,41.93,40.94,5.07,2.66,10.37,4.89,15.81,6.67,1.87,.61,4.18-.71,4.61-2.62,.47-2.06-.62-3.96-2.62-4.61-8.69-2.84-16.88-6.95-24.72-12.43-3.72-2.6-6.93-5.21-10.47-8.53-3.42-3.22-6.62-6.67-9.55-10.34-.2-.25-.4-.5-.6-.76-.45-.57,.12,.17-.36-.46-.39-.51-.77-1.03-1.15-1.55-.76-1.04-1.49-2.1-2.21-3.16-1.5-2.25-2.9-4.56-4.21-6.92-.98-1.77-3.41-2.35-5.13-1.35s-2.33,3.35-1.35,5.13h0Z"/>
  <path class="cls-9" d="M75.06,511.72c-26.83,31.04-55.15,64.26-62.14,106.05-3.36,20.06-1.46,40.6,7.62,58.97,8.57,17.33,22.29,30.81,37.5,42.37,8.31,6.32,16.75,12.5,25.58,18.07,8.82,5.57,18.01,10.25,27.56,14.42,19.86,8.68,39.85,17.03,60.03,24.93,39.33,15.39,79.37,29.03,120.16,40.02,40.76,10.98,82.22,19.22,124.12,24.37,5.3,.65,10.61,1.25,15.92,1.8,2.02,.21,3.75-1.87,3.75-3.75,0-2.2-1.73-3.54-3.75-3.75-41.22-4.3-82.08-11.71-122.27-21.8-40.04-10.06-79.38-22.75-118.01-37.26-19.56-7.34-38.94-15.13-58.17-23.29-9.68-4.11-19.51-8.06-28.93-12.75-9.1-4.53-17.75-9.92-26.11-15.72-15.52-10.76-31.26-22.22-42.49-37.64-11.28-15.48-17.07-33.55-16.62-52.73,.97-41.05,26.21-75.56,51.73-105.59,3.26-3.83,6.54-7.64,9.83-11.44,3.14-3.63-2.14-8.96-5.3-5.3h0Z"/>
  <path class="cls-9" d="M202.44,597.55c-6.47,7.66-13.07,16.87-13.73,27.23-.67,10.68,8.19,18.89,16.7,23.84,4.76,2.77,9.94,4.58,15.11,6.41,5.7,2.02,11.41,3.98,17.14,5.9,11.54,3.86,23.14,7.51,34.79,10.98,23.18,6.9,46.58,13.06,70.12,18.58,23.52,5.51,47.19,10.39,70.95,14.73,23.75,4.35,47.6,8.16,71.5,11.57,3.02,.43,6.04,.85,9.07,1.27,2,.28,4.03-.49,4.61-2.62,.48-1.75-.6-4.33-2.62-4.61-23.35-3.23-46.65-6.83-69.86-10.92-23.23-4.09-46.37-8.67-69.38-13.84-23.03-5.17-45.93-10.94-68.63-17.39-22.76-6.47-45.33-13.63-67.62-21.57-8.61-3.07-18.26-7.35-23.04-15.66-1.9-3.3-1.67-7.11-.49-11.01,1.33-4.37,3.81-8.47,6.5-12.27,1.32-1.87,2.68-3.58,4.16-5.33,1.31-1.55,1.52-3.79,0-5.3-1.34-1.34-3.99-1.55-5.3,0h0Z"/>
  <path class="cls-9" d="M551.92,721.85c23.55,.22,47.11,.43,70.66,.65,5.89,.05,11.78,.11,17.67,.16,2.41,.02,4.83,0,7.23,.13,1.02,.06,2.04,.14,3.06,.27-.76-.1,.43,.08,.69,.12,.55,.1,1.1,.21,1.64,.35,.9,.22,1.79,.5,2.65,.84,.57,.23-.75-.41,.12,.07,.18,.1,.38,.19,.56,.29,.46,.25,.89,.53,1.32,.81,.17,.11,.45,.45-.03-.03,.14,.14,.31,.27,.46,.41,.3,.28,.57,.58,.84,.89-.54-.63,.28,.47,.38,.65,.13,.23,.26,.47,.37,.72-.21-.48,0,.08,.07,.29,.09,.29,.15,.57,.22,.86,.04,.15,.06,.71,.02,.06,.03,.47,.05,.95,.02,1.42-.01,.24-.03,.48-.06,.71,.09-.67,0-.05-.04,.07-.17,.59-.31,1.17-.5,1.75-.35,1.09,.17-.31-.12,.3-.11,.22-.22,.45-.33,.66-.26,.49-.55,.97-.86,1.44-.14,.21-.28,.41-.43,.61,.11-.14,.37-.41-.11,.11-.42,.46-.83,.91-1.29,1.33-1.64,1.5-4.14,2.85-6.52,3.9-.42,.19-.72,.3-1.41,.57-.65,.25-1.3,.49-1.95,.73-1.29,.47-2.59,.92-3.88,1.39-5.35,1.96-10.81,4.38-14.54,8.85-2.17,2.6-.67,6.08,2.65,6.4,6.8,.66,13.61,1.32,20.41,1.98,3.36,.33,6.72,.65,10.08,.98,.82,.08,1.64,.16,2.46,.24,.37,.04,.74,.08,1.12,.11,.16,.02,.72,.11-.04,0,1.2,.19,2.38,.41,3.55,.75,.52,.15,1.04,.33,1.55,.52,.67,.24,.12,.05-.01,0,.28,.14,.56,.27,.84,.42,.44,.24,.87,.51,1.27,.81-.86-.65,.75,.88,.39,.43s.16,.27,.19,.31c.09,.16,.18,.33,.26,.5-.41-.85-.07,0,0,.19,.21,.61,.02,.08,0-.1,.02,.35,.02,.68,0,1.03,.04-.71,.03-.19-.03-.01-.04,.11-.44,1.08-.08,.34-.15,.3-.33,.58-.49,.88-.49,.9,.26-.26-.13,.21-.19,.23-.38,.45-.59,.66-.42,.44-.87,.83-1.33,1.23-.88,.76,.3-.2-.26,.21-.25,.18-.5,.36-.75,.53-.6,.41-1.21,.79-1.82,1.17-2.83,1.73-5.66,3.44-8.5,5.16-6.66,4.04-13.31,8.08-19.97,12.11-2.88,1.75-2.11,5.81,.9,6.85,9.59,3.34,19.18,6.68,28.77,10.03,2.3,.8,4.63,1.54,6.91,2.42,.16,.06,.32,.12,.47,.19-.61-.26-.06-.02,.05,.04,.36,.19,.73,.35,1.08,.55,.4,.22,.8,.46,1.18,.71,.14,.09,.28,.19,.42,.29-.56-.4,.03,.03,.14,.14,.27,.26,.53,.51,.78,.79-.53-.59,.14,.29,.25,.49-.43-.81,.05,.5-.02,0-.08-.55,.03,.13-.02,.24-.24,.48,.36-.86-.05,.11-.02,.04-.19,.58-.06,.17,.16-.48-.37,.38-.02,.02,.23-.23-.48,.47-.61,.6,.46-.43-.49,.32-.66,.42-.41,.24-.84,.46-1.27,.67-.22,.1-.43,.2-.65,.3,.14-.06,.6-.24-.08,.03-.51,.2-1.01,.41-1.52,.61-1.15,.46-2.31,.91-3.47,1.36-2.17,.84-4.34,1.66-6.53,2.46-4.43,1.62-8.88,3.15-13.37,4.6-8.93,2.89-17.96,5.44-27.07,7.67-18.08,4.42-36.39,7.53-54.69,9.4-18.66,1.91-37.44,2.61-56.19,2.25-18.91-.37-37.79-1.82-56.56-4.2-2.3-.29-4.17-.54-6.42-.86-1.93-.27-4.12,.47-4.61,2.62-.4,1.77,.54,4.32,2.62,4.61,19.7,2.76,39.52,4.58,59.41,5.19,19.45,.6,38.94,.06,58.32-1.77,19.48-1.84,38.85-4.94,57.88-9.47,9.5-2.26,18.91-4.88,28.21-7.85,9.33-2.99,18.7-6.2,27.69-10.1,4.31-1.87,8.08-5.64,7-10.72-.91-4.33-5.06-6.88-8.85-8.46-4.57-1.9-9.38-3.33-14.06-4.96-4.95-1.73-9.9-3.45-14.86-5.18-2.52-.88-5.03-1.75-7.55-2.63,.3,2.28,.6,4.57,.9,6.85,6.44-3.91,12.89-7.82,19.33-11.73,3.15-1.91,6.31-3.79,9.44-5.73,2.69-1.66,5.27-3.6,7.08-6.23s2.35-5.83,1.38-8.75c-.92-2.79-3.07-4.98-5.66-6.31-5.59-2.87-12.26-2.83-18.38-3.42-8.36-.81-16.72-1.62-25.09-2.44,.88,2.13,1.77,4.27,2.65,6.4,3.07-3.67,7.4-5.54,11.8-7.13,5-1.81,10.22-3.45,14.51-6.69,4.37-3.3,7.44-7.99,7.9-13.54,.42-5.07-2.33-9.77-6.54-12.44-3.86-2.45-8.67-3.16-13.15-3.42-5.68-.34-11.42-.18-17.11-.23-12.27-.11-24.55-.22-36.82-.34-13.93-.13-27.87-.25-41.8-.38-1.96-.02-3.84,1.74-3.75,3.75,.09,2.05,1.65,3.73,3.75,3.75h0Z"/>
  <polyline class="cls-2" points="548.79 699.94 548.48 699.11 465.14 485.02 500.48 471.58 593.93 701.35 594.84 703.75"/>
  <path class="cls-9" d="M382.14,370.7l.39-.19c.23-.13,.42-.3,.56-.52,.18-.19,.3-.42,.36-.68,.08-.27,.1-.53,.04-.8-.01-.27-.09-.51-.24-.74l-.31-.4c-.25-.25-.54-.42-.88-.51l-.53-.07c-.36,0-.7,.09-1.01,.27l-.39,.19c-.23,.13-.42,.3-.56,.52-.18,.19-.3,.42-.36,.68-.08,.27-.1,.53-.04,.8,.01,.27,.09,.51,.24,.74l.31,.4c.25,.25,.54,.42,.88,.51l.53,.07c.36,0,.7-.09,1.01-.27h0Z"/>
  <path class="cls-7" d="M474.58,224.96c-17.83,0-33.72,8.31-44.02,21.25-3.2-2.22-7.07-3.53-11.26-3.53-10.92,0-19.77,8.85-19.77,19.77s8.34,19.22,18.81,19.72c.51,30.63,25.48,55.31,56.23,55.31s56.26-25.19,56.26-56.26-25.19-56.26-56.26-56.26Z"/>
  <path class="cls-7" d="M414.93,280.89c-14.11,35.62-31.7,71.17-45.81,106.78-1.5,3.78-1.65,10.48-.89,14.47,.92,4.89,4.94,21.85,9.76,21.08,6.89-1.1,11.53,8.3,18.84,4.98,6.35-2.89,17.6,4.51,24.06,1.87,7.44-3.04,14.79-15.29,19.3-21.93,17.74-26.13,25.2-58.24,32.26-89.02"/>
  <g>
    <path class="cls-10" d="M375,368.88c-19.01,3.75-37.85,8.33-56.46,13.73-18.54,5.38-36.84,11.58-54.84,18.55-18.02,6.98-35.74,14.73-53.09,23.24-17.35,8.51-34.33,17.77-50.87,27.75-8.47,5.11-16.71,10.58-25.15,15.74-8.55,5.23-17.26,10.22-25.55,15.87-2.14,1.46-4.25,2.96-6.32,4.5-.87,.65-1.29,1.72-.72,2.74,.49,.86,1.87,1.36,2.74,.72,8.16-6.07,16.86-11.32,25.57-16.56s16.8-10.53,25.23-15.75c16.36-10.13,33.17-19.54,50.35-28.2,17.23-8.69,34.84-16.64,52.77-23.79,17.85-7.12,36.02-13.47,54.42-19.02,18.4-5.55,37.04-10.29,55.85-14.21,2.37-.49,4.74-.97,7.12-1.44,2.52-.5,1.46-4.35-1.06-3.86h0Z"/>
    <path class="cls-10" d="M764.06,454.79c-45.39-30.63-93.65-56.13-145.9-72.49-52.25-16.36-102.23-23.06-156.53-16.06"/>
    <path class="cls-10" d="M101.76,491.97c13.97,13.04,30.51,29.74,44.46,42.8s28.21,26.41,42.32,39.6c7.84,7.33,15.69,14.66,23.53,21.98,2.1,1.96,5.27-1.19,3.16-3.16-13.97-13.04-27.92-26.09-41.88-39.14s-28.21-26.41-42.32-39.6c-7.84-7.33-18.27-18.32-26.12-25.64-2.1-1.96-5.27,1.19-3.16,3.16h0Z"/>
    <path class="cls-10" d="M301.89,607.95c34.55,0,69.1-.06,103.64-.14,34.33-.08,68.67-.17,103-.22,1.42,0,2.83,0,4.25,0,17.91-.03,35.82-.04,53.73-.04,2.88,0,2.88-4.47,0-4.47-34.55,0-69.1,.06-103.64,.14-34.33,.08-68.67,.17-103,.22-19.33,.03-38.65,.05-57.98,.05-2.88,0-2.88,4.47,0,4.47h0Z"/>
    <path class="cls-8" d="M569.18,604.88c0-22.7,0-45.41,0-68.11,0-6.51,0-13.03,0-19.54,0-2.88-4.47-2.88-4.47,0,0,22.7,0,45.41,0,68.11,0,6.51,0,13.03,0,19.54,0,2.88,4.47,2.88,4.47,0h0Z"/>
    <path class="cls-8" d="M302.67,606.07c0-11.89,.1-23.78,.22-35.68,.01-1.12-.07-2.29,.04-3.41l-3.67,.5c-.12-.75-.07-.59-.07-.37,0,2.4,3.74,2.41,3.73,0,0-.22-.02-.36-.07-.62-.15-.9-1.22-1.46-2.05-1.34-.97,.15-1.52,.88-1.62,1.83s-.02,1.86-.03,2.77c-.02,2.3-.04,4.61-.06,6.91-.05,6.49-.1,12.98-.13,19.47-.02,3.31-.03,6.63-.03,9.94,0,2.4,3.73,2.41,3.73,0h0Z"/>
    <path class="cls-10" d="M565.43,519.73c33.59,14.42,66.75,29.83,100.15,44.69,9.39,4.17,18.79,8.3,28.23,12.36,1.11,.48,2.4,.33,3.06-.8,.55-.94,.31-2.58-.8-3.06-33.59-14.42-66.75-29.83-100.15-44.69-9.39-4.17-18.79-8.3-28.23-12.36-1.11-.48-2.4-.33-3.06,.8-.55,.94-.31,2.58,.8,3.06h0Z"/>
    <path class="cls-10" d="M458.72,367.53c-2.04,11.77-7.13,22.62-13.54,32.62-3.2,4.98-6.61,10.06-10.51,14.52-3.61,4.13-8.59,7.14-13.59,9.3-5.69,2.46-11.68,2.38-17.67,1.14-5.45-1.13-10.86-2.88-15.78-5.5-4.68-2.49-9.14-5.86-12.14-10.3-1.74-2.58-2.5-5.74-3.07-8.94-.87-4.79-.99-9.8-.37-14.63,.6-4.65,1.99-9.56,4.96-13.28,.67-.84,.82-2,0-2.83-.7-.7-2.15-.85-2.83,0-6.07,7.62-7.2,18.33-6.2,27.73,.44,4.1,1.23,8.23,2.96,12,2.04,4.44,6.1,8.07,10.01,10.84,4.85,3.43,10.44,5.78,16.12,7.44,6.33,1.84,13.09,3.06,19.65,1.87,5.93-1.08,11.79-4.42,16.5-8.08,4.82-3.74,8.31-8.95,11.79-13.89,8.24-11.71,15.1-24.72,17.57-38.95,.18-1.06-.28-2.15-1.4-2.46-.96-.26-2.27,.33-2.46,1.4h0Z"/>
    <path class="cls-7" d="M373.4,384.7h67.02c4.13,0,7.84,1.9,10.31,4.86,10.52-22.02,16.24-46.62,21.71-70.43l-57.51-38.24c-13.36,33.71-28.53,66.26-42.22,99.96-.55,1.35-1.25,15.79,.2,15.79,.01,0,.48-11.93,.49-11.93Z"/>
    <path class="cls-9" d="M482.58,282.58c8.69,0,8.7-13.5,0-13.5s-8.7,13.5,0,13.5h0Z"/>
    <path class="cls-9" d="M452,298.64c-2.35,8.07,.64,16.91,6.44,22.77,6.16,6.23,14.96,8.95,23.52,9.42,1.62,.09,3-1.44,3-3,0-1.7-1.38-2.91-3-3-6.85-.37-14-2.5-19.01-7.39-4.59-4.49-6.92-11.14-5.16-17.2,1.08-3.71-4.71-5.3-5.79-1.6h0Z"/>
    <path class="cls-9" d="M517.68,291.23c5.37,11.45,10.73,22.89,16.1,34.34l4.1-4.1c-11.84-5.41-24.14-9.75-36.78-12.87-3.75-.92-5.35,4.86-1.6,5.79,12.13,2.99,23.99,7.07,35.35,12.26,2.78,1.27,5.42-1.3,4.1-4.1-5.37-11.45-10.73-22.89-16.1-34.34-.69-1.47-2.8-1.84-4.1-1.08-1.5,.88-1.77,2.63-1.08,4.1h0Z"/>
    <path class="cls-9" d="M413.9,265.65c.96-4.48,3.65-8.75,8.23-10.12,1.97-.59,4.15-.59,5.97,.24,1.69,.77,3.25,2.24,3.87,3.85,.58,1.51,2.02,2.55,3.69,2.1,1.45-.4,2.68-2.17,2.1-3.69-2.54-6.67-9.59-10.1-16.48-8.47-6.91,1.63-11.72,7.76-13.16,14.5-.34,1.58,.47,3.24,2.1,3.69,1.49,.41,3.35-.5,3.69-2.1h0Z"/>
  </g>
  <path class="cls-10" d="M695.37,574.38c25.11-37.47,47.55-76.77,67.11-117.5"/>
  <path class="cls-10" d="M381.19,516.37c-.8-1.64-2.2-2.87-3.93-3.46-1.73-.59-3.59-.48-5.23,.33l-159.49,78.18,2.46,5.02,25.48-12.49,131.24-65.9c2.84-1.43,6.34-.27,7.77,2.57h0c.56,1.11,.71,2.31,.53,3.45,.66-.7,1.18-1.53,1.5-2.47,.59-1.73,.48-3.59-.32-5.23Z"/>
  <path class="cls-10" d="M761.33,453.95l-56.27-33.56s-.02-.01-.04-.02l-30.32-15.4s-.03-.01-.04-.02l-41.62-17.14s-.04-.02-.06-.02l-38.27-11.02-22.01-5.81s-.07-.01-.1-.02l-57.54-5.2s-.02,0-.04,0l-9.18-.31-14.71-.31-22.03,.61s-.04,0-.06,0l-6.91,.86c-.25,.03-.46,.21-.52,.46l-3.43,13.25s-.02,.06-.03,.09l-6.79,16s-.03,.07-.06,.1l-13.78,20.42c-.05,.07-.1,.13-.17,.17l-15.31,10.09c-.09,.06-.2,.1-.32,.1l-9.59,.35s-.07,0-.11,0l-13.12-1.83-7.81-1.5c-.11-.02-.21-.07-.29-.14l-15.07-13c-.07-.06-.13-.14-.17-.23l-3.92-9.3s-.02-.05-.03-.08l-3.26-12.43c-.03-.11-.03-.22,0-.33l3.04-10.4,2.32-6.7,.67,.79-44.08,9.24s-.05,.01-.07,.02l-58.48,19.84s-.02,0-.03,.01l-54.38,22.06s-.04,.02-.06,.03l-36.84,20.19s-.02,.01-.03,.02l-75.19,46.8c-.34,.21-.39,.69-.1,.97l106.04,102.08c.19,.18,.47,.22,.7,.11l163.93-78.97c.26-.13,.58-.05,.76,.18l4.9,6.34-1.06,.53c-.24,.12-.36,.37-.33,.63,.26,2.33-.91,4.69-3.13,5.8l-76.28,36.79c-.22,.1-.35,.32-.35,.56l.27,40.09c0,.34,.28,.62,.62,.62l96.18-.46,165.63-.31c.1,0,.2-.02,.29-.07l5.36-2.82c.2-.11,.33-.31,.33-.54l1.14-81.16c0-.41,.4-.7,.8-.58l8.83,2.67s.03,.01,.05,.02l25.94,10.16s.02,.01,.04,.02l90.58,42.36c.3,.14,.65,.02,.81-.27l18.88-35.09,48.4-84.67c.2-.35,.02-.79-.36-.9l-2.59-.78s-.09-.04-.14-.06Z"/>
  <polygon class="cls-4" points="498.92 475.16 552.78 607.58 558.81 607.57 502.04 467.99 461.62 483.39 509.85 607.58 515.84 607.57 468.87 486.61 498.92 475.16"/>
  <path class="cls-9" d="M823.83,685.88c-1.76,9.17-4.04,18.24-6.86,27.15-1.41,4.45-2.94,8.86-4.6,13.23-.83,2.18-1.69,4.35-2.59,6.51-.44,1.07-.56,1.35-1.07,2.52-.49,1.13-.99,2.27-1.5,3.39-7.63,16.97-17.21,33.07-28.49,47.87-.67,.88-1.21,1.58-2.07,2.66s-1.63,2.04-2.45,3.05c-1.65,2.02-3.34,4.01-5.05,5.98-3.48,3.98-7.09,7.84-10.83,11.59-1.43,1.43-1.43,3.87,0,5.3s3.87,1.44,5.3,0c13.46-13.49,25.33-28.6,35.32-44.83,9.95-16.18,18.03-33.54,24.04-51.55,3.37-10.1,6.06-20.41,8.07-30.87,.37-1.92-.54-4.14-2.62-4.61-1.85-.42-4.22,.56-4.61,2.62h0Z"/>
  <path class="cls-9" d="M784.18,469.59c25.79,15.86,50.02,34.17,72.29,54.68,11.16,10.28,21.84,21.09,31.97,32.39,10.1,11.27,19.37,23.15,28.68,35.07,9.09,11.64,18.42,23.15,26.04,35.83,7.6,12.64,12.91,26.28,14.67,40.99,3.73,31.23-4.61,62.76-14.93,91.98-10.79,30.56-21.65,61.37-37.21,89.9-1.91,3.51-3.9,6.98-5.96,10.41-2.49,4.15,3.99,7.92,6.48,3.79,17.15-28.58,28.84-59.96,40.04-91.23,10.83-30.23,20.95-61.62,19.89-94.15-.51-15.72-3.94-30.95-10.84-45.12-6.64-13.63-15.79-25.82-25.06-37.74-9.36-12.03-18.56-24.22-28.44-35.83s-20.54-22.97-31.61-33.68c-22.21-21.47-46.52-40.81-72.44-57.62-3.23-2.1-6.49-4.15-9.77-6.17-4.12-2.54-7.89,3.95-3.79,6.48h0Z"/>
  <path class="cls-9" d="M723.27,853.74c-16.03,3.96-32.06,7.92-48.09,11.88-8.01,1.98-16.03,3.96-24.04,5.94-7.61,1.88-15.45,3.39-22.88,5.92-6.77,2.3-13.28,6.1-16.94,12.46-3.51,6.12-3.24,13.5,.54,19.44,8.55,13.44,25.78,13.27,39.85,12.01,17.37-1.55,34.45-5.66,50.58-12.33-1.41-1.84-2.82-3.67-4.23-5.51-14.74,23.23-27.93,47.44-39.44,72.43-2.87,6.23-5.81,12.49-8.26,18.9-2.24,5.88-3.54,12.56-1.39,18.67s7.4,10.56,14.15,11.18c6.49,.6,12.5-2.38,17.38-6.4,5.06-4.18,9.22-9.52,13.56-14.4,4.86-5.46,9.72-10.91,14.57-16.37,4.8-5.39,9.59-10.77,14.39-16.16,.98-1.1,1.96-2.28,3.14-3.18,.19-.14,.87-.58,1.27-.76,.26-.12,.81-.32,1.12-.17-.36-.17,.17,.09,.21,.11-.68-.31,.51,.44-.05-.02,.19,.15,.38,.36,.53,.54-.33-.4,.04,.11,.08,.17,.19,.3,.29,.55,.46,1.28,.19,.78,.04,.32,.03,.16,.03,.46,.03,.94-.03,1.39-.42,3.07-2.28,6.09-3.56,8.87-1.48,3.22-2.96,6.45-4.44,9.67-3.04,6.62-6.08,13.24-9.12,19.86-3.01,6.57-6.08,13.11-9.04,19.7-2.32,5.15-4.23,10.79-3.32,16.51,.94,5.96,6.12,10.45,12.18,10.46,6.09,.01,11.74-3.77,16.08-7.7,4.63-4.2,8.87-8.95,12.95-13.67,4.2-4.86,8.18-9.91,11.95-15.12,7.44-10.29,13.96-21.25,19.44-32.7,1.14-2.38,2.28-4.8,3.92-6.89-.36,.46,.48-.55,.43-.5,.17-.2,.35-.39,.54-.58s.36-.37,.55-.55c0,0,.95-.81,.4-.38,.38-.29,.81-.52,1.21-.77,.8-.49-.52,.05,.37-.16,.19-.04,1.14-.21,.32-.13,.23-.02,.45,0,.68-.02,.99-.05-.35-.12,.21,.03,.3,.08,.6,.15,.88,.27-.14-.06-.62-.27,0,.05,.85,.45-.3-.32,.12,.04,.19,.17,.36,.35,.54,.53-.11-.1-.38-.63-.04-.05,.15,.26,.3,.52,.44,.79-.36-.69-.04-.12,.02,.11,.07,.26,.15,.51,.21,.77,.05,.21,.09,.42,.13,.64-.14-.77,0-.04,0,.17,.02,.52,.04,1.04,.03,1.56,0,.3-.03,.59-.05,.89-.01,.15-.17,1.37-.05,.62-.38,2.47-1.18,4.79-2.04,7.12-1.26,3.41-2.51,6.82-3.77,10.23-2.48,6.73-4.96,13.47-7.44,20.2-2.47,6.71-5.01,13.4-7.41,20.14-1.77,4.97-3.2,10.42-2.86,15.73,.36,5.62,2.94,11.22,8.21,13.81,5.83,2.86,12.73,1.92,18.21-1.32,5.5-3.25,9.58-8.33,13.65-13.14,4.17-4.92,8.25-9.9,12.25-14.96,16.03-20.28,30.75-41.58,43.95-63.81,13.08-22.02,24.68-44.91,34.71-68.48,2.52-5.92,4.95-11.88,7.28-17.88,.73-1.89-.81-4.12-2.62-4.61-2.12-.58-3.88,.72-4.61,2.62-9.09,23.42-19.77,46.21-31.88,68.22-12.19,22.15-25.84,43.49-40.83,63.84-7.41,10.05-15.15,19.85-23.22,29.38-3.77,4.46-7.54,9.51-12.66,12.46-2.24,1.29-4.52,1.96-7.05,1.91-2.1-.04-4.03-.71-5.54-2.23-.17-.17-.33-.35-.49-.53-.75-.82,.18,.3-.18-.23-.3-.44-.54-.9-.8-1.37-.34-.62-.11-.24-.05-.07-.11-.28-.2-.56-.29-.84-.2-.63-.34-1.28-.46-1.93-.14-.75-.03-.26-.02-.1-.03-.31-.06-.62-.07-.93-.03-.57-.04-1.14-.03-1.71,.03-1.4,.15-2.4,.31-3.32,.98-5.73,3.29-11.16,5.29-16.59,4.96-13.47,9.91-26.94,14.87-40.4,1.78-4.84,3.69-9.86,3.07-15.12-.31-2.63-1.17-5.18-3.08-7.1s-4.8-3.06-7.52-2.88c-5.81,.39-9.91,5.51-12.52,10.24-1.44,2.61-2.62,5.38-3.97,8.04s-2.87,5.48-4.39,8.18c-6.05,10.7-13.02,20.9-20.87,30.36-3.95,4.76-8.11,9.35-12.46,13.74-1.94,1.96-3.94,3.96-6.08,5.43-1.16,.8-2.38,1.52-3.65,2.13-.72,.34-2.39,.88-3.16,.99-.89,.13-1.7,.09-2.52-.15-.13-.04-.87-.33-.37-.1-.24-.11-.47-.24-.7-.38-.34-.2-.7-.49-1.19-1.02-.43-.46,.38,.68-.18-.22-.12-.2-.25-.39-.36-.6s-.22-.41-.31-.62c.3,.73-.08-.35-.09-.42-.06-.23-.29-1.45-.2-.75-.09-.67-.09-1.36-.07-2.03,0-.32,.04-.63,.06-.95,.04-.74,.02-.34,0-.16,.08-.65,.22-1.31,.37-1.95,.3-1.31,.7-2.6,1.16-3.87,.89-2.47,2.18-5.05,3.47-7.85,5.92-12.9,11.84-25.8,17.77-38.7,1.47-3.21,2.96-6.41,4.42-9.63,1.49-3.28,2.9-6.71,2.44-10.39-.39-3.08-1.97-6.09-4.71-7.7-3.08-1.81-6.88-1.33-9.79,.58s-4.85,4.43-7.03,6.87c-2.37,2.66-4.73,5.32-7.1,7.98-4.73,5.32-9.47,10.64-14.2,15.95s-9.12,10.38-13.79,15.46c-3.83,4.17-8.01,8.16-13.49,9.29-2.02,.42-4.77,.28-6.55-.58-1.19-.58-1.72-.99-2.59-1.94-.32-.35-.41-.47-.78-1.06-.18-.29-.35-.6-.51-.9-.04-.09-.47-1.04-.31-.63-1.02-2.54-1.21-4.72-.86-7.52,.37-3.01,1.45-5.96,2.57-8.75,4.94-12.31,10.83-24.34,16.81-36.17,6.09-12.04,12.57-23.88,19.43-35.49,3.32-5.62,6.73-11.18,10.23-16.69,.8-1.26,.61-3.04-.29-4.16-.84-1.06-2.56-1.91-3.94-1.34-13.37,5.52-27.46,9.4-41.8,11.31-6.95,.92-14.09,1.59-21.1,1.27-3.34-.15-6.62-.66-9.79-1.76-2.74-.95-5.06-2.4-6.94-4.26-1.02-1-1.65-1.75-2.32-2.8-.87-1.37-1.25-2.15-1.65-3.57-.63-2.24-.55-4.6,.38-6.86,.98-2.39,2.69-4.37,4.84-6.14,2-1.65,5.13-3.18,7.88-4.15,7.03-2.47,14.49-3.89,21.72-5.68,7.47-1.84,14.94-3.69,22.41-5.53,17.12-4.23,34.25-8.46,51.37-12.69,1.97-.49,3.15-2.7,2.62-4.61s-2.64-3.11-4.61-2.62h0Z"/>
</svg>