<?xml version="1.0" encoding="UTF-8"?>
<svg id="micro" xmlns="http://www.w3.org/2000/svg" xmlns:xlink="http://www.w3.org/1999/xlink" viewBox="0 0 1080 1040.25">
  <defs>
    <style>
      .cls-1 {
        fill: none;
      }

      .cls-2 {
        clip-path: url(#clippath);
      }

      .cls-3 {
        fill: #fcdd2a;
      }

      .cls-4 {
        fill: #fff;
      }

      .cls-5 {
        fill: #fdc5ab;
      }

      .cls-6 {
        fill: #231f20;
      }

      .cls-7 {
        fill: #0d2c72;
      }

      .cls-8 {
        opacity: .74;
      }
    </style>
    <clipPath id="clippath">
      <rect class="cls-1" x="507.58" y="279.34" width="623.94" height="492.21" transform="translate(294.11 1345) rotate(-90)"/>
    </clipPath>
  </defs>
  <rect class="cls-3" x="507.58" y="279.34" width="623.94" height="492.21" transform="translate(294.11 1345) rotate(-90)"/>
  <g class="cls-2">
    <g class="cls-8">
      <path class="cls-4" d="M574.07,330.39c28.8-20.88,66.29-24.68,99.97-14.82s62.18,34.7,80.7,64.84c44.51,72.4,32.93,162.88,10.9,240.74-11.42,40.38-26.91,79.56-46.24,116.81-17.4,33.53-37.59,69.77-70.22,90.72-25.99,16.69-65.15,22.06-90.19,.36-27.24-23.61-23.23-64.29-16.61-96,7.23-34.65,16.63-72.99,41.66-99.45s65.74-36.47,101.81-41.83c69.27-10.3,141-1.66,206.64,22.29s126.3,64.3,172.5,117.35c22.66,26.02,47.16,67.4,19.23,98.64-10.52,11.76-25.13,19.19-39.8,24.43-18.42,6.58-37.88,10.51-57.09,13.96-42.12,7.55-86.53,11.31-129.27,7.65-15.98-1.37-34.62-6.73-37.3-25.14-1.3-8.92,1.07-18.13,3.8-26.56,3.16-9.76,7.17-19.28,11.01-28.78,30.46-75.37,68.74-147.9,116.37-213.87,11.87-16.45,24.34-32.46,37.42-47.96s26.23-29.99,42.33-41.55c28.79-20.65,72.96-31.28,100.92-3.22,22.98,23.06,25,60.2,8.72,87.46-18.76,31.42-54.86,47.53-90.48,48.46-39.1,1.02-80.26-12.65-111.41-36.27s-48.68-60.71-55.78-99.4c-12.52-68.25,3.84-140.39,40.76-198.69,18.25-28.83,41.82-54.59,69.53-74.58,15.78-11.39,33.24-21.69,53.15-22.64,17.29-.82,34.62,4.32,48.66,14.46,28.37,20.49,37.41,61.86,21.23,92.69s-50.75,47.04-82.97,55.99c-72.63,20.17-158.38,11.9-215.26-41.5-25.44-23.89-44.15-55.11-51.29-89.4-1.72-8.24-2.68-16.61-2.88-25.03s-.52-17.25,2.19-24.91c2.18-6.15,7.04-8.5,9.2-1.1s.17,15.17-.95,22.29c-11.31,71.92-44.1,140.15-92.9,194.15-12.28,13.58-25.54,26.28-39.68,37.91-14.85,12.21-31,24.4-49.44,30.54-17.22,5.74-37.99,5.96-52.96-5.65-12.4-9.62-18.17-25.55-18.84-40.82-1.62-36.76,24.8-66.17,47.83-91.71,5.16-5.72-3.3-14.24-8.49-8.49-25.9,28.73-54.77,62.21-51.12,103.65,1.48,16.86,8,33.97,21.23,45.11,15.72,13.23,37.07,16.09,56.72,11.89s38.57-16.5,54.95-29.2,30.45-25.61,44.03-40.14c26.78-28.65,49.25-61.41,66.32-96.71,17.2-35.56,29.18-73.65,34.73-112.79,1.15-8.08,2.43-16.37-.2-24.34-2.41-7.31-8.18-13.27-16.38-12.66-19.17,1.42-18.63,30.17-18.23,43.71,1.13,38.1,16.72,74.51,40.6,103.86,25.07,30.81,59.46,52.38,97.41,63.64,40.26,11.95,83.43,12.45,124.49,4.46,36.57-7.11,76.57-20.93,101.19-50.45,24.68-29.58,27.81-73.34,5.42-105.32s-64.77-44.49-100.49-30.76c-19.1,7.34-36.08,19.97-51.54,33.17-14.14,12.08-26.99,25.62-38.44,40.28-23.13,29.6-40.6,63.44-51.37,99.44-10.72,35.85-14.78,73.96-10.9,111.21,4.28,41.06,17.31,82.88,46.82,112.95,29.1,29.65,70.77,47.1,111.62,52.01,40.22,4.83,82.77-5.66,111.09-35.91,25-26.7,33.04-64.87,17.22-98.41-7.41-15.7-20.15-28.65-36.18-35.48-18.97-8.08-40.7-7.52-60.16-1.37-40.87,12.92-69.62,48.66-95.19,81.07-27.2,34.47-51.73,70.99-73.65,109.03-22.14,38.42-41.65,78.33-58.92,119.17-4.2,9.94-8.29,19.94-12.23,29.99s-7.84,19.59-9.74,29.96c-3.52,19.25,1.89,38.74,20.64,47.66,17.55,8.35,38.79,7.52,57.74,7.57,24.23,.06,48.46-1.45,72.49-4.5s46.24-7.07,68.84-12.95c16.88-4.39,33.96-10.43,48.46-20.33,14.52-9.92,26.25-24.11,29.73-41.71,4.01-20.3-2.72-40.58-12.98-57.99s-24.37-33.08-38.72-47.54c-13.37-13.47-27.69-25.91-42.74-37.45-60.38-46.32-133.33-76.36-208.66-86.77-37.62-5.2-75.79-5.7-113.47-.78s-81.99,14.13-111.58,42.2c-28.94,27.45-40.03,68.66-48.15,106.4-7.54,35.04-11.73,77.88,15.23,106.09,25.04,26.21,67.18,26.37,98.07,11.36,37.13-18.03,60.61-55.6,79.63-90.62,21.67-39.89,39.07-82.16,51.74-125.75,13.17-45.29,22.53-92.88,21.05-140.24-1.29-41.46-11.61-82.96-34.37-118.01-20.85-32.1-51.67-57.66-89.09-67.49-35.55-9.33-75.36-4.83-105.54,17.05-6.19,4.49-.21,14.91,6.06,10.36h0Z"/>
    </g>
  </g>
  <path class="cls-5" d="M385.48,441.5c19.63-1.07,40.77,9.06,52.98,23.21,12.22,14.15,16.35,33.87,10.73,51.17-2.94,9.06-8.34,17.37-10.8,26.55-2.04,7.63-1.98,15.59-1.9,23.44,.21,21.35,.41,42.7,.62,64.05,.11,11.34-.27,23.9-8.71,32.18-8.74,8.58-22.96,9.51-35.74,9.88-6.78,.2-15.04-.38-18.05-5.95-.83-1.53-1.11-3.26-1.39-4.95-1.61-9.99-3.23-19.99-4.84-29.98-2.54-15.76-5.09-31.71-3.35-47.56,.81-7.39,2.55-14.94,.64-22.16-2.07-7.84-8.18-14.23-11.53-21.69-3.36-7.46-2.7-17.89,5.21-21.39,5.64-2.5,12.51-.36,18.54-1.94,8.25-2.16,12.54-10.46,14.58-18.11,5.04-18.88,2.52-39.38-6.99-56.74"/>
  <path class="cls-7" d="M317.16,906.17s182.81,11.49,182.48,9.51c-.28-1.66,6.41-59.25,8.57-77.76,.43-3.64-.58-7.3-2.81-10.21l-41.44-54.1c-1.29-1.68-1.06-4.07,.52-5.47h0c1.76-1.57,4.49-1.31,5.92,.58l63.21,83.65,30.72,35.63c11.17,12.95,23.13,25.19,35.83,36.64h0c9.66,8.71,20.57,15.92,32.38,21.39h0s22.75-108.82,22.75-108.82l12.86-49.14,8.36-30.2-240.56-110.36-6.12,10.09-12.54,8.87-20.3,3.27-16.7-3.6-9.91,32.22-28.36,41.88-34.73,48.78-10.3,52.87,2.1,42.84,1.34,20.43,16.73,1.01Z"/>
  <path class="cls-6" d="M359.63,412.93c-38.43-24.2-90.58-20.11-124.18,10.59-15.62,14.27-26.95,33.48-31.64,54.12-2.69,11.82-2.71,23.77-2.31,35.82,.43,13.03,.96,26.29-3.29,38.82-6.78,20.02-23.98,34.61-41.79,44.8-20.86,11.94-44.21,18.51-66.17,28.02s-40.97,22.16-55.65,40.69c-13.95,17.61-23.39,38.65-26.49,60.96-3.33,23.96,.25,48.51,10.16,70.57,8.78,19.53,23.36,38.29,43.47,46.95,9.56,4.11,20.01,5.78,30.27,3.54,9.37-2.04,18.33-7.15,24.76-14.27,6.28-6.95,10.37-16.07,9.82-25.57-.59-10.1-5.91-19.32-13.75-25.58-7.98-6.38-18.13-10.02-28.4-9.5-10.85,.54-21.01,4.96-29.49,11.61-19,14.91-26.22,39.19-27.64,62.43-2.78,45.53,14.06,91.8,44.52,125.6,30.84,34.22,75.95,54.56,121.87,56.28,45.83,1.71,96.09-16.1,118.33-58.83,5.01-9.62,8.17-19.92,9.4-30.69,.55-4.79-6.96-4.75-7.5,0-2.35,20.57-13.54,39.37-28.81,53.05-16.92,15.17-38.89,23.7-61.12,27.25-42.77,6.83-87.83-5.05-122.67-30.46-34.88-25.44-58.03-65.12-64.85-107.57-3.44-21.43-3.28-45,4.61-65.46,7.27-18.85,24.63-36.2,46.06-35.75,17.71,.37,36.03,16.58,31.2,35.36-4.46,17.35-24.57,27.89-41.58,25.24-20-3.12-35.82-18.63-45.8-35.4-11.67-19.61-17.33-42.57-16.56-65.35,.72-21.4,7.49-42.2,19.11-60.15,11.7-18.07,27.97-32.18,47.01-42.08,37.93-19.73,84.85-26.32,112.79-61.77,6.05-7.67,10.77-16.35,13.31-25.83,3.22-12.03,2.78-24.58,2.37-36.91-.38-11.37-.5-22.67,2.04-33.82,2.2-9.66,5.87-18.9,10.87-27.45,10.03-17.18,25.15-31.29,43.34-39.46,19.23-8.63,41.56-10.28,61.99-5.36,10.16,2.45,19.77,6.48,28.61,12.05,4.1,2.58,7.86-3.91,3.79-6.48h0Z"/>
  <path class="cls-6" d="M406.89,461.82c12.78-12.09,25.57-24.18,38.35-36.27-2.09-1.22-4.18-2.43-6.27-3.65-2.59,18.57-5.19,37.13-7.78,55.7-.27,1.93,.47,4.12,2.62,4.61,1.77,.4,4.32-.54,4.61-2.62,2.59-18.57,5.19-37.13,7.78-55.7,.23-1.68-.16-3.32-1.72-4.23-1.46-.86-3.33-.56-4.54,.59-12.78,12.09-25.57,24.18-38.35,36.27-1.47,1.39-1.4,3.9,0,5.3s3.83,1.4,5.3,0h0Z"/>
  <path class="cls-6" d="M394.88,491.03c1.96,0,3.84-1.72,3.75-3.75-.09-2.03-1.65-3.75-3.75-3.75-1.96,0-3.84,1.72-3.75,3.75,.09,2.03,1.65,3.75,3.75,3.75h0Z"/>
  <path class="cls-6" d="M403.23,517.81c8.31,4.68,19.23,4.34,27.06-1.21,1.6-1.13,2.51-3.33,1.35-5.13-1.02-1.58-3.42-2.56-5.13-1.35-.78,.55-1.58,1.06-2.42,1.5-.42,.22-.85,.43-1.28,.62,.36-.16,.15-.06-.09,.03-.22,.08-.44,.17-.67,.24-.9,.31-1.82,.56-2.75,.75-.22,.05-1.44,.24-.76,.15-.53,.07-1.07,.11-1.6,.14-.95,.05-1.9,.04-2.85-.03-.24-.02-.47-.05-.71-.06-.6-.03,.53,.1-.06,0-.47-.09-.94-.16-1.4-.26-.93-.21-1.84-.47-2.73-.8-.06-.02-.71-.28-.38-.14s-.31-.14-.37-.17c-.48-.23-.96-.48-1.42-.74-1.71-.96-4.17-.47-5.13,1.35-.94,1.77-.48,4.1,1.35,5.13h0Z"/>
  <path class="cls-6" d="M364.63,524.91c-3.18,5.5-3.33,12.48-.25,18.05,2.91,5.27,8.29,8.45,14.15,9.2,1.95,.25,3.83-1.9,3.75-3.75-.1-2.25-1.66-3.48-3.75-3.75,.83,.11,.07,0-.1-.04-.26-.05-.52-.11-.77-.18-.51-.13-1-.32-1.51-.49,.32,.1,.36,.17,.02,0-.24-.11-.48-.23-.71-.35-.47-.25-.92-.52-1.36-.82-.22-.15-.44-.3-.65-.46,.28,.21,.28,.23,.02-.01-.39-.36-.78-.71-1.15-1.1-.18-.19-.34-.41-.53-.59-.3-.3,.29,.46-.09-.12-.3-.44-.59-.88-.85-1.34-.1-.19-.2-.37-.29-.56-.49-.94,.09,.35-.11-.22s-.38-1.09-.52-1.66c-.07-.28-.12-.57-.19-.85-.15-.7-.02,.22-.04-.21-.03-.52-.08-1.04-.08-1.57,0-.58,.03-1.16,.11-1.74-.08,.55,0,.08,.06-.21s.12-.57,.2-.85c.14-.51,.31-1,.49-1.49,.14-.37-.22,.37,.11-.22,.17-.3,.33-.62,.5-.92,.98-1.7,.45-4.18-1.35-5.13s-4.08-.47-5.13,1.35h0Z"/>
  <path class="cls-6" d="M766.03,58.92c3.37,23.04,6.73,46.08,10.1,69.12,.96,6.58,1.92,13.17,2.88,19.75,.29,2.01,2.83,3.11,4.61,2.62,2.15-.59,2.91-2.6,2.62-4.61-3.37-23.04-6.73-46.08-10.1-69.12l-2.88-19.75c-.29-2.01-2.83-3.11-4.61-2.62-2.15,.59-2.91,2.6-2.62,4.61h0Z"/>
  <path class="cls-6" d="M776.14,23.13h80.05c1.96,0,3.84-1.72,3.75-3.75-.09-2.03-1.65-3.75-3.75-3.75h-80.05c-1.96,0-3.84,1.72-3.75,3.75,.09,2.03,1.65,3.75,3.75,3.75h0Z"/>
  <path class="cls-6" d="M852.39,20.42c-1.73,22.52-3.46,45.03-5.18,67.55s-3.46,45.03-5.18,67.55c-.97,12.63-1.94,25.26-2.91,37.89-.15,1.96,1.83,3.84,3.75,3.75,2.16-.1,3.59-1.65,3.75-3.75,.47-6.07,.93-12.15,1.4-18.22,.15-1.96-1.83-3.84-3.75-3.75-2.16,.1-3.59,1.65-3.75,3.75-.47,6.07-.93,12.15-1.4,18.22h7.5c1.73-22.52,3.46-45.03,5.18-67.55,1.73-22.52,3.46-45.03,5.18-67.55,.97-12.63,1.94-25.26,2.91-37.89,.15-1.96-1.83-3.84-3.75-3.75-2.16,.1-3.59,1.65-3.75,3.75h0Z"/>
  <path class="cls-6" d="M747.29,297.4c25.07,21.29,50.14,42.58,75.21,63.86,7.09,6.02,14.18,12.04,21.27,18.06,1.54,1.31,3.79,1.51,5.3,0,1.34-1.34,1.55-3.99,0-5.3-6.78-5.76-13.56-11.51-20.34-17.27-1.54-1.31-3.79-1.51-5.3,0-1.34,1.34-1.55,3.99,0,5.3,6.78,5.76,13.56,11.51,20.34,17.27,1.77-1.77,3.54-3.54,5.3-5.3-25.07-21.29-50.14-42.58-75.21-63.86-7.09-6.02-14.18-12.04-21.27-18.06-1.54-1.31-3.79-1.51-5.3,0-1.34,1.34-1.55,3.99,0,5.3h0Z"/>
  <path class="cls-6" d="M833.16,577.81c-6.47,17.77-11.31,36.06-15.85,54.39-4.25,17.15-7.94,34.55-13.46,51.36-1.18,3.6-2.45,7.16-3.83,10.69-.35,.9-.71,1.79-1.07,2.68-.07,.18-.15,.36-.22,.53-.03,.07-.33,.8-.18,.44,0-.02-.37,.87-.49,1.14-.74,1.7-1.5,3.39-2.3,5.06-3.2,6.73-6.89,13.23-11.22,19.3-2.07,2.9-4.02,5.34-6.66,8.24-2.42,2.66-4.99,5.17-7.72,7.5-2.76,2.36-5.22,4.18-8.57,6.28-1.65,1.03-3.34,2-5.07,2.89-.85,.44-1.71,.87-2.58,1.27-.43,.2-.87,.4-1.31,.6-.69,.31-.54,.24-1,.43-3.81,1.56-7.74,2.81-11.75,3.73-4.14,.95-7.28,1.4-11.42,1.66-4.04,.25-8.1,.18-12.13-.21-.48-.05-.96-.1-1.43-.15-.14-.02-1.34-.17-.84-.1-1.02-.14-2.03-.31-3.04-.5-2.02-.37-4.03-.83-6.01-1.37s-3.81-1.13-5.68-1.81c-1.85-.67-4.19,.75-4.61,2.62-.48,2.11,.64,3.9,2.62,4.61,15.9,5.77,33.77,6.02,49.91,1.05,15.34-4.73,28.68-14.24,38.86-26.57,9.97-12.07,17.05-26.13,22.45-40.76,6.05-16.38,9.83-33.52,13.98-50.44,4.59-18.74,9.25-37.49,15.47-55.76,.78-2.28,1.58-4.55,2.4-6.81,.67-1.85-.75-4.19-2.62-4.61-2.11-.48-3.89,.64-4.61,2.62h0Z"/>
  <path class="cls-6" d="M851.07,531.39c8.04-32.62,16.08-65.23,24.12-97.85,7.87-31.94,15.34-64.01,24.26-95.68,4.35-15.42,8.98-30.84,14.62-45.84,2.28-6.07,5.16-12.46,10.27-16.69,3.95-3.26,10.22-5.23,15.11-2.97,5.02,2.32,6.49,8.14,6.73,13.2,.32,6.95-.86,13.98-1.6,20.87-1.78,16.58-3.55,33.15-5.33,49.73-.88,8.21-1.85,16.41-2.62,24.63-.69,7.4-.68,15.23,2.94,21.94,3.06,5.67,8.54,10.06,15.07,10.65,4.32,.39,8.59-1.17,12.01-3.74,6.98-5.24,10.94-13.31,16.65-19.59,2.54-2.79,4.9-4.88,8.37-5.51,.08-.01,.25-.05,.79-.07,.41-.01,.83-.02,1.24,0,1.31,.1,2.55,.52,3.69,1.17,2.5,1.43,4.35,3.77,5.58,6.35,3.09,6.53,2.05,14.53,1.74,21.49-.37,8.35-.75,16.69-1.12,25.04-.19,4.17-.37,8.35-.56,12.52-.09,2.09-.19,4.17-.28,6.26-.09,2.08-.68,4.78-.13,6.81,.87,3.16,5.29,4.65,8.18,4.79,3.1,.15,6.25-1.01,8.91-2.51,2.82-1.59,5.12-3.78,7.41-6.03,2.14-2.11,4.51-4.5,7.39-5.56,5.38-1.98,7.44,3.76,7.85,8.01,.68,7.09-.33,14.53-.86,21.6-.6,7.98-1.38,15.94-2.32,23.89-3.79,31.91-10.31,63.46-18.18,94.59-7.88,31.2-17.16,62.02-26.73,92.74-2.34,7.53-4.71,15.06-7.07,22.59-1.45,4.62,5.79,6.59,7.23,1.99,13.37-42.59,26.73-85.24,37.08-128.69,5.14-21.56,9.53-43.31,12.76-65.24,1.63-11.07,3-22.18,4.01-33.32,.49-5.41,.91-10.83,1.23-16.25,.28-4.69,.79-9.5,.31-14.2-.44-4.36-1.56-8.98-4.79-12.17-3.79-3.73-9.29-4.25-14.03-2.17-4.9,2.15-8.11,6.29-12.08,9.67-2.28,1.94-7.22,5.29-10.04,2.63,.37,.88,.73,1.77,1.1,2.65,.51-11.33,1.01-22.65,1.52-33.98,.25-5.66,.51-11.33,.76-16.99,.23-5.2,.48-10.37-.28-15.54-1.27-8.66-6.91-17.9-16.22-19.41-6.18-1-11.72,1.6-16.12,5.82-4.3,4.12-7.46,9.28-11.09,13.96-3.04,3.93-6.48,7.82-11.02,8.8-.32,.07-.61,.12-1.42,.14-.69,.01-1.37-.04-2.04-.18-1.74-.38-3.33-1.27-4.65-2.46-3.19-2.87-4.86-6.87-5.42-11.07-.7-5.17,.01-10.5,.56-15.65,.6-5.62,1.21-11.25,1.81-16.87,2.37-22.13,5.23-44.26,7.09-66.44,.67-8,.36-17.01-5.15-23.4-5.94-6.9-15.81-7.16-23.6-3.54-8.47,3.93-13.31,12.38-16.7,20.68-4,9.78-7.14,19.97-10.25,30.06-6.53,21.11-12.02,42.52-17.34,63.96-10.91,43.93-21.68,87.9-32.51,131.85-1.36,5.51-2.72,11.02-4.07,16.53-1.16,4.69,6.08,6.69,7.23,1.99h0Z"/>
  <path class="cls-6" d="M971.51,758.39c-12.11,27.09-24.25,54.21-38.62,80.2-13.41,24.25-28.78,47.52-47.56,67.96-17.37,18.9-37.46,35.41-60.31,47.25-24.15,12.51-50.91,18.79-78.07,19.05-28.28,.27-56.41-5.62-82.67-15.97-3.12-1.23-6.21-2.53-9.27-3.9-1.85-.82-4.03-.54-5.13,1.35-.94,1.6-.51,4.3,1.35,5.13,26.64,11.88,55.27,19.31,84.46,20.68,28.52,1.33,57.05-3.52,83.19-15.1,24.03-10.64,45.52-26.61,64.05-45.15,19.85-19.86,36.31-42.85,50.47-67.04,15.15-25.88,27.74-53.13,40-80.46,1.53-3.41,3.05-6.81,4.58-10.22,.83-1.85,.53-4.03-1.35-5.13-1.6-.94-4.3-.51-5.13,1.35h0Z"/>
  <path class="cls-7" d="M435.32,649.75c-13.64,17.73-42.25,23.73-62.26,12.15,.41,22.54-12.9,43-27.64,61.04-14.74,18.03-32.17,34.35-44.32,53.94-24.2,39.03-24.2,89.76,0,128.79"/>
</svg>