<?xml version="1.0" encoding="UTF-8"?>
<svg id="Layer_1" data-name="Layer 1" xmlns="http://www.w3.org/2000/svg" viewBox="0 0 1080 1072.72">
  <defs>
    <style>
      .cls-1 {
        fill: none;
      }

      .cls-2 {
        fill: #f9dbcf;
      }

      .cls-3 {
        fill: #fff;
      }

      .cls-4 {
        fill: #d3d3d3;
      }

      .cls-5 {
        fill: #123591;
      }

      .cls-6 {
        fill: #1f59f0;
      }
    </style>
  </defs>
  <path class="cls-5" d="M329.17,134.29l-20.83-5.92c-3.07-16.05-9.33-31.03-18.04-44.14l10.62-19.23c1.63-2.96,1.13-6.68-1.25-9.08l-14.31-14.53c-2.38-2.39-6.04-2.9-8.98-1.25l-18.98,10.73c-12.92-8.83-27.71-15.15-43.55-18.27l-5.93-21.21c-.91-3.27-3.86-5.53-7.22-5.53h-20.23c-3.38,0-6.32,2.26-7.24,5.53l-5.93,21.21c-15.82,3.12-30.61,9.45-43.55,18.27l-18.98-10.73c-2.94-1.65-6.59-1.14-8.96,1.25l-14.34,14.52c-2.38,2.41-2.89,6.12-1.23,9.08l10.6,19.23c-8.71,13.11-14.95,28.09-18.04,44.14l-20.83,5.92c-3.25,.92-5.48,3.91-5.48,7.33v20.56c0,3.42,2.23,6.4,5.48,7.33l20.83,5.92c3.08,16.14,9.33,31.12,18.04,44.21l-10.6,19.14c-1.63,2.98-1.13,6.69,1.25,9.1l14.32,14.52c2.38,2.39,6.02,2.92,8.96,1.27l18.98-10.68c12.94,8.73,27.73,15.07,43.55,18.2l5.93,21.2c.92,3.27,3.86,5.53,7.24,5.53h20.23c3.36,0,6.32-2.26,7.22-5.53l5.93-21.2c15.84-3.12,30.63-9.47,43.55-18.2l19,10.68c2.92,1.65,6.59,1.12,8.95-1.27l14.34-14.52c2.38-2.41,2.89-6.12,1.23-9.1l-10.6-19.14c8.71-13.09,14.97-28.07,18.04-44.21l20.82-5.92c3.25-.94,5.48-3.92,5.48-7.33v-20.56c0-3.42-2.23-6.41-5.48-7.33Zm-138.56,84.29c-36.44,0-65.93-29.85-65.93-66.68s29.49-66.7,65.93-66.7,65.81,29.87,65.81,66.7c0,36.82-29.48,66.68-65.81,66.68Z"/>
  <path d="M200.68,299.5h-20.23c-4.03,0-7.63-2.75-8.73-6.68l-5.68-20.27c-15.1-3.11-29.35-9.06-42.38-17.71l-18.16,10.22c-3.51,1.98-7.96,1.35-10.82-1.53l-14.32-14.53c-2.85-2.89-3.48-7.4-1.51-10.98l10.13-18.3c-8.57-13.11-14.47-27.58-17.55-43.02l-19.91-5.66c-3.9-1.12-6.62-4.77-6.62-8.86v-20.55c0-4.11,2.72-7.75,6.62-8.86l19.91-5.65c3.08-15.4,8.98-29.84,17.55-42.95l-10.14-18.38c-1.98-3.56-1.37-8.07,1.49-10.97l14.34-14.52c2.86-2.87,7.31-3.49,10.82-1.51l18.15,10.26c12.94-8.68,27.19-14.66,42.38-17.78l5.68-20.29c1.11-3.93,4.71-6.68,8.74-6.68h20.23c4.04,0,7.63,2.75,8.72,6.69l5.67,20.29c15.21,3.13,29.46,9.1,42.38,17.78l18.15-10.26c3.52-1.98,7.98-1.37,10.84,1.51l14.32,14.53c2.85,2.89,3.48,7.4,1.51,10.97l-10.15,18.39c8.59,13.15,14.49,27.59,17.55,42.95l19.91,5.66c3.89,1.1,6.62,4.74,6.62,8.85v20.55c0,4.09-2.72,7.73-6.61,8.85l-19.92,5.66c-3.05,15.42-8.95,29.88-17.55,43.02l10.13,18.29c1.98,3.57,1.37,8.09-1.49,10.99l-14.34,14.52c-2.85,2.89-7.3,3.52-10.81,1.53l-18.17-10.21c-13.02,8.65-27.26,14.6-42.38,17.71l-5.67,20.27c-1.08,3.93-4.67,6.68-8.72,6.68Zm-76.95-48.09c.3,0,.6,.09,.86,.26,13.17,8.89,27.64,14.93,42.98,17.97,.58,.11,1.04,.55,1.2,1.12l5.94,21.19c.73,2.58,3.09,4.39,5.74,4.39h20.23c2.65,0,5-1.81,5.72-4.38l5.93-21.2c.16-.57,.62-1.01,1.2-1.12,15.37-3.03,29.83-9.08,42.98-17.97,.49-.33,1.11-.35,1.62-.07l19,10.68c2.3,1.31,5.22,.89,7.09-1.01l14.34-14.52c1.87-1.9,2.28-4.86,.98-7.21l-10.6-19.14c-.29-.52-.26-1.16,.07-1.65,8.83-13.27,14.82-27.95,17.8-43.63,.11-.59,.54-1.06,1.11-1.22l20.83-5.92c2.59-.75,4.34-3.09,4.34-5.82v-20.55c0-2.7-1.78-5.09-4.34-5.82h0l-20.83-5.92c-.57-.16-1-.63-1.11-1.22-2.98-15.62-8.97-30.27-17.8-43.56-.33-.49-.36-1.14-.07-1.65l10.62-19.23c1.29-2.33,.88-5.29-.99-7.19l-14.32-14.52c-1.87-1.89-4.81-2.29-7.12-.99l-18.98,10.73c-.51,.29-1.15,.26-1.63-.07-13.05-8.92-27.51-14.98-42.97-18.03-.58-.11-1.04-.55-1.2-1.12l-5.93-21.21c-.71-2.58-3.07-4.38-5.72-4.38h-20.23c-2.65,0-5.01,1.81-5.74,4.39l-5.93,21.21c-.16,.57-.62,1.01-1.2,1.12-15.45,3.05-29.9,9.12-42.97,18.03-.49,.33-1.12,.36-1.63,.07l-18.98-10.73c-2.32-1.3-5.23-.89-7.11,.99l-14.33,14.52c-1.88,1.9-2.28,4.85-.98,7.19l10.6,19.24c.29,.52,.26,1.16-.07,1.65-8.8,13.25-14.79,27.9-17.8,43.56-.11,.58-.54,1.06-1.11,1.22l-20.83,5.92c-2.56,.72-4.34,3.11-4.34,5.82v20.55c0,2.73,1.75,5.06,4.35,5.82l20.82,5.92c.57,.16,1,.63,1.11,1.22,3,15.71,8.99,30.39,17.8,43.63,.33,.49,.36,1.14,.07,1.65l-10.6,19.14c-1.29,2.35-.88,5.31,.99,7.21l14.31,14.52c1.88,1.89,4.8,2.3,7.11,1.01l18.98-10.68c.21-.11,.47-.18,.74-.18Zm66.88-31.26c-37.21,0-67.48-30.62-67.48-68.25s30.27-68.28,67.48-68.28,67.37,30.62,67.37,68.28c0,37.64-30.22,68.25-67.37,68.25Zm0-133.37c-35.49,0-64.36,29.21-64.36,65.12s28.87,65.1,64.36,65.1,64.26-29.2,64.26-65.1c0-35.91-28.83-65.12-64.26-65.12Z"/>
  <path class="cls-3" d="M712.42,164.66V1012.4c0,18.49-14.79,33.48-33.05,33.48H234.9c-18.25,0-33.05-14.99-33.05-33.48V164.66c0-18.49,14.79-33.48,33.05-33.48h444.47c18.25,0,33.05,14.99,33.05,33.48Z"/>
  <path d="M679.37,1047.46H234.9c-19.08,0-34.6-15.73-34.6-35.06V164.66c0-19.33,15.53-35.06,34.6-35.06h444.47c19.08,0,34.61,15.73,34.61,35.06V1012.4c0,19.33-15.53,35.06-34.61,35.06ZM234.9,132.76c-17.36,0-31.49,14.31-31.49,31.9V1012.39c0,17.59,14.13,31.9,31.49,31.9h444.47c17.37,0,31.49-14.31,31.49-31.9V164.66c0-17.59-14.13-31.9-31.49-31.9H234.9Z"/>
  <path class="cls-5" d="M568.1,885.77c0,62.09-49.68,112.42-110.98,112.42s-110.95-50.33-110.95-112.42,49.68-112.4,110.95-112.4,110.98,50.33,110.98,112.4Z"/>
  <path d="M457.12,999.78c-62.04,0-112.51-51.14-112.51-114s50.47-113.98,112.51-113.98,112.53,51.13,112.53,113.98-50.48,114-112.53,114Zm0-224.83c-60.32,0-109.39,49.72-109.39,110.82s49.07,110.85,109.39,110.85,109.42-49.73,109.42-110.85c0-61.11-49.08-110.82-109.42-110.82Z"/>
  <path class="cls-6" d="M531.6,131.19h0c0,17.94-14.36,32.49-32.07,32.49h-84.78c-17.71,0-32.07-14.54-32.07-32.49h148.92Z"/>
  <path d="M499.53,165.26h-84.77c-18.54,0-33.63-15.29-33.63-34.07,0-.87,.7-1.58,1.56-1.58h148.92c.86,0,1.56,.71,1.56,1.58,0,18.79-15.09,34.07-33.63,34.07Zm-115.25-32.49c.82,16.31,14.17,29.33,30.47,29.33h84.77c16.3,0,29.66-13.02,30.47-29.33h-145.72Z"/>
  <path class="cls-4" d="M634.73,536.86v44.93c0,6.38-5.11,11.56-11.41,11.56H293.47c-6.3,0-11.41-5.17-11.41-11.56v-44.93c0-6.38,5.11-11.56,11.41-11.56h329.86c6.3,0,11.4,5.17,11.4,11.56Z"/>
  <path d="M623.33,594.92H293.47c-7.15,0-12.96-5.89-12.96-13.13v-44.93c0-7.24,5.82-13.13,12.96-13.13h329.86c7.15,0,12.96,5.89,12.96,13.13v44.93c0,7.24-5.82,13.13-12.96,13.13Zm-329.86-68.04c-5.43,0-9.84,4.48-9.84,9.97v44.93c0,5.5,4.42,9.97,9.84,9.97h329.86c5.43,0,9.84-4.48,9.84-9.97v-44.93c0-5.5-4.42-9.97-9.84-9.97H293.47Z"/>
  <path d="M340.66,560.9h-8.4c-.86,0-1.56-.71-1.56-1.58s.7-1.58,1.56-1.58h8.4c.86,0,1.56,.71,1.56,1.58s-.69,1.58-1.56,1.58Zm34.44,0h-8.4c-.86,0-1.56-.71-1.56-1.58s.7-1.58,1.56-1.58h8.4c.86,0,1.56,.71,1.56,1.58s-.69,1.58-1.56,1.58Zm34.45,0h-8.4c-.86,0-1.56-.71-1.56-1.58s.7-1.58,1.56-1.58h8.4c.86,0,1.56,.71,1.56,1.58s-.7,1.58-1.56,1.58Zm34.44,0h-8.4c-.86,0-1.56-.71-1.56-1.58s.7-1.58,1.56-1.58h8.4c.86,0,1.56,.71,1.56,1.58s-.7,1.58-1.56,1.58Zm34.44,0h-8.4c-.86,0-1.56-.71-1.56-1.58s.7-1.58,1.56-1.58h8.4c.86,0,1.56,.71,1.56,1.58s-.7,1.58-1.56,1.58Zm34.44,0h-8.4c-.86,0-1.56-.71-1.56-1.58s.7-1.58,1.56-1.58h8.4c.86,0,1.56,.71,1.56,1.58s-.7,1.58-1.56,1.58Zm34.44,0h-8.4c-.86,0-1.56-.71-1.56-1.58s.7-1.58,1.56-1.58h8.4c.86,0,1.56,.71,1.56,1.58s-.7,1.58-1.56,1.58Zm34.44,0h-8.4c-.86,0-1.56-.71-1.56-1.58s.7-1.58,1.56-1.58h8.4c.86,0,1.56,.71,1.56,1.58s-.7,1.58-1.56,1.58Z"/>
  <path class="cls-4" d="M634.73,659.73v44.93c0,6.38-5.11,11.56-11.41,11.56H293.47c-6.3,0-11.41-5.17-11.41-11.56v-44.93c0-6.38,5.11-11.56,11.41-11.56h329.86c6.3,0,11.4,5.18,11.4,11.56Z"/>
  <path d="M623.33,717.79H293.47c-7.15,0-12.96-5.89-12.96-13.13v-44.93c0-7.24,5.82-13.13,12.96-13.13h329.86c7.15,0,12.96,5.89,12.96,13.13v44.93c0,7.24-5.82,13.13-12.96,13.13Zm-329.86-68.03c-5.43,0-9.84,4.48-9.84,9.97v44.93c0,5.5,4.42,9.97,9.84,9.97h329.86c5.43,0,9.84-4.48,9.84-9.97v-44.93c0-5.5-4.42-9.97-9.84-9.97H293.47Z"/>
  <path d="M340.66,683.77h-8.4c-.86,0-1.56-.71-1.56-1.58s.7-1.58,1.56-1.58h8.4c.86,0,1.56,.71,1.56,1.58s-.69,1.58-1.56,1.58Zm34.44,0h-8.4c-.86,0-1.56-.71-1.56-1.58s.7-1.58,1.56-1.58h8.4c.86,0,1.56,.71,1.56,1.58s-.69,1.58-1.56,1.58Zm34.45,0h-8.4c-.86,0-1.56-.71-1.56-1.58s.7-1.58,1.56-1.58h8.4c.86,0,1.56,.71,1.56,1.58s-.7,1.58-1.56,1.58Zm34.44,0h-8.4c-.86,0-1.56-.71-1.56-1.58s.7-1.58,1.56-1.58h8.4c.86,0,1.56,.71,1.56,1.58s-.7,1.58-1.56,1.58Zm34.44,0h-8.4c-.86,0-1.56-.71-1.56-1.58s.7-1.58,1.56-1.58h8.4c.86,0,1.56,.71,1.56,1.58s-.7,1.58-1.56,1.58Zm34.44,0h-8.4c-.86,0-1.56-.71-1.56-1.58s.7-1.58,1.56-1.58h8.4c.86,0,1.56,.71,1.56,1.58s-.7,1.58-1.56,1.58Zm34.44,0h-8.4c-.86,0-1.56-.71-1.56-1.58s.7-1.58,1.56-1.58h8.4c.86,0,1.56,.71,1.56,1.58s-.7,1.58-1.56,1.58Zm34.44,0h-8.4c-.86,0-1.56-.71-1.56-1.58s.7-1.58,1.56-1.58h8.4c.86,0,1.56,.71,1.56,1.58s-.7,1.58-1.56,1.58Z"/>
  <path class="cls-3" d="M579.54,353.28c0,33.59-13.18,64.04-34.6,86.38-22.23,23.19-53.36,37.6-87.79,37.6s-65.56-14.41-87.79-37.6c-21.43-22.34-34.6-52.79-34.6-86.38,0-68.48,54.8-124,122.4-124,67.6,0,122.4,55.52,122.4,124Z"/>
  <path d="M457.14,478.84c-33.8,0-65.37-13.52-88.91-38.08-22.6-23.56-35.05-54.63-35.05-87.49,0-69.24,55.61-125.59,123.96-125.59s123.96,56.34,123.96,125.59c0,32.85-12.45,63.92-35.05,87.49-23.54,24.56-55.12,38.08-88.91,38.08Zm0-247.99c-66.64,0-120.84,54.92-120.84,122.42,0,32.02,12.13,62.31,34.17,85.29,22.95,23.94,53.73,37.12,86.67,37.12s63.73-13.18,86.68-37.12c22.03-22.97,34.17-53.26,34.17-85.29,0-67.5-54.22-122.42-120.85-122.42Z"/>
  <path d="M544.93,439.66c-22.23,23.19-53.36,37.6-87.79,37.6s-65.56-14.41-87.79-37.6c18.11-29.86,50.66-49.76,87.79-49.76,37.13,0,69.69,19.9,87.79,49.76Z"/>
  <path d="M457.14,478.84c-33.8,0-65.37-13.52-88.91-38.08-.5-.52-.58-1.31-.21-1.92,19.18-31.63,52.5-50.52,89.12-50.52s69.94,18.89,89.12,50.52c.37,.62,.29,1.41-.21,1.92-23.54,24.56-55.12,38.08-88.91,38.08Zm-85.83-39.4c22.86,23.38,53.28,36.24,85.83,36.24s62.97-12.86,85.83-36.24c-18.7-30.06-50.7-47.96-85.83-47.96-35.13,0-67.12,17.91-85.83,47.96Z"/>
  <path class="cls-2" d="M484.23,358.63c17.36-68.68-51.68-72.57-68.21-43.89-6.44,10.51-12.85,21.76-13.26,34.12-.41,12.22,5.6,24.46,15.46,31.51,9.86,7.04,23.26,8.67,34.49,4.18l-7.7,2.23c-1.32,8.67-2.01,10.51-2.25,13.14,10.98,17.97,34.06,22.38,41.49,.34v-41.62h0Z"/>
  <path d="M466.26,416.71c-9.12,0-18.86-6.18-24.85-15.97-.18-.29-.26-.63-.23-.97,.12-1.29,.33-2.38,.66-4.03,.33-1.64,.75-3.81,1.31-7.3-9.06,.85-18.46-1.5-25.85-6.78-10.22-7.3-16.54-20.2-16.12-32.85,.42-12.57,6.63-23.68,13.5-34.89,8.79-15.25,32.56-22,50.83-14.39,9.58,3.98,30.7,17.73,20.27,59.31v41.42c0,.17-.03,.35-.09,.51-3.13,9.3-9.25,14.91-17.21,15.83-.74,.08-1.48,.12-2.22,.12Zm-21.92-17.18c5.88,9.3,15.38,14.87,23.79,13.92,6.64-.76,11.79-5.54,14.53-13.47v-41.35c0-.13,.02-.26,.05-.39,7-27.69,.3-48.03-18.38-55.8-16.93-7.04-38.89-.92-46.98,13.1-6.66,10.88-12.66,21.59-13.05,33.38-.39,11.62,5.42,23.46,14.8,30.17,7.61,5.44,17.6,7.51,26.78,5.8l6.38-1.84c.79-.24,1.64,.22,1.9,1.01,.27,.8-.13,1.66-.9,1.98-2.14,.85-4.36,1.5-6.63,1.92l-.26,.08c-.64,4.11-1.12,6.53-1.48,8.34-.27,1.35-.44,2.25-.55,3.17Zm39.88,.71h0Z"/>
  <path d="M412.19,321.16s11-16.31,24.26-13.19c13.27,3.12,16.55,59.56,32.3,36.74,0,0,18.17-9.08,26.08,13.24,0,0,41.79-56.88-6.78-58.55,0,0,11.52-32.56-43.66-28.94-52.56,3.45-39.78,46.45-32.2,50.7Z"/>
  <path d="M494.83,359.53c-.07,0-.15,0-.23-.02-.57-.09-1.05-.48-1.24-1.03-2.37-6.69-5.91-11.04-10.51-12.94-5.76-2.37-11.63-.19-13.08,.43-2.98,4.21-5.84,6.06-8.7,5.69-5.76-.76-9.16-10.2-13.1-21.13-3.37-9.34-7.18-19.92-11.88-21.02-12.1-2.83-22.52,12.39-22.63,12.55-.45,.68-1.34,.89-2.04,.49-4.76-2.67-9.84-15.5-7.13-27.76,2.38-10.77,11.26-24.01,39.99-25.9,21.47-1.42,35.72,2.41,42.37,11.33,4.95,6.65,4.17,14.18,3.41,17.7,10.9,.75,18.03,4.5,21.2,11.17,8.31,17.5-14.22,48.5-15.18,49.81-.29,.41-.76,.64-1.25,.64Zm-17.69-18.24c2.14,0,4.49,.35,6.85,1.31,4.78,1.96,8.55,6,11.21,12.05,5.01-7.48,19.53-30.99,13.25-44.21-2.81-5.92-9.69-9.11-20.45-9.48-.5-.02-.96-.28-1.23-.69s-.35-.95-.18-1.42c.03-.09,3.15-9.29-2.44-16.78-5.9-7.9-19.62-11.37-39.65-10.06-26.81,1.76-35,13.72-37.15,23.44-2.27,10.24,1.63,20.19,4.56,23.42,3.11-4.04,12.99-15.26,24.9-12.46,6.34,1.49,10.11,11.94,14.1,23.01,3.14,8.7,6.7,18.57,10.57,19.09,2.05,.25,4.41-2.42,6-4.72,.15-.22,.35-.39,.59-.51,.22-.12,4.07-2,9.07-2Zm-32.11,10.02c-.49,0-.98-.24-1.28-.68-1.63-2.37-3.03-4.29-4.96-5.53-1.66-1.08-4.13-1.63-5.9-.45-.72,.48-1.69,.28-2.16-.45-.47-.73-.28-1.71,.44-2.19,2.57-1.72,6.22-1.56,9.28,.42,2.61,1.69,4.4,4.3,5.84,6.39,.49,.71,.32,1.7-.39,2.2-.26,.19-.58,.28-.88,.28Z"/>
  <ellipse cx="411.72" cy="343.92" rx="3.09" ry="3.13"/>
  <ellipse cx="433.66" cy="353.7" rx="3.09" ry="3.13"/>
  <path d="M425.17,375.42c-.23,0-.48-.05-.7-.17-.77-.39-1.07-1.35-.68-2.12,1.39-2.75,3.52-4.71,6-5.52,2.07-.68,4.19-.5,6.14,.52,.76,.4,1.07,1.35,.67,2.13-.39,.77-1.33,1.08-2.1,.68-1.19-.62-2.49-.73-3.76-.32-1.69,.55-3.17,1.95-4.18,3.95-.27,.55-.82,.86-1.39,.86Zm-10.04-10.8c-.18,0-.36,0-.54-.02-1.68-.12-3.69-.95-4.3-2.93-.4-1.29,0-2.54,.39-3.49,.95-2.29,2.67-3.99,4.33-5.64,.59-.59,1.18-1.17,1.72-1.78,1.66-1.86,2.39-4.08,2.15-6.57-.33-3.39-2.33-6.22-3.32-6.97-1.83-1.39-4.64-2.99-7.59-2.7-.9,.05-1.62-.56-1.7-1.43-.08-.87,.55-1.64,1.41-1.72,3.11-.29,6.5,.85,9.75,3.32,1.92,1.45,4.17,5.17,4.56,9.19,.32,3.37-.69,6.48-2.94,8.99-.58,.65-1.21,1.28-1.85,1.91-1.5,1.5-2.92,2.91-3.64,4.62-.1,.24-.4,.96-.29,1.32,.11,.35,.78,.66,1.54,.72,2.26,.17,4.52-1.24,5.42-3.33,.35-.8,1.27-1.16,2.05-.82,.79,.35,1.15,1.28,.81,2.08-1.34,3.1-4.62,5.23-7.95,5.23Z"/>
  <g>
    <path class="cls-2" d="M465.94,347.71c1.61-8.51,9.7-14.07,18.1-12.45,8.4,1.63,13.89,9.83,12.29,18.34-1.6,8.49-9.7,14.07-18.1,12.45"/>
    <path d="M481.17,367.92c-1.08,0-2.16-.1-3.23-.31-.85-.16-1.4-.99-1.24-1.85,.16-.86,.99-1.43,1.82-1.25,3.65,.7,7.36-.07,10.43-2.18,3.07-2.12,5.15-5.32,5.85-9.01,1.44-7.64-3.52-15.04-11.05-16.5-7.54-1.44-14.84,3.57-16.28,11.19-.16,.86-1,1.43-1.82,1.25-.85-.16-1.4-.99-1.24-1.85,1.77-9.35,10.7-15.5,19.93-13.7,9.22,1.79,15.29,10.84,13.52,20.19-.85,4.52-3.39,8.44-7.15,11.03-2.86,1.97-6.16,2.99-9.54,2.99Z"/>
  </g>
  <g>
    <path class="cls-2" d="M475.88,349.64c.55-2.94,3.36-4.86,6.26-4.3s4.8,3.4,4.25,6.34c-.55,2.93-3.36,4.86-6.26,4.3"/>
    <path d="M481.15,357.66c-.43,0-.87-.04-1.31-.13-.85-.16-1.4-.99-1.24-1.85,.16-.86,.99-1.43,1.82-1.25,1,.19,2.01-.02,2.84-.59,.84-.58,1.4-1.45,1.6-2.45,.19-1.01-.02-2.03-.59-2.88-.57-.85-1.43-1.42-2.42-1.62-.99-.18-2,.02-2.84,.59-.84,.57-1.4,1.45-1.6,2.45-.16,.85-.99,1.43-1.82,1.25-.85-.16-1.4-.99-1.24-1.85,.71-3.79,4.35-6.29,8.08-5.56,1.81,.35,3.38,1.39,4.42,2.94,1.03,1.55,1.41,3.41,1.07,5.24s-1.38,3.42-2.9,4.48c-1.16,.8-2.5,1.22-3.87,1.22Z"/>
  </g>
  <g>
    <path class="cls-4" d="M603.26,271.36c0,9.07-3.2,17.39-8.49,23.85-6.77,8.25-16.96,13.49-28.37,13.49s-21.61-5.24-28.38-13.49c-5.3-6.46-8.49-14.78-8.49-23.85,0-20.63,16.51-37.36,36.88-37.36s36.87,16.73,36.87,37.36Z"/>
    <path d="M566.4,310.28c-11.47,0-22.25-5.12-29.58-14.06-5.71-6.96-8.86-15.79-8.86-24.86,0-21.47,17.24-38.94,38.44-38.94s38.42,17.47,38.42,38.94c0,9.07-3.15,17.9-8.85,24.86-7.34,8.93-18.11,14.06-29.57,14.06Zm0-74.7c-19.48,0-35.32,16.05-35.32,35.78,0,8.33,2.89,16.44,8.14,22.84,6.74,8.22,16.65,12.92,27.18,12.92s20.43-4.71,27.17-12.92c5.24-6.39,8.14-14.51,8.14-22.84,0-19.73-15.84-35.78-35.31-35.78Z"/>
    <path d="M561.85,279.13c-.06,0-.12,0-.18-.01-.42-.05-.79-.26-1.05-.6l-5.97-7.8c-.53-.69-.41-1.68,.28-2.22s1.66-.41,2.19,.28l4.99,6.52,13.81-11.38c.67-.55,1.65-.45,2.19,.23s.44,1.67-.22,2.22l-15.05,12.4c-.29,.24-.63,.36-.99,.36Z"/>
  </g>
  <g>
    <path class="cls-3" d="M470.02,894.25l9.47,32.05c.83,2.79-1.24,5.6-4.11,5.6h-36.45c-2.88,0-4.94-2.81-4.11-5.6l9.47-32.03c-10.05-5.15-16.69-16.17-15.49-28.65,1.29-13.36,11.89-24.27,25.06-25.77,17.21-1.95,31.78,11.64,31.78,28.66,0,11.25-6.35,20.98-15.61,25.73Z"/>
    <path d="M475.37,933.48h-36.45c-1.87,0-3.58-.87-4.69-2.39-1.12-1.52-1.45-3.43-.91-5.24l9.1-30.79c-10.42-5.92-16.35-17.39-15.18-29.59,1.36-14.18,12.48-25.6,26.44-27.18,8.69-.99,17.03,1.7,23.49,7.56,6.36,5.77,10.01,14.04,10.01,22.67,0,11.09-5.83,21.13-15.31,26.52l9.11,30.81c.53,1.81,.2,3.72-.91,5.24-1.11,1.52-2.82,2.39-4.69,2.39Zm-18.21-92.23c-1.04,0-2.09,.06-3.15,.18-12.5,1.41-22.46,11.65-23.68,24.35-1.09,11.34,4.66,21.97,14.64,27.09,.67,.35,1,1.13,.79,1.86l-9.47,32.03c-.25,.85-.1,1.74,.43,2.45,.52,.71,1.32,1.12,2.19,1.12h36.45c.87,0,1.68-.41,2.2-1.12,.52-.71,.68-1.61,.42-2.45l-9.47-32.05c-.21-.73,.12-1.51,.79-1.86,9.1-4.66,14.75-13.99,14.75-24.32,0-7.75-3.27-15.15-8.98-20.32-5-4.54-11.28-6.96-17.92-6.96Z"/>
  </g>
  <g>
    <path class="cls-6" d="M249.36,628.08c5.16-.99,9.93,3.06,9.93,8.38v170.44c0,9.8-4.71,19.01-12.65,24.72l-107.86,77.62c-2.92,2.1-6.83,2.1-9.75,0l-107.88-77.62c-7.94-5.71-12.65-14.92-12.65-24.73v-170.44c0-5.32,4.77-9.38,9.93-8.38,67.92,13.06,97.51-8.68,109.03-22.56,3.36-4.04,9.49-4.11,12.84-.06,11.48,13.87,41.06,35.7,109.06,22.62Z"/>
    <path d="M133.9,912.4c-2.02,0-4.04-.62-5.77-1.86l-107.88-77.62c-8.33-5.99-13.31-15.72-13.31-26.01v-170.44c0-3.03,1.32-5.87,3.62-7.8,2.28-1.91,5.26-2.69,8.16-2.13,66.97,12.88,96.13-8.26,107.55-22.02,1.92-2.31,4.71-3.63,7.67-3.63h.01c2.92,0,5.67,1.3,7.55,3.57,11.41,13.78,40.55,34.98,107.58,22.08,2.91-.56,5.87,.22,8.15,2.13,2.3,1.93,3.62,4.77,3.62,7.8v170.44c0,10.29-4.98,20.01-13.31,26.01l-107.86,77.62c-1.73,1.24-3.76,1.86-5.78,1.86ZM16.87,629.51c-1.56,0-3.09,.55-4.32,1.58-1.58,1.33-2.49,3.29-2.49,5.37v170.44c0,9.27,4.49,18.03,12,23.44l107.88,77.62c2.37,1.71,5.57,1.71,7.94,0l107.86-77.62c7.51-5.41,12-14.17,12-23.44v-170.44c0-2.08-.91-4.04-2.49-5.37-1.56-1.31-3.59-1.85-5.59-1.46h0c-68.58,13.19-98.7-8.85-110.55-23.16-1.28-1.55-3.16-2.44-5.16-2.44h0c-2.04,0-3.96,.91-5.29,2.5-11.85,14.28-41.98,36.27-110.52,23.1-.42-.09-.85-.12-1.26-.12Zm232.49-1.43h0Z"/>
  </g>
  <g>
    <path class="cls-2" d="M573.13,410.1l26.09,25.92,82.61,93.57c15.33,16.65,41.02,17.74,57.68,2.46l38.11-34.94-48.15-55.48-22.92,23.79-70.54-71.82c-.2-.21-.41-.41-.61-.61-1.95-1.96-4.14-3.65-6.51-5.06l-5.12-3.05c-4.41-2.63-7.66-6.85-9.11-11.82-2.21-7.58-6.69-18.16-14.38-17.48-11.48,1.01-4.96,18.23-4.96,18.23,0,0-39.37-16.02-46.68-5.96-9.33,12.83,34.36,20.85,34.36,20.85"/>
    <path d="M711.94,544.33c-11.47,0-22.9-4.6-31.25-13.67l-82.63-93.59-26.02-25.85c-.61-.61-.62-1.61-.02-2.23s1.58-.63,2.2-.02l26.08,25.92,82.68,93.64c14.64,15.9,39.54,16.96,55.47,2.35l36.97-33.9-46.03-53.03-21.75,22.57c-.29,.3-.69,.48-1.11,.48h-.01c-.42,0-.81-.17-1.1-.46l-71.14-72.41c-1.85-1.85-3.94-3.48-6.2-4.83l-5.12-3.05c-4.76-2.84-8.25-7.36-9.81-12.73-1.85-6.36-5.96-16.93-12.76-16.36-2.04,.18-3.45,.95-4.31,2.33-2.3,3.72-.29,11.19,.67,13.76,.22,.59,.08,1.25-.36,1.69-.44,.44-1.1,.57-1.67,.34-14.79-6.02-40.04-13.1-44.85-6.49-1.33,1.83-1.06,3.12-.75,3.93,2.83,7.21,25.59,12.86,34.13,14.43,.85,.16,1.41,.98,1.25,1.84s-.98,1.42-1.81,1.27c-3.31-.61-32.49-6.24-36.47-16.37-.63-1.61-.94-4.12,1.13-6.97,6.81-9.38,35.56,.47,45.5,4.24-.92-3.61-1.81-9.47,.58-13.34,1.4-2.26,3.64-3.54,6.69-3.81,6.77-.59,12.3,5.84,16.01,18.61,1.34,4.6,4.32,8.47,8.4,10.9l5.12,3.05c2.5,1.49,4.79,3.28,6.81,5.3l.61,.61,69.44,70.69,21.82-22.64c.3-.32,.67-.52,1.16-.48,.43,.01,.84,.21,1.13,.54l48.15,55.48c.56,.65,.51,1.63-.13,2.21l-38.11,34.94c-8.1,7.44-18.37,11.11-28.61,11.11Z"/>
    <path class="cls-2" d="M582.99,388.69s-20.98-3.92-23.81,2.94c-4.16,10.1,22.67,15.3,22.67,15.3"/>
    <path d="M581.86,408.51c-.1,0-.2-.01-.29-.03-1.99-.38-19.55-3.98-23.54-11.5-1-1.9-1.1-3.96-.28-5.96,3.15-7.65,21.82-4.58,25.52-3.88,.85,.16,1.41,.98,1.25,1.84-.15,.85-.96,1.43-1.81,1.26-8.21-1.53-20.47-1.92-22.08,1.99-.47,1.14-.42,2.17,.14,3.25,2.79,5.25,16.37,8.92,21.38,9.9,.85,.16,1.4,.99,1.24,1.85-.14,.75-.79,1.28-1.53,1.28Z"/>
    <g>
      <path class="cls-2" d="M582.02,401.15s-21.44,.85-21.93,9.83c-.52,9.64,26.08,7.96,26.08,7.96"/>
      <path d="M581.51,420.64c-6.3,0-16.86-.67-21.06-4.9-1.34-1.35-2-3.03-1.9-4.85,.55-10.12,21.09-11.23,23.43-11.32,.79-.08,1.58,.64,1.62,1.51,.03,.87-.63,1.61-1.49,1.64-5.2,.21-20.1,2.19-20.44,8.34-.05,.94,.26,1.71,.99,2.44,4.09,4.11,18.33,4.18,23.45,3.85,.9-.05,1.6,.61,1.65,1.48s-.6,1.62-1.46,1.68c-.57,.05-2.36,.15-4.77,.15Z"/>
    </g>
    <path d="M612.44,398.81c-.17,0-.35-.03-.52-.09-18.97-6.72-18.18-24.84-18.17-25.02,.05-.87,.7-1.53,1.64-1.49,.86,.05,1.52,.79,1.47,1.66-.03,.65-.62,15.94,16.09,21.86,.81,.29,1.24,1.19,.96,2.01-.23,.65-.83,1.06-1.47,1.06Z"/>
  </g>
  <g>
    <path d="M1012.04,581.75h-213.08l23.79-127.59-39.43,49.52-57.77-66.56,66.01-65.89c6.46-6.45,15.17-10.06,24.23-10.06h188.6c14.47,0,27.4,9.14,32.4,22.9l29.99,82.53-79.23,14.42,24.49,100.75Z"/>
    <path d="M1012.04,583.33h-213.08c-.46,0-.9-.21-1.2-.57s-.42-.84-.33-1.3l22.64-121.41-35.54,44.62c-.29,.36-.72,.58-1.18,.59-.45-.02-.9-.19-1.21-.54l-57.77-66.56c-.54-.63-.51-1.58,.07-2.17l66.01-65.89c6.79-6.78,15.79-10.52,25.33-10.52h188.6c15.06,0,28.66,9.62,33.86,23.93l29.99,82.53c.16,.44,.12,.92-.11,1.33s-.62,.69-1.08,.77l-77.59,14.12,24.1,99.12c.11,.47,.01,.97-.29,1.35-.29,.38-.75,.61-1.23,.61Zm-211.19-3.16h209.21l-24.02-98.8c-.1-.42-.03-.87,.21-1.24s.61-.62,1.03-.7l77.4-14.09-29.35-80.77c-4.75-13.07-17.18-21.86-30.94-21.86h-188.6c-8.71,0-16.93,3.41-23.14,9.61l-64.95,64.85,55.58,64.03,38.27-48.06c.45-.57,1.22-.75,1.87-.44,.65,.3,1.01,1.02,.88,1.72l-23.45,125.73Z"/>
  </g>
  <g>
    <path class="cls-6" d="M941.73,982.37l-23.99-170.32-11.98,170.32h-117.68c7.14-141.26,18.41-392.75,20.31-399.83h190.49l65.55,399.83h-122.7Z"/>
    <path d="M1064.43,983.95h-122.7c-.77,0-1.44-.58-1.54-1.36l-21.93-155.69-10.94,155.58c-.06,.83-.74,1.46-1.55,1.46h-117.68c-.43,0-.84-.18-1.13-.49-.29-.31-.45-.74-.43-1.17,2.36-46.61,5.19-105.83,7.93-163.09,6.91-144.46,11.2-232.49,12.43-237.08,.19-.69,.8-1.17,1.5-1.17h190.49c.76,0,1.41,.56,1.54,1.32l65.54,399.83c.07,.46-.05,.92-.35,1.28-.3,.36-.73,.56-1.19,.56Zm-121.35-3.16h119.51l-65.02-396.68h-187.84c-1.53,13.33-6.92,126.07-12.15,235.24-2.7,56.59-5.51,115.09-7.85,161.44h114.59l11.88-168.86c.06-.81,.7-1.44,1.5-1.46,.78-.01,1.48,.56,1.6,1.36l23.8,168.97Z"/>
  </g>
  <path d="M1004.7,954.59c-.75,0-1.41-.55-1.54-1.32l-60.22-367.72c-.14-.86,.43-1.68,1.28-1.82,.86-.15,1.65,.44,1.79,1.3l60.22,367.72c.14,.86-.43,1.68-1.28,1.82-.09,.01-.17,.02-.26,.02Z"/>
  <g>
    <path class="cls-2" d="M867.85,560.95c-5.53,1.08-22.1,4.9-22.47,11.88-.35,6.28,7.39,8.15,15.06,8.5-4.49,3.31-8.17,7.46-6.94,11.75,1.34,4.7,7.67,4.9,14.24,3.66-1.02,2.61-1.24,5.36,.63,7.51,10.23,11.76,168.54-36.27,168.54-36.27,22-4.59,36.3-26.24,32.1-48.61l-9.62-51.16-71.84,12.8,8.13,32.19-96.75,23.54c-15.43-17.62-32.63-20.49-34.85-10.65-1.16,5.11,9.41,13.52,9.88,14.23-1.1,0-34,.3-34.98,10.47-1.07,11.09,20.36,11.52,28.89,10.17Z"/>
    <path d="M876.35,607.72c-7.04,0-8.37-1.52-9.16-2.43-1.13-1.3-2.19-3.43-1.63-6.6-7.74,1.02-12.29-.72-13.56-5.17-1.02-3.53,.48-7.2,4.46-10.93-5.16-.65-8.78-2.11-10.78-4.35-1.36-1.52-1.98-3.36-1.87-5.49,.23-4.44,5.24-7.64,11.1-9.88-5.72-.49-11.55-1.91-14.83-5.05-2.05-1.96-2.95-4.37-2.68-7.18,.93-9.64,23.19-11.47,32.67-11.82-4.51-4.33-8.44-9.08-7.53-13.07,.75-3.3,2.98-5.58,6.29-6.44,6.74-1.75,18.75,2.46,30.62,15.69l94.31-22.95-7.74-30.64c-.11-.43-.03-.88,.2-1.24s.61-.62,1.04-.7l71.84-12.8c.83-.15,1.64,.41,1.8,1.26l9.62,51.16c4.34,23.08-10.61,45.72-33.31,50.45-.26,.09-39.94,12.1-80.36,22.53-48.65,12.53-70.43,15.66-80.51,15.66Zm-8.62-12.56c.46,0,.91,.21,1.21,.57,.36,.44,.45,1.05,.25,1.58-.99,2.55-.88,4.48,.35,5.89,6.98,8.04,106.09-18.28,166.92-36.74,21.18-4.43,35.03-25.4,31.01-46.8l-9.34-49.63-68.67,12.24,7.71,30.53c.1,.41,.04,.84-.18,1.21-.21,.36-.57,.62-.97,.72l-96.75,23.54c-.55,.14-1.15-.05-1.53-.49-11.15-12.72-22.39-16.92-28.15-15.44-2.19,.57-3.54,1.94-4.02,4.09-.5,2.21,2.32,6.15,8.38,11.71,.86,.78,1.09,1.01,1.26,1.26,.33,.48,.36,1.11,.1,1.63-.27,.52-.8,.84-1.38,.84-10.62,0-32.77,2.21-33.44,9.05-.18,1.81,.38,3.31,1.71,4.58,5.02,4.8,19.01,4.9,25.38,3.88,.83-.14,1.63,.44,1.78,1.29,.14,.85-.41,1.66-1.24,1.82-9.63,1.88-20.96,5.72-21.21,10.41-.07,1.27,.28,2.31,1.07,3.19,1.87,2.09,6.19,3.35,12.51,3.64,.66,.03,1.23,.48,1.42,1.12s-.04,1.34-.57,1.73c-3.48,2.57-7.41,6.4-6.36,10.03,1.09,3.84,7.38,3.51,12.46,2.56,.1-.02,.2-.02,.29-.02Z"/>
    <line class="cls-1" x1="881.89" y1="576.78" x2="860.43" y2="581.32"/>
    <path d="M860.43,582.9c-.72,0-1.37-.51-1.53-1.25-.18-.85,.36-1.69,1.21-1.87l21.45-4.55c.85-.17,1.67,.37,1.85,1.22,.18,.85-.36,1.69-1.21,1.87l-21.45,4.55c-.11,.02-.22,.03-.32,.03Z"/>
    <g>
      <line class="cls-1" x1="867.74" y1="596.73" x2="889.45" y2="590.29"/>
      <path d="M867.74,598.31c-.68,0-1.3-.45-1.49-1.14-.24-.84,.23-1.71,1.06-1.96l21.71-6.44c.83-.25,1.69,.24,1.93,1.07,.24,.84-.23,1.71-1.06,1.96l-21.71,6.44c-.14,.04-.29,.06-.44,.06Z"/>
    </g>
    <g>
      <line class="cls-1" x1="884.68" y1="559.71" x2="866.78" y2="561.16"/>
      <path d="M866.78,562.74c-.81,0-1.48-.63-1.55-1.45-.07-.87,.57-1.63,1.43-1.7l17.9-1.45c.81-.03,1.61,.58,1.68,1.45,.07,.86-.57,1.63-1.43,1.7l-17.9,1.45s-.09,0-.13,0Z"/>
    </g>
  </g>
  <path d="M917.73,813.62c-.76,0-1.42-.56-1.54-1.34l-22.27-147.67c-.13-.86,.45-1.66,1.31-1.8,.85-.12,1.65,.46,1.78,1.32l22.27,147.67c.13,.86-.45,1.66-1.31,1.8-.08,.01-.16,.02-.24,.02Z"/>
  <polygon points="902.88 713.5 909.45 906.7 917.74 818.2 902.88 713.5"/>
  <g>
    <path class="cls-2" d="M868.73,275.19c-6.67,9.49-13.36,19.68-14.47,31.28-1.1,11.46,3.83,23.34,12.69,30.55s21.36,9.55,32.18,6.01l-7.37,1.63c-1.75,8.08-4.48,13.35-4.86,15.81,14.84,14.39,34.85,18.25,45.1,.42-.31-7.82-1.44-30.9-1.7-40.33,20.34-63.54-44.33-71.35-61.56-45.38Z"/>
    <path d="M912.71,374.4c-8.77,0-18.38-4.53-26.89-12.78-.37-.36-.54-.88-.46-1.38,.18-1.14,.7-2.57,1.44-4.57,.88-2.4,2.04-5.57,3-9.46-8.54,.21-17.21-2.56-23.82-7.96-9.2-7.49-14.4-20.03-13.26-31.94,1.14-11.81,7.62-21.89,14.74-32.02,9.21-13.86,32-18.78,48.76-10.52,8.79,4.33,27.87,18.54,15.65,57.02,.19,6.36,.74,18.49,1.17,28.25,.22,4.91,.42,9.19,.52,11.78,.01,.3-.06,.6-.21,.86-4.1,7.14-10.05,11.45-17.2,12.47-1.13,.17-2.27,.24-3.43,.24Zm-24.1-14.45c8.67,8.15,18.75,12.26,27.1,11.09,6.12-.88,11.08-4.42,14.71-10.55-.11-2.62-.29-6.69-.5-11.3-.45-9.92-1.01-22.26-1.18-28.58,0-.18,.02-.36,.07-.54,8.19-25.57,3.1-45.05-13.97-53.46-15.47-7.63-36.42-3.21-44.82,9.46,0,.01-.02,.03-.02,.03-6.87,9.78-13.13,19.47-14.19,30.52-1.05,10.87,3.71,22.32,12.11,29.17,6.82,5.56,16.05,8.08,24.77,7.05l6.1-1.35c.79-.18,1.62,.31,1.84,1.13,.22,.81-.23,1.65-1.02,1.91-2.06,.68-4.2,1.15-6.36,1.42l-.19,.04c-1.05,4.51-2.36,8.1-3.35,10.77-.47,1.28-.86,2.37-1.09,3.18Zm-19.88-84.75h0Z"/>
  </g>
  <g>
    <path d="M864.76,281s11.29-14.67,23.59-10.94c12.29,3.73,12.07,57,28.21,36.48,0,0,17.61-7.44,23.74,14.02,0,0,42.63-50.96-2.93-55.46,0,0,12.74-29.92-39.36-29.84-49.62,.09-40.13,41.28-33.25,45.73Z"/>
    <path d="M940.3,322.15c-.11,0-.22-.01-.33-.03-.56-.12-1.01-.55-1.17-1.11-1.83-6.4-4.88-10.69-9.07-12.74-5.22-2.55-10.8-.89-12.23-.39-3.07,3.79-5.87,5.35-8.59,4.84-5.42-1.08-8.07-10.18-11.15-20.72-2.61-8.96-5.57-19.11-9.87-20.41-11.11-3.37-21.8,10.26-21.91,10.4-.49,.64-1.39,.8-2.07,.36-4.34-2.81-8.4-15.23-5.12-26.63,2.88-10.02,12.03-21.97,39.21-22.01h.23c20.17,0,33.3,4.46,39.02,13.25,4.24,6.51,3.13,13.49,2.21,16.82,10.18,1.37,16.65,5.35,19.24,11.82,6.81,17-16.23,44.83-17.21,46.01-.31,.37-.74,.57-1.2,.57Zm-16.89-18.44c2.34,0,5,.41,7.63,1.69,4.36,2.12,7.66,6.12,9.83,11.9,5.24-6.85,20.02-27.87,14.94-40.55-2.28-5.7-8.54-9.1-18.6-10.09-.5-.05-.93-.34-1.19-.77s-.29-.96-.09-1.43c.04-.09,3.48-8.51-1.31-15.83-5.05-7.72-17.63-11.8-36.4-11.8h-.21c-25.25,.04-33.63,10.76-36.22,19.74-2.7,9.39,.29,18.87,2.83,22.13,3.24-3.69,13.17-13.5,24.16-10.17,5.92,1.79,8.86,11.87,11.97,22.55,2.43,8.35,5.19,17.81,8.75,18.51,1.89,.38,4.21-1.99,5.83-4.05,.17-.21,.38-.37,.62-.47,.2-.08,3.33-1.37,7.46-1.37Z"/>
  </g>
  <path d="M893.96,311.42c-.53,0-1.04-.27-1.33-.76-1.39-2.32-2.59-4.2-4.32-5.48-1.48-1.09-3.73-1.75-5.42-.77-.75,.43-1.7,.17-2.13-.58-.43-.76-.17-1.72,.58-2.16,2.55-1.48,6.01-1.11,8.81,.96,2.36,1.75,3.9,4.32,5.14,6.38,.45,.75,.21,1.72-.52,2.17-.25,.16-.53,.23-.8,.23Z"/>
  <ellipse cx="862.98" cy="302.37" rx="2.92" ry="2.96"/>
  <ellipse cx="883.04" cy="312.88" rx="2.92" ry="2.96"/>
  <path d="M873.86,332.89c-.27,0-.54-.07-.79-.22-.74-.44-.98-1.41-.54-2.16,1.48-2.52,3.62-4.25,6.02-4.87,2.01-.51,4.02-.22,5.81,.87,.74,.45,.98,1.42,.54,2.17s-1.4,.99-2.14,.55c-1.06-.64-2.26-.83-3.44-.51-1.6,.41-3.05,1.62-4.11,3.42-.29,.49-.81,.76-1.34,.76Z"/>
  <path d="M865.45,322.14c-.34,0-.67-.02-1-.07-1.6-.22-3.48-1.14-3.94-3.08-.3-1.28,.15-2.44,.58-3.32,1.03-2.11,2.75-3.61,4.41-5.06,.59-.52,1.18-1.03,1.72-1.57,1.65-1.63,2.46-3.64,2.38-5.97-.1-3.18-1.8-5.93-2.68-6.7-1.62-1.41-4.2-3.07-6.91-2.97h-.05c-.84,0-1.53-.68-1.56-1.53-.03-.87,.65-1.6,1.51-1.63,2.96-.08,6.1,1.19,9.03,3.73,1.74,1.5,3.65,5.17,3.78,8.99,.1,3.21-1.05,6.09-3.32,8.33-.59,.58-1.22,1.14-1.86,1.69-1.49,1.31-2.9,2.55-3.67,4.09-.28,.56-.39,.95-.34,1.16,.06,.25,.59,.59,1.33,.7,2.04,.26,4.26-.91,5.2-2.76,.39-.77,1.33-1.09,2.1-.68,.76,.39,1.07,1.35,.67,2.12-1.38,2.73-4.37,4.51-7.38,4.51Z"/>
  <g>
    <path class="cls-2" d="M913.73,309.2c2.01-7.9,9.95-12.65,17.75-10.62,7.8,2.04,12.49,10.08,10.48,17.98-2.01,7.89-9.95,12.65-17.75,10.62"/>
    <path d="M927.84,329.23c-1.33,0-2.68-.17-4.02-.52-.83-.22-1.33-1.08-1.12-1.92,.22-.84,1.06-1.34,1.9-1.14,6.95,1.82,14.06-2.44,15.85-9.48,.87-3.41,.37-6.96-1.39-9.99-1.77-3.03-4.59-5.19-7.97-6.06-6.95-1.82-14.06,2.44-15.85,9.48-.22,.84-1.06,1.34-1.9,1.14-.83-.22-1.33-1.08-1.12-1.92,2.22-8.73,11.03-13.99,19.65-11.75,4.17,1.09,7.68,3.76,9.87,7.52,2.19,3.76,2.81,8.16,1.73,12.39-1.87,7.36-8.44,12.27-15.63,12.27Z"/>
  </g>
  <g>
    <path class="cls-2" d="M922.97,311.61c.69-2.73,3.44-4.37,6.14-3.67,2.69,.7,4.32,3.49,3.62,6.22-.69,2.72-3.44,4.37-6.14,3.67"/>
    <path d="M927.86,319.57c-.55,0-1.1-.07-1.65-.22-.83-.22-1.33-1.08-1.12-1.92,.22-.84,1.07-1.34,1.9-1.14,.9,.24,1.84,.1,2.64-.38s1.37-1.24,1.6-2.16,.1-1.86-.37-2.67c-.47-.81-1.23-1.38-2.13-1.62-.9-.23-1.84-.1-2.64,.38-.8,.48-1.37,1.24-1.6,2.16-.21,.84-1.06,1.35-1.9,1.14-.83-.22-1.33-1.08-1.12-1.92,.44-1.73,1.52-3.18,3.04-4.09,1.52-.91,3.3-1.16,5-.71,1.71,.45,3.14,1.54,4.03,3.08,.9,1.54,1.15,3.33,.7,5.06-.44,1.72-1.52,3.18-3.04,4.09-1.03,.61-2.18,.93-3.34,.93Z"/>
  </g>
  <g>
    <path class="cls-3" d="M194.05,746.38c0,14.8-5.21,28.37-13.86,38.91-11.04,13.46-27.67,22.01-46.29,22.01s-35.26-8.56-46.3-22.01c-8.65-10.54-13.86-24.11-13.86-38.91,0-33.66,26.94-60.95,60.16-60.95s60.15,27.29,60.15,60.95Z"/>
    <path d="M133.9,808.88c-18.41,0-35.72-8.23-47.5-22.58-9.17-11.18-14.22-25.36-14.22-39.92,0-34.48,27.69-62.53,61.72-62.53s61.71,28.05,61.71,62.53c0,14.56-5.05,28.74-14.22,39.92-11.78,14.35-29.09,22.58-47.49,22.58Zm0-121.87c-32.31,0-58.61,26.64-58.61,59.37,0,13.83,4.79,27.28,13.5,37.89,11.19,13.63,27.63,21.44,45.11,21.44s33.9-7.82,45.09-21.44c8.71-10.61,13.5-24.07,13.5-37.89,0-32.74-26.28-59.37-58.58-59.37Z"/>
  </g>
  <g>
    <path class="cls-6" d="M124.71,766.54c-.29,0-.58-.02-.86-.05-2.02-.23-3.86-1.29-5.1-2.91l-12.07-15.77c-2.56-3.33-1.96-8.13,1.34-10.72,3.29-2.58,8.03-1.99,10.58,1.36l7.34,9.59,24.42-20.13c3.23-2.66,7.98-2.17,10.61,1.11s2.14,8.09-1.09,10.75l-30.42,25.06c-1.35,1.12-3.03,1.72-4.76,1.72Z"/>
    <path d="M124.72,768.12c-.35,0-.7-.02-1.05-.06-2.41-.28-4.66-1.56-6.15-3.51l-12.07-15.77c-1.49-1.95-2.14-4.36-1.84-6.81,.3-2.44,1.53-4.62,3.45-6.13,1.93-1.51,4.32-2.18,6.73-1.86,2.41,.31,4.56,1.56,6.04,3.5l6.36,8.31,23.19-19.11c1.89-1.56,4.27-2.26,6.67-2.02,2.42,.25,4.59,1.44,6.13,3.36,1.54,1.91,2.24,4.31,2,6.76s-1.42,4.65-3.31,6.21l-30.42,25.06c-1.63,1.34-3.67,2.07-5.75,2.07Zm-12.08-31.06c-1.32,0-2.6,.44-3.66,1.28-1.26,.99-2.07,2.42-2.27,4.03-.2,1.61,.23,3.19,1.21,4.48l12.07,15.77c.98,1.28,2.45,2.12,4.05,2.31,1.65,.19,3.22-.3,4.46-1.32l30.42-25.06c1.24-1.02,2.02-2.48,2.18-4.09,.17-1.61-.3-3.19-1.31-4.44-1.01-1.26-2.44-2.04-4.03-2.21-1.6-.17-3.15,.3-4.39,1.33l-25.66,21.14-8.32-10.86c-.98-1.28-2.38-2.1-3.97-2.3-.26-.03-.51-.05-.77-.05Z"/>
  </g>
  <g>
    <polygon class="cls-2" points="813.52 1010.09 817.61 982.37 884.01 982.37 882.31 1017.92 843.18 1045.88 813.52 1010.09"/>
    <path d="M843.19,1047.46c-.44,0-.89-.19-1.2-.56l-29.67-35.79c-.29-.35-.42-.8-.35-1.25l4.09-27.72c.12-.77,.77-1.35,1.54-1.35h66.4c.43,0,.83,.18,1.13,.49s.45,.74,.43,1.17l-1.7,35.55c-.02,.49-.27,.94-.66,1.22l-39.13,27.95c-.27,.18-.58,.28-.89,.28Zm-28.03-37.84l28.3,34.13,37.34-26.67,1.58-33.13h-63.42l-3.79,25.67Z"/>
  </g>
  <g>
    <path class="cls-5" d="M900.72,1064.87h-156.91v-8.69c0-10.86,6.15-20.43,15.09-23.55l.12-.05,34.78-12.07,11.04-16.29c1.94-2.89,4.91-4.55,8.05-4.55,2.87,0,5.58,1.37,7.51,3.81,5.91,7.45,20.16,23.19,35.14,23.58,19.65,.5,27.73-19.6,27.73-19.6,26.66,15.69,17.45,57.4,17.45,57.4Z"/>
    <path d="M900.72,1066.44h-156.91c-.86,0-1.56-.71-1.56-1.58v-8.69c0-11.6,6.49-21.67,16.14-25.04l34.42-11.95,10.74-15.85c2.22-3.32,5.63-5.23,9.33-5.23,3.33,0,6.51,1.61,8.73,4.4,5.38,6.79,19.45,22.62,33.97,22.98,.22,0,.44,.01,.67,.01,17.88,0,25.51-18.44,25.59-18.63,.17-.42,.51-.75,.94-.9s.9-.1,1.29,.13c27.35,16.09,18.57,57.36,18.19,59.11-.17,.71-.8,1.23-1.53,1.23Zm-155.35-3.16h154.06c1.2-6.77,5.7-39.55-15.51-53.56-2.54,4.98-11.38,19.36-28.43,18.92-15.82-.4-30.67-17.03-36.32-24.17-1.64-2.08-3.88-3.22-6.3-3.22-2.65,0-5.11,1.41-6.75,3.85l-11.04,16.29c-.19,.28-.46,.49-.78,.6l-34.77,12.07c-8.39,2.93-14.16,12-14.16,22.1v7.11h0Z"/>
    <path d="M864.54,1066.44c-.86,0-1.56-.71-1.56-1.58,0-20.46,15.12-37.48,35.18-39.58,.89-.1,1.62,.54,1.71,1.41,.09,.86-.53,1.64-1.39,1.73-18.46,1.94-32.38,17.6-32.38,36.44,0,.86-.7,1.57-1.56,1.57Zm-99.08,0h-21.64c-.86,0-1.56-.71-1.56-1.58v-8.69c0-11.6,6.49-21.67,16.14-25.04,.56-.19,1.29-.1,1.71,.31,5.7,5.53,8.97,13.64,8.97,22.23,0,4.11-.73,8.08-2.17,11.77-.25,.6-.82,1-1.46,1Zm-20.09-3.16h19c1.05-3.04,1.58-6.27,1.58-9.62,0-7.38-2.66-14.33-7.32-19.25-7.92,3.28-13.26,12.04-13.26,21.76v7.11h0Zm37.07-24.24c-.58,0-1.14-.32-1.4-.89l-5.28-11.02c-.37-.78-.05-1.73,.72-2.11,.78-.38,1.71-.05,2.08,.73l5.28,11.02c.37,.78,.05,1.73-.72,2.11-.22,.11-.45,.16-.68,.16Zm8.29-3.22c-.58,0-1.14-.32-1.4-.89l-5.28-11.02c-.37-.78-.05-1.73,.72-2.11s1.71-.05,2.08,.73l5.28,11.02c.37,.78,.05,1.73-.72,2.11-.22,.11-.45,.16-.68,.16Zm8.17-2.3c-.58,0-1.14-.32-1.4-.89l-5.28-11.02c-.37-.78-.05-1.73,.72-2.11,.78-.38,1.71-.05,2.08,.73l5.28,11.02c.37,.78,.05,1.73-.72,2.11-.22,.11-.45,.16-.68,.16Z"/>
    <path d="M790.98,1022.08c-4.46,0-6.84-8.02-6.84-13.8,0-7.51,3.68-10.17,6.84-10.17s6.84,2.66,6.84,10.17c0,5.79-2.38,13.8-6.84,13.8Zm0-20.82c-2.26,0-3.72,2.75-3.72,7.02,0,5.67,2.32,10.64,3.72,10.64s3.72-4.97,3.72-10.64c0-4.26-1.47-7.02-3.72-7.02Z"/>
    <path d="M786.07,1023.13c-1.23,0-2.66-.38-4.24-1.14-2.5-1.19-5.1-3.17-7.12-5.43-4.99-5.56-4.03-10.04-1.7-12.19,1.49-1.38,3.48-1.85,5.6-1.33,2.09,.51,4.18,1.92,6.22,4.19,2.03,2.26,3.72,5.06,4.66,7.7,1.15,3.24,.96,5.79-.55,7.17-.74,.68-1.71,1.02-2.87,1.02Zm-9.11-17.13c-.71,0-1.34,.24-1.85,.71-1.67,1.54-.92,4.57,1.91,7.72,1.73,1.94,4.03,3.69,6.15,4.7,2.12,1.01,3.36,.94,3.68,.64,.28-.25,.57-1.37-.28-3.77-.79-2.23-2.3-4.71-4.03-6.64-2.01-2.23-3.63-3-4.64-3.25-.33-.06-.63-.11-.92-.11Z"/>
    <path d="M912.53,1066.54h-176.93c-.86,0-1.56-.71-1.56-1.58s.7-1.58,1.56-1.58h176.93c.86,0,1.56,.71,1.56,1.58s-.7,1.58-1.56,1.58Z"/>
  </g>
  <g>
    <polygon class="cls-2" points="973.37 1010.09 977.47 982.37 1043.87 982.37 1042.17 1017.92 1003.04 1045.88 973.37 1010.09"/>
    <path d="M1003.04,1047.46c-.44,0-.89-.19-1.2-.56l-29.67-35.79c-.29-.35-.42-.8-.35-1.25l4.09-27.72c.12-.77,.77-1.35,1.54-1.35h66.41c.43,0,.83,.18,1.13,.49s.45,.74,.43,1.17l-1.7,35.55c-.02,.49-.27,.94-.66,1.22l-39.13,27.95c-.27,.18-.59,.28-.9,.28Zm-28.03-37.84l28.3,34.13,37.34-26.67,1.58-33.13h-63.42l-3.79,25.67Z"/>
  </g>
  <g>
    <path class="cls-5" d="M1060.58,1064.87h-156.91v-8.69c0-10.86,6.15-20.43,15.09-23.55l.12-.05,34.78-12.07,11.04-16.29c1.94-2.89,4.91-4.55,8.05-4.55,2.87,0,5.58,1.37,7.51,3.81,5.91,7.45,20.16,23.19,35.14,23.58,19.65,.5,27.73-19.6,27.73-19.6,26.67,15.69,17.45,57.4,17.45,57.4Z"/>
    <path d="M1060.58,1066.44h-156.91c-.86,0-1.56-.71-1.56-1.58v-8.69c0-11.6,6.49-21.67,16.14-25.04l34.42-11.95,10.74-15.85c2.19-3.27,5.68-5.23,9.33-5.23,3.33,0,6.51,1.61,8.73,4.4,5.38,6.79,19.45,22.62,33.97,22.98,18.32,.44,26.17-18.43,26.25-18.61,.17-.42,.51-.75,.94-.9,.43-.15,.9-.1,1.29,.13,27.35,16.09,18.57,57.36,18.19,59.11-.17,.71-.8,1.23-1.53,1.23Zm-155.35-3.16h154.06c1.2-6.77,5.7-39.55-15.51-53.56-2.51,4.9-11.13,18.92-27.68,18.92-.25,0-.5,0-.75-.01-15.83-.4-30.67-17.03-36.32-24.17-1.65-2.08-3.88-3.22-6.3-3.22-2.65,0-5.11,1.41-6.75,3.85l-11.04,16.29c-.19,.28-.46,.49-.78,.6l-34.77,12.07c-8.39,2.93-14.16,12-14.16,22.1v7.12Z"/>
    <path d="M1024.39,1066.44c-.86,0-1.56-.71-1.56-1.58,0-20.46,15.13-37.48,35.18-39.58,.87-.1,1.62,.54,1.71,1.41,.09,.86-.53,1.64-1.39,1.73-18.46,1.94-32.38,17.6-32.38,36.44,0,.86-.7,1.57-1.56,1.57Zm-99.08,0h-21.64c-.86,0-1.56-.71-1.56-1.58v-8.69c0-11.6,6.49-21.67,16.14-25.04,.56-.19,1.29-.1,1.71,.31,5.7,5.53,8.97,13.64,8.97,22.23,0,4.11-.73,8.08-2.17,11.77-.24,.6-.81,1-1.45,1Zm-20.09-3.16h19c1.05-3.04,1.58-6.27,1.58-9.62,0-7.38-2.66-14.33-7.32-19.25-7.92,3.28-13.26,12.05-13.26,21.76v7.11h0Zm37.07-24.24c-.58,0-1.14-.32-1.4-.89l-5.28-11.02c-.37-.78-.05-1.73,.72-2.11,.78-.38,1.71-.05,2.08,.73l5.28,11.02c.37,.78,.05,1.73-.72,2.11-.22,.11-.45,.16-.68,.16Zm8.29-3.22c-.58,0-1.14-.32-1.4-.89l-5.28-11.02c-.37-.78-.05-1.73,.72-2.11,.78-.38,1.71-.05,2.08,.73l5.28,11.02c.37,.78,.05,1.73-.72,2.11-.22,.11-.45,.16-.68,.16Zm8.18-2.3c-.58,0-1.14-.32-1.4-.89l-5.28-11.02c-.37-.78-.05-1.73,.72-2.11,.78-.38,1.71-.05,2.08,.73l5.28,11.02c.37,.78,.05,1.73-.72,2.11-.22,.11-.45,.16-.68,.16Z"/>
    <path d="M950.84,1022.08c-4.46,0-6.84-8.02-6.84-13.8,0-7.51,3.68-10.17,6.84-10.17s6.84,2.66,6.84,10.17c0,5.79-2.38,13.8-6.84,13.8Zm0-20.82c-2.26,0-3.72,2.75-3.72,7.02,0,5.67,2.32,10.64,3.72,10.64s3.72-4.97,3.72-10.64c0-4.26-1.47-7.02-3.72-7.02Z"/>
    <path d="M945.92,1023.13c-1.23,0-2.66-.38-4.24-1.14-2.5-1.19-5.1-3.17-7.12-5.43-2.04-2.27-3.23-4.51-3.53-6.66-.31-2.18,.34-4.15,1.84-5.52,1.49-1.38,3.48-1.85,5.6-1.33,2.09,.51,4.18,1.92,6.22,4.19,2.03,2.26,3.72,5.06,4.66,7.7,1.15,3.24,.96,5.79-.55,7.17-.74,.68-1.71,1.02-2.87,1.02Zm-9.11-17.13c-.71,0-1.33,.24-1.85,.71-.73,.67-1.01,1.59-.85,2.73,.15,1.04,.75,2.76,2.75,4.99,1.73,1.94,4.03,3.69,6.15,4.7,2.28,1.09,3.4,.9,3.68,.64,.28-.25,.57-1.37-.28-3.77-.79-2.23-2.3-4.71-4.03-6.64-2.01-2.23-3.63-3-4.64-3.25-.32-.06-.63-.11-.92-.11Z"/>
    <path d="M1072.39,1066.54h-176.93c-.86,0-1.56-.71-1.56-1.58s.7-1.58,1.56-1.58h176.93c.86,0,1.56,.71,1.56,1.58s-.7,1.58-1.56,1.58Z"/>
  </g>
  <path d="M1059.9,954.59h-91.67c-.86,0-1.56-.71-1.56-1.58s.7-1.58,1.56-1.58h91.67c.86,0,1.56,.71,1.56,1.58s-.7,1.58-1.56,1.58Z"/>
  <path d="M907.61,954.59h-96.21c-.86,0-1.56-.71-1.56-1.58s.7-1.58,1.56-1.58h96.21c.86,0,1.56,.71,1.56,1.58s-.7,1.58-1.56,1.58Z"/>
  <path d="M848.76,954.59c-.86,0-1.56-.71-1.56-1.58v-367.72c0-.87,.7-1.58,1.56-1.58s1.56,.71,1.56,1.58v367.72c0,.87-.7,1.58-1.56,1.58Z"/>
  <g>
    <path class="cls-6" d="M873.68,163.03l4.48,25.43-22.47-11.47c-1.64,.91-3.33,1.77-5.06,2.56-37.35,17.09-81.27,.24-98.13-37.58-16.85-37.8-.29-82.32,37.06-99.39,37.31-17.07,81.26-.24,98.11,37.54,12.84,28.77,6.3,61.42-13.98,82.92Z"/>
    <path d="M878.16,190.05c-.24,0-.48-.05-.7-.17l-21.74-11.1c-1.48,.8-2.98,1.55-4.45,2.22-18.43,8.44-39.02,9.09-57.93,1.84-18.92-7.25-33.92-21.53-42.25-40.21-8.32-18.67-8.97-39.51-1.84-58.68,7.14-19.18,21.23-34.38,39.67-42.8,38.05-17.4,82.98-.21,100.17,38.33,12.69,28.43,7.28,61.34-13.73,84.08l4.34,24.65c.1,.59-.13,1.18-.6,1.55-.28,.19-.6,.3-.93,.3Zm-22.47-14.64c.24,0,.48,.05,.7,.17l19.69,10.05-3.93-22.32c-.09-.5,.06-1.01,.41-1.37,20.58-21.81,25.96-53.68,13.68-81.18-16.49-36.95-59.57-53.45-96.05-36.75-17.68,8.08-31.19,22.66-38.04,41.04-6.84,18.38-6.22,38.36,1.76,56.26,7.98,17.91,22.37,31.6,40.51,38.55,18.14,6.95,37.88,6.32,55.56-1.77,1.65-.75,3.31-1.59,4.96-2.5,.23-.12,.49-.18,.75-.18Z"/>
  </g>
  <g>
    <path class="cls-3" d="M819.58,134.41c-3.38,0-6.22-2.67-6.43-6.13l-.27-4.46c-.38-6.42,3.52-12.25,9.7-14.51,6.07-2.22,9.98-8.33,9.53-14.86-.54-7.71-7.51-13.98-15.06-13.62-3.93,.17-7.53,1.88-10.16,4.83-2.63,2.95-3.94,6.76-3.71,10.72,.21,3.6-2.49,6.7-6.04,6.91-3.57,.22-6.61-2.52-6.82-6.12-.45-7.49,2.04-14.69,7-20.26,4.97-5.57,11.78-8.82,19.19-9.13,14.65-.57,27.43,10.93,28.46,25.76,.86,12.34-6.55,23.88-18.02,28.07-.63,.23-1.24,.76-1.21,1.44l.27,4.46c.21,3.6-2.49,6.7-6.04,6.91-.13,0-.26,.01-.39,.01Z"/>
    <path d="M819.58,135.99c-4.23,0-7.73-3.35-7.99-7.62l-.27-4.46c-.43-7.12,3.88-13.59,10.73-16.09,5.41-1.98,8.91-7.43,8.5-13.27-.47-6.79-6.7-12.52-13.44-12.16-3.51,.15-6.73,1.68-9.07,4.31-2.35,2.63-3.52,6.03-3.31,9.57,.27,4.46-3.1,8.31-7.51,8.58-2.12,.15-4.2-.58-5.8-2.03-1.6-1.43-2.54-3.42-2.68-5.58-.47-7.92,2.16-15.52,7.41-21.41s12.45-9.32,20.28-9.65c15.49-.62,29,11.61,30.08,27.22,.91,13.04-6.92,25.24-19.05,29.67-.06,.02-.12,.05-.17,.08l.26,4.24c.13,2.16-.58,4.24-2,5.86-1.41,1.62-3.38,2.58-5.51,2.72-.15,.01-.31,.02-.47,.02Zm-1.9-56.77c8.17,0,15.41,6.77,15.99,15.11,.5,7.24-3.84,14.01-10.56,16.46-5.53,2.02-9.02,7.22-8.67,12.93l.27,4.46c.15,2.61,2.29,4.65,4.87,4.65h.3c1.31-.09,2.5-.68,3.37-1.67,.86-.99,1.3-2.26,1.22-3.58l-.27-4.46c-.07-1.29,.82-2.5,2.23-3.02,10.82-3.95,17.81-14.84,16.99-26.47-.97-13.93-12.97-24.83-26.85-24.29-6.98,.3-13.41,3.36-18.09,8.61-4.68,5.26-7.03,12.04-6.6,19.11,.08,1.32,.66,2.53,1.63,3.41,.98,.88,2.24,1.32,3.54,1.23,1.31-.08,2.5-.67,3.36-1.66,.86-.99,1.3-2.26,1.22-3.58-.26-4.39,1.2-8.61,4.11-11.87,2.91-3.26,6.9-5.16,11.25-5.35,.22,0,.45-.01,.68-.01Z"/>
  </g>
  <g>
    <path class="cls-3" d="M821.09,156.63c-3.38,0-6.22-2.67-6.43-6.13l-.13-2.17c-.21-3.6,2.49-6.7,6.04-6.91,3.59-.22,6.61,2.52,6.82,6.12l.13,2.17c.21,3.6-2.49,6.7-6.04,6.91-.13,0-.27,.01-.39,.01Z"/>
    <path d="M821.09,158.21c-4.23,0-7.73-3.35-7.99-7.62l-.13-2.17c-.13-2.16,.58-4.25,2-5.87s3.38-2.58,5.51-2.72c4.43-.21,8.21,3.15,8.47,7.6l.13,2.17c.27,4.46-3.1,8.32-7.51,8.59-.17,.01-.33,.02-.49,.02Zm-.12-15.23c-.1,0-.2,0-.3,.01-1.3,.08-2.5,.67-3.36,1.66s-1.3,2.26-1.22,3.58l.13,2.17c.15,2.61,2.29,4.65,4.87,4.65h.3c2.69-.17,4.75-2.53,4.58-5.25l-.13-2.17c-.15-2.62-2.31-4.65-4.87-4.65Z"/>
  </g>
</svg>